<svg xmlns="http://www.w3.org/2000/svg" width="14.498" height="12.641" viewBox="0 0 14.498 12.641">
    <g fill="none" stroke-miterlimit="10">
        <path d="M235.488 98.6l-6.153 6.223-6.156-6.223a3.761 3.761 0 0 1 2.4-6.409c.079-.006.155-.009.234-.009a4.486 4.486 0 0 1 3.523 1.7 4.5 4.5 0 0 1 3.526-1.7c.079 0 .155 0 .234.009a3.761 3.761 0 0 1 2.392 6.409z" transform="translate(-222.084 -92.178)"/>
        <path fill="#000" d="M229.335 103.397l5.441-5.504c.938-.95.93-2.17.609-2.995-.396-1.019-1.272-1.659-2.343-1.712l-.011-.001h-.012c-.057-.005-.11-.007-.16-.007-1.075 0-2.075.482-2.745 1.323l-.783.984-.782-.986c-.666-.84-1.665-1.321-2.74-1.321-.051 0-.104.002-.161.006l-.011.001h-.012c-1.07.054-1.947.694-2.343 1.713-.32.825-.33 2.045.608 2.995l5.445 5.504m0 1.422l-6.156-6.223c-2.257-2.286-.811-6.249 2.396-6.41.079-.005.155-.008.234-.008 1.426 0 2.7.662 3.523 1.7.826-1.038 2.1-1.7 3.526-1.7.079 0 .155.003.234.009 3.207.16 4.653 4.123 2.396 6.409l-6.153 6.223z" transform="translate(-222.084 -92.178)"/>
    </g>
</svg>
