<svg xmlns="http://www.w3.org/2000/svg" id="Group_4884" width="48" height="48" viewBox="0 0 48 48">
    <defs>
        <style>
            .cls-3{stroke:none}
        </style>
    </defs>
    <g id="Group_4621">
        <g id="Group_3939" transform="translate(14.5 16)">
            <g id="Group_3959">
                <g id="Path_1781" fill="#212121">
                    <path d="M231.138 106.968L223.95 99.7c-1.134-1.148-1.472-2.805-.881-4.325.575-1.48 1.85-2.409 3.41-2.487h.015c.085-.007.164-.01.241-.01 1.511 0 2.915.677 3.851 1.858l.548.69.548-.69c.94-1.18 2.346-1.858 3.856-1.858.078 0 .156.003.24.01h.017c1.56.078 2.834 1.008 3.41 2.487.59 1.52.253 3.177-.882 4.325l-7.185 7.268z" class="cls-3" transform="translate(-222.084 -92.178)"/>
                    <path d="M231.138 105.972l6.687-6.763c1.121-1.135 1.11-2.593.727-3.58-.472-1.215-1.516-1.978-2.792-2.042h-.016l-.016-.002c-.067-.005-.13-.007-.19-.007-1.296 0-2.501.581-3.308 1.595l-1.097 1.378-1.095-1.38c-.803-1.013-2.007-1.593-3.303-1.593-.06 0-.122.002-.19.007l-.016.001-.016.001c-1.276.064-2.32.827-2.792 2.042-.383.987-.394 2.445.726 3.579l6.691 6.764m0 1.991l-7.686-7.77c-2.82-2.855-1.014-7.804 2.991-8.004.099-.007.194-.011.292-.011 1.781 0 3.372.827 4.4 2.123 1.031-1.296 2.622-2.123 4.403-2.123.098 0 .194.004.292.011 4.005.2 5.81 5.149 2.991 8.003l-7.682 7.771z" transform="translate(-222.084 -92.178)"/>
                </g>
            </g>
        </g>
    </g>
</svg>
