<svg xmlns="http://www.w3.org/2000/svg" id="Group_4650" width="30.444" height="21.988" viewBox="0 0 30.444 21.988">
    <defs>
        <style>
            .cls-1{fill:#f5f5f5}.cls-1,.cls-3{stroke:#1877f2;stroke-miterlimit:10}.cls-2{fill:#1877f2;opacity:.52}.cls-3,.cls-6{fill:none}.cls-5{stroke:none}
        </style>
    </defs>
    <g id="Group_4646" transform="translate(5.92)">
        <g id="Group_4583">
            <g id="Rectangle_1894" class="cls-1">
                <rect width="24.525" height="15.222" class="cls-5" rx="2"/>
                <rect width="23.525" height="14.222" x=".5" y=".5" class="cls-6" rx="1.5"/>
            </g>
            <path id="Rectangle_2242" d="M0 0H5.074V2.537H0z" class="cls-2" transform="translate(19.45 8.316)"/>
            <path id="Rectangle_2247" d="M0 0H5.074V0.705H0z" class="cls-2" transform="translate(17.619 2.822)"/>
            <path id="Rectangle_2248" d="M0 0H1.411V0.705H0z" class="cls-2" transform="translate(15.787 2.822)"/>
            <path id="Rectangle_2249" d="M0 0H1.411V0.705H0z" class="cls-2" transform="translate(13.956 2.822)"/>
        </g>
    </g>
    <g id="Group_4590" transform="translate(0 5.074)">
        <g id="Group_4583-2">
            <g id="Rectangle_1894-2" class="cls-1">
                <rect width="26.216" height="16.913" class="cls-5" rx="2"/>
                <rect width="25.216" height="15.913" x=".5" y=".5" class="cls-6" rx="1.5"/>
            </g>
            <g id="Group_4647" transform="translate(4.184 5.081)">
                <path id="Path_1828" d="M136.763 81.426a2.217 2.217 0 0 0 2.306 2.116v2.673a2.217 2.217 0 0 0-2.306 2.116" class="cls-3" transform="translate(-121.268 -81.426)"/>
                <path id="Path_1829" d="M127.6 88.331a2.217 2.217 0 0 0-2.306-2.116v-2.673a2.217 2.217 0 0 0 2.306-2.116" class="cls-3" transform="translate(-125.298 -81.426)"/>
            </g>
            <circle id="Ellipse_407" cx="2.302" cy="2.302" r="2.302" fill="#1877f2" transform="translate(10.936 5.831)"/>
        </g>
    </g>
</svg>
