<?xml version="1.0" encoding="utf-8"?>
<svg version="1.1" xmlns="http://www.w3.org/2000/svg" xmlns:xlink="http://www.w3.org/1999/xlink" x="0px" y="0px" viewBox="0 0 18 18" xml:space="preserve">
    <path fill="#A3AAB2" d="M0.5,0h7C7.8,0,8,0.2,8,0.5v7C8,7.8,7.8,8,7.5,8h-7C0.2,8,0,7.8,0,7.5v-7C0,0.2,0.2,0,0.5,0z M0.5,10h7 C7.8,10,8,10.2,8,10.5v7C8,17.8,7.8,18,7.5,18h-7C0.2,18,0,17.8,0,17.5v-7C0,10.2,0.2,10,0.5,10z M10.5,0h7C17.8,0,18,0.2,18,0.5v7 C18,7.8,17.8,8,17.5,8h-7C10.2,8,10,7.8,10,7.5v-7C10,0.2,10.2,0,10.5,0z M10.5,10h7c0.3,0,0.5,0.2,0.5,0.5v7c0,0.3-0.2,0.5-0.5,0.5 h-7c-0.3,0-0.5-0.2-0.5-0.5v-7C10,10.2,10.2,10,10.5,10z"/>
</svg>