<?xml version="1.0" encoding="utf-8"?>
<svg version="1.1" xmlns="http://www.w3.org/2000/svg" xmlns:xlink="http://www.w3.org/1999/xlink" x="0px" y="0px" viewBox="0 0 18 18" style="enable-background:new 0 0 18 18;" xml:space="preserve">
	<path fill="#060505" d="M18,2.5v0.6v1.1v0.6c0,0.2-0.2,0.4-0.4,0.4h-0.6H1.1H0.4C0.2,5.3,0,5.1,0,4.9V4.2V3.2V2.5 c0-0.2,0.2-0.4,0.4-0.4h0.6h15.9h0.6C17.8,2.1,18,2.3,18,2.5z M17.6,7.4h-0.6H1.1H0.4C0.2,7.4,0,7.6,0,7.8v0.6v1.1v0.6 c0,0.2,0.2,0.4,0.4,0.4h0.6h15.9h0.6c0.2,0,0.4-0.2,0.4-0.4V9.5V8.5V7.8C18,7.6,17.8,7.4,17.6,7.4z M17.6,12.7h-0.6H1.1H0.4 c-0.2,0-0.4,0.2-0.4,0.4v0.6v1.1v0.6c0,0.2,0.2,0.4,0.4,0.4h0.6h15.9h0.6c0.2,0,0.4-0.2,0.4-0.4v-0.6v-1.1v-0.6 C18,12.9,17.8,12.7,17.6,12.7z"/>
</svg>