<?xml version="1.0" encoding="utf-8"?>
<svg version="1.1" xmlns="http://www.w3.org/2000/svg" xmlns:xlink="http://www.w3.org/1999/xlink" x="0px" y="0px" viewBox="0 0 14.5 12.6" style="enable-background:new 0 0 14.5 12.6;" xml:space="preserve">
    <path d="M7.3,11.2l5.4-5.5c0.9-0.9,0.9-2.2,0.6-3C12.9,1.7,12,1.1,11,1l0,0l0,0c-0.1,0-0.1,0-0.2,0C9.7,1,8.7,1.5,8,2.3l-0.8,1 l-0.8-1C5.8,1.5,4.8,1,3.7,1C3.7,1,3.6,1,3.6,1l0,0l0,0C2.5,1.1,1.6,1.7,1.2,2.7c-0.3,0.8-0.3,2,0.6,3L7.3,11.2 M7.3,12.6L1.1,6.4 C-1.2,4.1,0.3,0.2,3.5,0c0.1,0,0.2,0,0.2,0c1.4,0,2.7,0.7,3.5,1.7C8.1,0.7,9.3,0,10.8,0c0.1,0,0.2,0,0.2,0c3.2,0.2,4.7,4.1,2.4,6.4 L7.3,12.6z"/>
</svg>
