<?xml version="1.0" encoding="utf-8"?>
<svg version="1.1" xmlns="http://www.w3.org/2000/svg" xmlns:xlink="http://www.w3.org/1999/xlink" x="0px" y="0px" viewBox="0 0 1161.6 851.7" enable-background="new 0 0 1161.6 851.7" xml:space="preserve">
<path fill="#FFFFFF" d="M1161.6,626l-0.8-0.4L879.5,462.7c-0.1,0-0.2-0.1-0.3-0.2l-30.1-17.4c-0.5-0.3-1.1-0.6-1.6-0.9l-6.4-3.7
	c-1.5-0.9-3.1-1.8-4.6-2.7l-18.8-10.9c-0.4-0.2-0.7-0.4-1.1-0.6c-2.1-1.2-4.3-2.5-6.4-3.7c-0.4-0.2-0.8-0.4-1.1-0.7l-93.4-54.1
	c-0.5-0.3-1-0.6-1.5-0.9l-3.6-2.1c-1.1-0.6-2.2-1.3-3.3-1.9l-31.1-18c-0.2-0.1-0.3-0.2-0.5-0.3l-0.1-0.1L647,328.1
	c-0.4-0.2-0.8-0.4-1.2-0.7l-7-4c-0.4-0.2-0.8-0.4-1.1-0.7l-3.8-2.2h-0.3l0-0.2l-0.8-0.5L591.7,296l0,0l0,0c0,0,0,0,0,0
	c-0.3-0.2-0.5-0.3-0.8-0.5l-1.5-0.9c-1.5-0.8-2.9-1.7-4.4-2.5l-14.4-8.4c-0.9-0.6-1.9-1.1-2.9-1.7c0,0,0,0,0,0
	c-0.1,0-0.1-0.1-0.2-0.1l-11.5-6.7c0,0,0,0,0,0l-42.6-24.7c-4.8-2.8-9.6-5.5-14.3-8.3c0,0,0,0-0.1,0l-5.4-3.1
	c-1.2-0.7-2.5-1.4-3.7-2.1l-24.6-14.2c-0.3-0.2-0.6-0.4-1-0.6c0,0,0,0,0,0c0,0,0,0,0,0c-0.1,0-0.1-0.1-0.2-0.1l-10.2-5.9
	c-1-0.6-2-1.1-3-1.7l-6.6-3.8c-0.9-0.5-1.8-1-2.7-1.6l-16.3-9.5c-3.1-1.8-6.2-3.6-9.2-5.3l-51-29.5c-1-0.6-2.1-1.2-3.1-1.8
	l-18.6-10.8c-0.6-0.4-1.3-0.7-1.9-1.1l-6.7-3.9l0.5-0.9l6.7,3.9c0.7,0.4,1.3,0.8,2,1.1c0,0,0,0,0,0l18.7,10.8c1,0.6,2,1.2,3,1.7
	c0,0,0,0,0,0l51,29.5c3,1.7,6.1,3.5,9.2,5.3l15.9,9.2c1.1,0.6,2.1,1.2,3.2,1.8l6.7,3.9c0.8,0.4,1.5,0.9,2.3,1.3
	c0.2,0.1,0.4,0.2,0.5,0.3l10.2,5.9c0.4,0.2,0.9,0.5,1.3,0.8l24.5,14.2c1.1,0.6,2.3,1.3,3.4,2l5.7,3.3c4.7,2.7,9.5,5.5,14.3,8.3
	c0,0,0,0,0,0l42.6,24.7c1.9,1.1,3.8,2.2,5.7,3.3l5.8,3.3c0.1,0.1,0.2,0.1,0.3,0.2c0.9,0.5,1.8,1,2.7,1.6c0,0,0,0,0,0l14.4,8.4
	c1.4,0.8,2.8,1.6,4.2,2.4c0,0,0.1,0,0.1,0.1l1.5,0.9c0.2,0.1,0.4,0.3,0.7,0.4l0,0l4.5,2.6c3.3,1.9,6.6,3.8,9.8,5.7l27,15.6
	c0.3,0.2,0.6,0.4,1,0.6l0.3,0.2l3.6,2.1c0.4,0.2,0.8,0.4,1.1,0.7l6.7,3.9c0.5,0.3,1,0.6,1.5,0.8l28.6,16.6c0.2,0.1,0.3,0.2,0.5,0.3
	l31,18c1.1,0.6,2.2,1.3,3.3,1.9l3.7,2.1c0.5,0.3,1,0.6,1.5,0.9l12.7,7.3c1.4,0.8,2.7,1.6,4.1,2.4l76.6,44.4c0.4,0.2,0.7,0.4,1.1,0.6
	c2.1,1.2,4.3,2.5,6.4,3.7c0.4,0.2,0.7,0.4,1.1,0.6l18.8,10.9c1.5,0.9,3.1,1.8,4.6,2.7l6.4,3.7c0.6,0.3,1.1,0.6,1.7,1l1,0.6l29,16.8
	c0.1,0.1,0.2,0.1,0.3,0.1l0.1,0.1l130.7,75.7c6,3.5,12,7,18,10.4l5.9,3.4c3.1,1.8,6.2,3.6,9.2,5.3l100.2,58c2.6,1.5,5.2,3,7.8,4.5
	l9.6,5.5V626z"/>
<path fill="#FFFFFF" d="M821.4,789.5l-81.8-47.3c-0.1,0-0.2-0.1-0.3-0.2l-30-17.4c-0.6-0.3-1.1-0.7-1.7-1l-6.4-3.7
	c-1.6-0.9-3.2-1.9-4.9-2.8l-18.6-10.7c-2.9-1.7-5.7-3.3-8.6-5L592.5,657c-1.3-0.8-2.7-1.5-4-2.3l-0.1-0.1l-12.7-7.3
	c-0.5-0.3-0.9-0.5-1.4-0.8l-3.8-2.2c-1.1-0.7-2.2-1.3-3.3-1.9l-31.1-18c-0.2-0.1-0.3-0.2-0.5-0.3l-0.2-0.1l-28.5-16.5
	c-0.5-0.3-0.9-0.5-1.4-0.8l-6.7-3.9c-0.4-0.2-0.8-0.5-1.1-0.7l-3.8-2.2h-0.4l0-0.2c-0.3-0.2-0.6-0.3-0.8-0.5l-4.4-2.5
	c-0.5-0.3-1.1-0.6-1.6-0.9l-21-12.2c-3.3-1.9-6.6-3.8-9.8-5.7l-4.3-2.5c-0.3-0.2-0.5-0.3-0.8-0.5l-1.6-0.9c-1.5-0.8-2.9-1.7-4.4-2.5
	l-14.4-8.4c-1-0.6-2-1.2-3.1-1.8l-54.1-31.3c-4.8-2.8-9.6-5.6-14.3-8.3l-5.7-3.3c-1.1-0.7-2.3-1.3-3.4-2l-24.6-14.3
	c-0.4-0.2-0.8-0.4-1.1-0.7l-10.2-5.9c-1-0.5-1.9-1.1-2.9-1.6l-6.7-3.9c-1.1-0.6-2.2-1.3-3.3-1.9l-15.7-9.1c-3.1-1.8-6.2-3.6-9.2-5.3
	l-22.4-13l0.5-0.9l22.4,13c3,1.7,6.1,3.5,9.2,5.3l15.7,9.1c1.1,0.6,2.2,1.3,3.3,1.9l6.7,3.9c0.9,0.6,1.9,1.1,2.9,1.6l10.2,5.9
	c0.4,0.2,0.8,0.4,1.2,0.7l24.6,14.3c1.1,0.7,2.3,1.3,3.4,2l5.7,3.3c4.7,2.7,9.5,5.5,14.3,8.3l54.1,31.3c1,0.6,2.1,1.2,3.1,1.8
	l14.4,8.4c1.5,0.8,2.9,1.7,4.4,2.5l1.5,0.9c0.3,0.2,0.5,0.3,0.8,0.4l0.1,0l4.3,2.5c3.3,1.9,6.6,3.8,9.8,5.7l21,12.2
	c0.5,0.3,1.1,0.6,1.6,0.9l4.4,2.5c0.3,0.2,0.7,0.4,1.1,0.6l0.3,0.2l3.6,2.1c0.4,0.2,0.8,0.4,1.1,0.7l6.7,3.9
	c0.5,0.3,0.9,0.5,1.4,0.8l28.6,16.6c0.2,0.1,0.3,0.2,0.5,0.3l31,18c1.1,0.6,2.2,1.3,3.3,1.9l3.7,2.2c0.5,0.3,0.9,0.5,1.4,0.8
	l12.7,7.3c1.4,0.8,2.7,1.6,4.1,2.4l76.6,44.4c2.9,1.7,5.8,3.3,8.6,5l18.6,10.7c1.6,0.9,3.2,1.9,4.9,2.8l6.4,3.7
	c0.6,0.3,1.1,0.6,1.7,1l30,17.4c0.1,0.1,0.2,0.1,0.2,0.1l0.1,0.1l81.7,47.3L821.4,789.5z"/>
<path fill="#FFFFFF" d="M561.7,783.2l-0.5-0.9l5.1-3c4.3-2.5,8.6-5,13-7.5l6.2-3.6c4.1-2.4,8.2-4.7,12.3-7.1l11.8-6.8
	c2.1-1.2,4.3-2.5,6.5-3.7c0,0,0,0,0.1,0l10.9-6.3c1.3-0.7,2.6-1.5,3.9-2.2c0.1,0,0.2-0.1,0.3-0.1l6.7-3.9
	c6.6-3.8,13.3-7.7,20.1-11.6l12.5-7.2c1.4-0.8,2.7-1.6,4.1-2.4c0.1-0.1,0.2-0.1,0.3-0.2l17.2-9.9c1-0.6,1.9-1.1,2.9-1.7l15.9-9.2
	c0.1-0.1,0.3-0.2,0.5-0.3l5.9-3.4c2.1-1.2,4.2-2.4,6.2-3.6l8.3-4.8c0.7-0.4,1.4-0.8,2.1-1.2l42.5-24.6c1.7-1,3.3-1.9,5-2.9l18-10.4
	c1.5-0.9,3-1.7,4.5-2.6l3.8-2.2c10.4-6,20.8-12,31.3-18.1l18.3-10.6c0.7-0.4,1.4-0.8,2.1-1.2l0.3-0.2l34.1-19.7V590l0.4,0l42.1-24.3
	c2-1.2,4-2.3,5.9-3.4l9.6-5.6c2.1-1.2,4.3-2.5,6.4-3.7l9.8-5.6c0.1-0.1,0.2-0.1,0.3-0.2l0.4-0.3c0.1,0,0.1-0.1,0.2-0.1
	c3.5-2,7-4,10.4-6c0.1-0.1,0.2-0.1,0.3-0.2l13.3-7.7c0.8-0.5,1.7-1,2.5-1.5l2.2-1.3l0,0l8.7-5c2.7-1.6,5.4-3.2,8.2-4.7l127.2-73.5
	c1.8-1,3.6-2.1,5.4-3.1l14-8.1l0.5,0.9l-14,8.1c-1.8,1-3.6,2.1-5.4,3.1l-127.2,73.5c-2.7,1.6-5.4,3.1-8.2,4.7l-10.8,6.2
	c-0.9,0.5-1.7,1-2.6,1.5l-13.3,7.7c-0.1,0-0.2,0.1-0.3,0.1c-3.5,2-6.9,4-10.4,6c-0.1,0-0.2,0.1-0.2,0.1l-0.5,0.3
	c-0.1,0-0.2,0.1-0.2,0.1l-9.8,5.6c-2.1,1.2-4.2,2.4-6.3,3.6l-15.6,9l-76.6,44.2c-0.1,0.1-0.2,0.1-0.3,0.2l-2.2,1.3l-18.2,10.5
	c-10.4,6-20.9,12.1-31.3,18.1l-4.9,2.8c-1.1,0.6-2.2,1.3-3.4,1.9l-18,10.4c-1.6,0.9-3.2,1.8-4.8,2.8c-0.1,0-0.1,0.1-0.2,0.1
	l-42.5,24.6c-0.7,0.4-1.4,0.8-2.1,1.2l-10,5.8c-1.5,0.9-3,1.7-4.5,2.6l-5.9,3.4c-0.2,0.1-0.3,0.2-0.5,0.3l-16,9.2
	c-0.9,0.5-1.9,1.1-2.8,1.6l-17.2,9.9c-1.5,0.8-3,1.7-4.4,2.6l-12.5,7.2c-6.8,3.9-13.4,7.8-20.1,11.6c0,0,0,0,0,0l-6.7,3.9
	c-1.4,0.8-2.7,1.6-4.1,2.4c0,0,0,0,0,0l-10.9,6.3c-2.2,1.3-4.3,2.5-6.5,3.8c0,0,0,0,0,0l-30.3,17.5c-4.4,2.5-8.7,5-13,7.5
	c0,0,0,0-0.1,0L561.7,783.2z"/>
<path fill="#FFFFFF" d="M1160.8,398L964.7,284.6c-0.3-0.2-0.6-0.4-0.9-0.5l-9.8-5.6c-0.2-0.1-0.3-0.2-0.4-0.3l-1.5-0.9
	c-0.6-0.4-1.3-0.7-1.9-1.1l-21-12.1c-1.4-0.8-2.7-1.6-4.1-2.4l-0.2-0.1l-9.2-5.3c-2.7-1.6-5.4-3.2-8.1-4.7c0,0,0,0,0,0l-83-48
	c-2.4-1.4-4.8-2.8-7.2-4.1l-29.3-16.9c0,0-0.1,0-0.1-0.1c0,0,0,0-0.1,0c0,0,0,0,0,0c-0.6-0.3-1.1-0.7-1.7-1l-72-41.6l0.5-0.9
	l71.9,41.6c0.6,0.3,1.2,0.7,1.8,1c0,0,0,0,0,0c0,0,0,0,0,0c0,0,0,0,0,0l0.1,0.1l29.3,16.9c2.4,1.4,4.8,2.8,7.2,4.1l83,48
	c2.7,1.6,5.4,3.1,8.2,4.7l36.4,21c0.4,0.2,0.8,0.5,1.2,0.7l0.3,0.2l11.1,6.4c0.4,0.2,0.9,0.5,1.3,0.7l6.1,3.5l142.2,82.2
	c2.8,1.6,5.5,3.2,8.3,4.8l37.6,21.7c0.2,0.1,0.5,0.3,0.7,0.4L1160.8,398z"/>
<path fill="#FFFFFF" d="M267.7,635.6l-0.5-0.9c1.8-1,3.6-2.1,5.4-3.1l8.8-5.1c8.7-5,17.5-10.1,26.4-15.3l16.4-9.5
	c1.9-1.1,3.9-2.2,5.8-3.4l22.6-13c1.2-0.7,2.4-1.4,3.6-2.1l21-12.1c0.2-0.1,0.4-0.3,0.7-0.4l7.7-4.5c2.5-1.5,5-2.9,7.5-4.3l11.6-6.7
	c1-0.6,2-1.1,2.9-1.7l55.7-32.2c2.2-1.3,4.3-2.5,6.5-3.8l23.6-13.7c1.9-1.1,3.8-2.2,5.6-3.2l5.2-3c13.7-7.9,27.4-15.8,41.1-23.7
	l24.1-13.9c1-0.6,2.1-1.2,3.1-1.8l121.7-70.3c2.6-1.5,5.2-3,7.7-4.5l12.8-7.4c0.2-0.1,0.4-0.2,0.6-0.3l0.4-0.2
	c4.8-2.8,9.6-5.5,14.3-8.3l17.5-10.1c1.2-0.7,2.4-1.4,3.7-2.1l13.9-8c3.6-2.1,7.1-4.2,10.7-6.2L943,244.1c2.3-1.4,4.7-2.7,7-4.1
	l79.3-45.9c0.9-0.5,1.9-1.1,2.8-1.6l42-24.3c1.7-1,3.3-1.9,4.9-2.9l9.7-5.6c1.6-0.9,3.1-1.8,4.7-2.7l25.8-14.9
	c0.3-0.2,0.6-0.4,0.9-0.5l11-6.3l0.5,0.9l-10.9,6.3c-0.3,0.2-0.6,0.4-0.9,0.5L1094,158c-1.6,0.9-3.1,1.8-4.7,2.7l-9.7,5.6
	c-1.6,0.9-3.3,1.9-4.9,2.9l-42,24.3c-0.9,0.5-1.8,1.1-2.8,1.6l-79.3,45.9c-2.4,1.3-4.7,2.7-7,4.1l-167.1,96.6
	c-3.6,2.1-7.1,4.1-10.7,6.2l-13.9,8c-1.2,0.7-2.4,1.4-3.7,2.1L730.6,368c-4.8,2.7-9.5,5.5-14.3,8.3l-0.4,0.2
	c-0.2,0.1-0.4,0.2-0.5,0.3l-12.8,7.4c-2.6,1.5-5.1,3-7.7,4.5l-121.7,70.3c-1,0.6-1.9,1.1-2.9,1.7l-0.2,0.1l-24.1,13.9
	c-13.7,7.9-27.4,15.8-41.1,23.7l-5.2,3c-1.9,1.1-3.7,2.1-5.6,3.2l-23.6,13.7c-2.2,1.2-4.3,2.5-6.5,3.8l-55.7,32.2
	c-1,0.6-2,1.1-2.9,1.7l-11.6,6.7c-2.5,1.4-5,2.9-7.5,4.3l-7.7,4.5c-0.2,0.1-0.4,0.2-0.6,0.4l-21.1,12.2c-1.2,0.7-2.4,1.4-3.6,2.1
	l-22.6,13c-1.9,1.1-3.9,2.2-5.8,3.4l-16.4,9.5c-8.9,5.1-17.7,10.2-26.4,15.3l-8.8,5.1C271.3,633.5,269.5,634.6,267.7,635.6z"/>
<path fill="#FFFFFF" d="M267.7,635.6l-0.5-0.9c1.8-1,3.6-2.1,5.4-3.1l8.8-5.1c8.7-5,17.5-10.1,26.4-15.3l16.4-9.5
	c1.9-1.1,3.9-2.2,5.8-3.4l22.6-13c1.2-0.7,2.4-1.4,3.5-2.1l21.1-12.2c0.2-0.1,0.4-0.3,0.7-0.4l7.7-4.5c2.4-1.4,4.9-2.8,7.3-4.2
	l11.8-6.8c0.9-0.5,1.9-1.1,2.8-1.6l55.8-32.3c2.2-1.3,4.3-2.5,6.5-3.8l23.6-13.7c2-1.1,3.9-2.3,5.9-3.4l4.9-2.9l113.1-65.4v-0.2
	l0.4,0l55.4-32c2.6-1.5,5.2-3,7.8-4.5l13.3-7.7c2.6-1.5,5.1-3,7.7-4.4l12.8-7.4c0.1-0.1,0.2-0.1,0.4-0.2l0.6-0.4
	c4.8-2.8,9.6-5.5,14.3-8.3l17.5-10.1c0.9-0.5,1.9-1.1,2.8-1.6l14.8-8.5c3.6-2.1,7.2-4.2,10.7-6.2l99.9-57.8l0.5,0.9l-99.9,57.8
	c-3.6,2.1-7.1,4.1-10.7,6.2l-14.8,8.5c-0.9,0.5-1.9,1.1-2.8,1.6L730.6,368c-4.8,2.8-9.5,5.5-14.3,8.3l-0.6,0.4
	c-0.1,0.1-0.2,0.1-0.3,0.2l-12.8,7.4c-2.6,1.5-5.1,3-7.7,4.4l-13.3,7.7c-2.6,1.5-5.2,3-7.8,4.5l-100.6,58.1l-3.2,1.9l-70,40.5
	c-2,1.1-3.9,2.3-5.9,3.4l-23.6,13.7c-2.2,1.2-4.3,2.5-6.5,3.8L408,554.5c-0.9,0.5-1.9,1.1-2.8,1.6l-11.8,6.8
	c-2.4,1.4-4.9,2.8-7.3,4.2l-7.7,4.5c-0.2,0.1-0.4,0.2-0.6,0.4l-21.2,12.2c-1.2,0.7-2.4,1.4-3.5,2.1l-22.6,13
	c-1.9,1.1-3.9,2.2-5.8,3.4l-16.4,9.5c-8.9,5.1-17.7,10.2-26.4,15.3l-8.8,5.1C271.3,633.5,269.5,634.6,267.7,635.6z"/>
<path fill="#FFFFFF" d="M219.8,354l-0.6-1.1l7.9-4.6c17-9.8,34.1-19.7,51.2-29.6l89.7-51.9v-0.3l0.5,0l69-39.9
	c3.3-1.9,6.5-3.8,9.7-5.6l17.4-10.1c2.9-1.7,5.9-3.4,8.8-5.1l16-9.2c0.1-0.1,0.3-0.2,0.4-0.2l0.8-0.5c6-3.5,11.9-6.9,17.9-10.3
	l21.8-12.6c1.2-0.7,2.4-1.4,3.5-2c1-0.6,2.1-1.2,3.1-1.8l15.2-8.8c4.5-2.6,8.9-5.2,13.4-7.7l92.9-53.7l0.6,1.1L566,153.9
	c-4.5,2.6-8.9,5.1-13.4,7.7l-15.2,8.8c-1,0.6-2.1,1.2-3.1,1.8c-1.2,0.7-2.4,1.4-3.5,2L509,186.8c-5.9,3.4-11.9,6.9-17.8,10.3
	l-0.8,0.5c-0.1,0.1-0.3,0.1-0.4,0.2l-16,9.3c-2.9,1.7-5.8,3.4-8.8,5.1l-17.4,10.1c-3.2,1.9-6.5,3.7-9.7,5.6l-69,39.9l-0.1,0.1
	l-90,52c-17.1,9.9-34.2,19.7-51.2,29.6L219.8,354z"/>
<path fill="#F0A77A" d="M622.1,419.2v5.7c0,0.2,0,0.4,0,0.5c0,0.4-0.1,0.8-0.2,1.2c-0.6,2.5-2.7,5-6,6.9c-8.4,4.8-22,4.8-30.4-0.1
	c-3.4-2-5.5-4.4-6.1-7c-0.1-0.4-0.2-0.7-0.2-1.1c0-0.2,0-0.5,0-0.7v-5.5h0c0,0.5,0.1,1,0.2,1.5c0.1,0.4,0.2,0.7,0.4,1.1
	c0.6,1.4,1.5,2.6,2.6,3.6c1,0.9,2,1.7,3.1,2.3c8.4,4.9,22,4.9,30.4,0.1c1.1-0.7,2.2-1.4,3.2-2.4c1.1-1,1.9-2.1,2.5-3.5
	c0.2-0.4,0.3-0.7,0.4-1.1C622,420.3,622.1,419.7,622.1,419.2z"/>
<path fill="#FFFFFF" d="M622.1,420.4c0,0.6-0.1,1.1-0.2,1.6c-0.1,0.4-0.2,0.8-0.4,1.1c-0.6,1.3-1.4,2.5-2.5,3.5
	c-1,0.9-2,1.7-3.2,2.4c-8.4,4.8-22,4.8-30.4-0.1c-1.1-0.6-2.2-1.4-3.1-2.3c-1.1-1-2-2.2-2.6-3.6c-0.1-0.4-0.3-0.7-0.4-1.1
	c-0.1-0.5-0.2-1-0.2-1.5c-0.1-3.3,1.9-6.5,6.2-9c8.4-4.8,22-4.8,30.4,0.1C620.1,413.9,622.2,417.2,622.1,420.4z"/>
<path fill="#F0A77A" d="M622.1,411.9v5.7c0,0.2,0,0.4,0,0.6c0,0.4-0.1,0.8-0.2,1.2c-0.6,2.5-2.7,5-6,6.9c-8.4,4.8-22,4.8-30.4-0.1
	c-3.4-2-5.5-4.4-6.1-7c-0.1-0.4-0.2-0.7-0.2-1.1c0-0.2,0-0.5,0-0.7v-5.5h0c0,0.5,0.1,1,0.2,1.5c0.1,0.4,0.2,0.7,0.4,1.1
	c0.6,1.4,1.5,2.6,2.6,3.6c1,0.9,2,1.7,3.1,2.3c8.4,4.9,22,4.9,30.4,0.1c1.1-0.7,2.2-1.4,3.2-2.4c1.1-1,1.9-2.2,2.5-3.5
	c0.2-0.4,0.3-0.7,0.4-1.1C622,413,622.1,412.5,622.1,411.9z"/>
<path fill="#FFFFFF" d="M622.1,413.1c0,0.6-0.1,1.1-0.2,1.6c-0.1,0.4-0.2,0.8-0.4,1.1c-0.6,1.3-1.4,2.5-2.5,3.5
	c-1,0.9-2,1.7-3.2,2.4c-8.4,4.8-22,4.8-30.4-0.1c-1.1-0.6-2.2-1.4-3.1-2.3c-1.1-1-2-2.2-2.6-3.6c-0.1-0.4-0.3-0.7-0.4-1.1
	c-0.1-0.5-0.2-1-0.2-1.5c-0.1-3.3,1.9-6.5,6.2-9c8.4-4.8,22-4.8,30.4,0.1C620.1,406.6,622.2,409.9,622.1,413.1z"/>
<path fill="#F0A77A" d="M622.1,405.8v5.7c0,0.2,0,0.4,0,0.5c0,0.4-0.1,0.8-0.2,1.2c-0.6,2.5-2.7,5-6,6.9c-8.4,4.8-22,4.8-30.4-0.1
	c-3.4-2-5.5-4.4-6.1-7c-0.1-0.6-0.2-1.2-0.2-1.8v-5.5h0c0,0.5,0.1,1,0.2,1.5c0.1,0.4,0.2,0.7,0.4,1.1c0.6,1.4,1.5,2.6,2.6,3.6
	c1,0.9,2,1.7,3.1,2.3c8.4,4.9,22,4.9,30.4,0.1c1.1-0.7,2.2-1.4,3.2-2.4c1.1-1,1.9-2.1,2.5-3.5c0.2-0.4,0.3-0.7,0.4-1.1
	C622,406.9,622.1,406.4,622.1,405.8z"/>
<path fill="#FFFFFF" d="M622.1,407.1c0,0.6-0.1,1.1-0.2,1.6c-0.1,0.4-0.2,0.8-0.4,1.1c-0.6,1.3-1.4,2.5-2.5,3.5
	c-1,0.9-2,1.7-3.2,2.4c-8.4,4.8-22,4.8-30.4-0.1c-1.1-0.6-2.2-1.4-3.1-2.3c-1.1-1-2-2.2-2.6-3.6c-0.1-0.4-0.3-0.7-0.4-1.1
	c-0.1-0.5-0.2-1-0.2-1.5c-0.1-3.3,1.9-6.5,6.2-9c8.4-4.8,22-4.8,30.4,0.1C620.1,400.6,622.2,403.8,622.1,407.1z"/>
<path fill="#F0A77A" d="M622.1,399.4v5.7c0,0.2,0,0.4,0,0.5c0,0.4-0.1,0.8-0.2,1.2c-0.6,2.5-2.7,5-6,6.9c-8.4,4.8-22,4.8-30.4-0.1
	c-3.4-2-5.5-4.4-6.1-7c-0.1-0.4-0.2-0.7-0.2-1.1c0-0.2,0-0.5,0-0.7v-5.5h0c0,0.5,0.1,1,0.2,1.5c0.1,0.4,0.2,0.7,0.4,1.1
	c0.6,1.4,1.5,2.6,2.6,3.6c1,0.9,2,1.7,3.1,2.3c8.4,4.9,22,4.9,30.4,0.1c1.1-0.7,2.2-1.4,3.2-2.4c1.1-1,1.9-2.2,2.5-3.5
	c0.2-0.4,0.3-0.7,0.4-1.1C622,400.6,622.1,400,622.1,399.4z"/>
<path fill="#FFFFFF" d="M622.1,400.7c0,0.6-0.1,1.1-0.2,1.6c-0.1,0.4-0.2,0.8-0.4,1.1c-0.6,1.3-1.4,2.5-2.5,3.5
	c-1,0.9-2,1.7-3.2,2.4c-8.4,4.8-22,4.8-30.4-0.1c-1.1-0.6-2.2-1.4-3.1-2.3c-1.1-1-2-2.2-2.6-3.6c-0.1-0.4-0.3-0.7-0.4-1.1
	c-0.1-0.5-0.2-1-0.2-1.5c-0.1-3.3,1.9-6.5,6.2-9c8.4-4.8,22-4.8,30.4,0.1C620.1,394.2,622.2,397.5,622.1,400.7z"/>
<path fill="#F0A77A" d="M622.1,392.8v5.7c0,0.2,0,0.4,0,0.6c0,0.4-0.1,0.8-0.2,1.2c-0.6,2.5-2.7,5-6,6.9c-8.4,4.8-22,4.8-30.4-0.1
	c-3.4-2-5.5-4.4-6.1-7c-0.1-0.4-0.2-0.7-0.2-1.1c0-0.2,0-0.5,0-0.7v-5.5h0c0,0.5,0.1,1,0.2,1.5c0.1,0.4,0.2,0.7,0.4,1.1
	c0.6,1.4,1.5,2.6,2.6,3.6c1,0.9,2,1.7,3.1,2.3c8.4,4.9,22,4.9,30.4,0.1c1.1-0.7,2.2-1.4,3.2-2.4c1.1-1,1.9-2.1,2.5-3.5
	c0.2-0.4,0.3-0.7,0.4-1.1C622.1,393.9,622.1,393.3,622.1,392.8z"/>
<path fill="#FFFFFF" d="M622.1,394c0,0.6-0.1,1.1-0.2,1.6c-0.1,0.4-0.2,0.8-0.4,1.1c-0.6,1.3-1.4,2.5-2.5,3.5c-1,0.9-2,1.7-3.2,2.4
	c-8.4,4.8-22,4.8-30.4-0.1c-1.1-0.6-2.2-1.4-3.1-2.3c-1.1-1-2-2.2-2.6-3.6c-0.1-0.4-0.3-0.7-0.4-1.1c-0.1-0.5-0.2-1-0.2-1.5
	c-0.1-3.3,1.9-6.5,6.2-9c8.4-4.8,22-4.8,30.4,0.1C620.1,387.5,622.2,390.8,622.1,394z"/>
<path fill="#F0A77A" d="M622.1,386.5v5.7c0,0.2,0,0.4,0,0.5c0,0.4-0.1,0.8-0.2,1.2c-0.6,2.5-2.7,5-6,6.9c-8.4,4.8-22,4.8-30.4-0.1
	c-3.4-2-5.5-4.4-6.1-7c-0.1-0.4-0.2-0.7-0.2-1.1c0-0.2,0-0.5,0-0.7v-5.5h0c0,0.5,0.1,1,0.2,1.5c0.1,0.4,0.2,0.7,0.4,1.1
	c0.6,1.4,1.5,2.6,2.6,3.6c1,0.9,2,1.7,3.1,2.3c8.4,4.9,22,4.9,30.4,0.1c1.1-0.7,2.2-1.4,3.2-2.4c1.1-1,1.9-2.1,2.5-3.5
	c0.2-0.4,0.3-0.7,0.4-1.1C622.1,387.7,622.1,387.1,622.1,386.5z"/>
<path fill="#FFFFFF" d="M622.1,387.8c0,0.6-0.1,1.1-0.2,1.6c-0.1,0.4-0.2,0.8-0.4,1.1c-0.6,1.3-1.4,2.5-2.5,3.5
	c-1,0.9-2,1.7-3.2,2.4c-8.4,4.8-22,4.8-30.4-0.1c-1.1-0.6-2.2-1.4-3.1-2.3c-1.1-1-2-2.2-2.6-3.6c-0.1-0.4-0.3-0.7-0.4-1.1
	c-0.1-0.5-0.2-1-0.2-1.5c-0.1-3.3,1.9-6.5,6.2-9c8.4-4.8,22-4.8,30.4,0.1C620.1,381.3,622.2,384.5,622.1,387.8z"/>
<path fill="#F0A77A" d="M620,379.4v5.7c0,0.2,0,0.4,0,0.5c0,0.4-0.1,0.8-0.2,1.2c-0.6,2.5-2.7,5-6,6.9c-8.4,4.8-22,4.8-30.4-0.1
	c-3.4-2-5.5-4.4-6.1-7c-0.1-0.4-0.2-0.7-0.2-1.1c0-0.2,0-0.5,0-0.7v-5.5h0c0,0.5,0.1,1,0.2,1.5c0.1,0.4,0.2,0.7,0.4,1.1
	c0.6,1.4,1.5,2.6,2.6,3.6c1,0.9,2,1.7,3.1,2.3c8.4,4.9,22,4.9,30.4,0.1c1.1-0.7,2.2-1.4,3.2-2.4c1.1-1,1.9-2.1,2.5-3.5
	c0.2-0.4,0.3-0.7,0.4-1.1C619.9,380.5,620,380,620,379.4z"/>
<path fill="#FFFFFF" d="M598.7,391.7c-2.7,0-5.4-0.3-7.9-0.9c-2.6-0.6-4.9-1.5-6.9-2.6c-1.1-0.6-2.1-1.4-2.9-2.1
	c-1.1-1-1.9-2.1-2.3-3.2l0,0l0,0c-0.1-0.3-0.2-0.6-0.3-0.9c-0.1-0.4-0.2-0.8-0.2-1.2l0,0l0,0c-0.1-1.4,0.4-2.8,1.3-4.1
	c1-1.4,2.5-2.8,4.4-3.9c3.9-2.2,9-3.5,14.5-3.5c5.6,0,10.8,1.3,14.7,3.5c2,1.1,3.4,2.4,4.4,3.9c0.9,1.3,1.4,2.7,1.3,4.1
	c0,0.5-0.1,0.9-0.2,1.4l0,0l0,0c-0.1,0.3-0.2,0.6-0.3,0.9c-0.5,1.1-1.2,2.1-2.2,3.1c-0.8,0.8-1.8,1.5-3,2.2
	C609.3,390.5,604.2,391.7,598.7,391.7z"/>
<path fill="#FCD3A2" d="M598.7,390.6c2.6,0,5.1-0.3,7.5-0.8c2.4-0.6,4.6-1.4,6.4-2.5c1.1-0.6,2-1.3,2.8-2c0.9-0.9,1.6-1.8,2-2.7l0,0
	c0.1-0.3,0.2-0.5,0.2-0.7l0-0.1c0.1-0.4,0.1-0.7,0.2-1.1c0-1.2-0.4-2.3-1.1-3.4c-0.9-1.3-2.3-2.5-4.1-3.5c-1.9-1.1-4.1-1.9-6.5-2.5
	c-2.4-0.6-5-0.9-7.6-0.9c-2.6,0-5.1,0.3-7.5,0.8c-2.4,0.6-4.6,1.4-6.4,2.5c-1.8,1-3.2,2.2-4,3.5c-0.8,1.1-1.1,2.3-1.1,3.4l0,0
	c0,0.3,0.1,0.7,0.1,1c0.1,0.2,0.1,0.5,0.2,0.8l0,0c0.4,1,1.1,2,2.1,2.8l0,0c0.8,0.7,1.7,1.4,2.7,2l0,0c1.9,1.1,4.1,1.9,6.5,2.5
	C593.5,390.3,596,390.6,598.7,390.6 M598.7,392.8c-5.5,0-11.1-1.2-15.3-3.7c-1.2-0.7-2.3-1.5-3.1-2.3c-1.2-1.1-2.1-2.4-2.6-3.6
	c-0.2-0.4-0.3-0.7-0.4-1.1c-0.1-0.5-0.2-1-0.2-1.5c-0.1-3.3,1.9-6.5,6.2-9c8.4-4.8,22-4.8,30.4,0.1c4.3,2.5,6.4,5.7,6.3,9
	c0,0.5-0.1,1.1-0.2,1.6c-0.1,0.4-0.2,0.7-0.4,1.1c-0.5,1.2-1.3,2.4-2.5,3.5c-0.9,0.8-1.9,1.6-3.2,2.4
	C609.6,391.6,604.1,392.8,598.7,392.8z"/>
<path fill="#FCD027" d="M598.3,379.6l0.4,5.5l8-5c1.2-0.8-0.2-1.2-1.4-1.4c-1.1-0.1-2.2-0.6-2.9-1.5c-1.3-0.4-2.2-0.9-2.5-1.7
	c-0.3-0.9-1.3-1.3-2.1-1c-0.1,0-0.2,0.1-0.3,0.2l-8.7,4.6L598.3,379.6z"/>
<path fill="#FCD027" d="M598.2,374.9l-8.4,4.5l-1.1,0l8.7-4.6C597.6,374.7,597.9,374.8,598.2,374.9z M598.3,375.6l-7.1,3.7l-1.2,0
	l8.2-4.3C598.2,375.2,598.3,375.6,598.3,375.6z M598.4,376.3l-5.9,3.1l-0.9,0l6.7-3.6C598.3,376,598.4,376.2,598.4,376.3
	L598.4,376.3z M598.8,376.9l-5,2.6l-0.8-0.1l5.6-3C598.6,376.6,598.7,376.8,598.8,376.9L598.8,376.9z M599.4,377.2l-4.2,2.2l-0.9,0
	l4.6-2.4C599.1,377.1,599.3,377.2,599.4,377.2L599.4,377.2z"/>
<path fill="#FCD027" d="M606.4,379.6l-7.8,4.9l0.1,0.6l8-5C606.6,379.9,606.5,379.8,606.4,379.6L606.4,379.6z M605.1,379.6l-6.5,4.1
	l0,0.7l7.5-4.7C605.9,379.6,605.2,379.6,605.1,379.6L605.1,379.6z M604,379.5l-5.4,3.4l0,0.5l6.2-3.9
	C604.5,379.5,604.1,379.5,604,379.5L604,379.5z M603,379.3l-4.6,2.9l0.1,0.5l5.1-3.2C603.4,379.4,603.2,379.3,603,379.3L603,379.3z M602.3,378.9l-3.8,2.4l0,0.5l4.2-2.7C602.6,379.1,602.3,379,602.3,378.9L602.3,378.9z"/>
<path fill="#FCD027" d="M597.6,380.3l-2.5,2.2h-0.5l-0.1-0.2l2.4-1.9l-2.6,1.7l-0.5,0l0.1-0.3l3-1.5l-3.2,1.4l-0.4,0v-0.3l3.9-1.4
	L597.6,380.3L597.6,380.3z"/>
<path fill="#FCD027" d="M597.2,378.4l-6.3,2l1.6,1.3l4.5-1.7L597.2,378.4L597.2,378.4z"/>
<path fill="#FCD027" d="M595,379.1l-0.2,0.3l1.8,0"/>
<path fill="#FCD027" d="M596.7,378.9l-1.6,1.1l1.3-0.1 M595.9,379.9l-0.8,0.8 M595.7,380.6l-1.6,0.2 M593.3,381.4l0.8-0.7l0.8-0.7
	l-1,0.1l0.5-0.5l-1.2,0l-0.8,0.8l1.1-0.2l-0.5,0.5l1.1-0.1"/>
<path fill="#FCD027" d="M591.4,380.6l0.9-0.1l-0.6,0.6l0.9-0.1l-0.5,0.5"/>
<path fill="#FCD027" d="M600.3,380.2l-3.5,3.6l-2.2-0.9l2.9-2.6L600.3,380.2L600.3,380.2z"/>
<path fill="#FCD027" d="M599.1,381.4l-0.6,0.1l0-1"/>
<path fill="#FCD027" d="M599.5,380.5l-1.9,0.9l0.2-0.8 M597.6,380.9l-1.4,0.4 M596.5,381.1l-0.3,0.9 M595,382.4l1.2-0.4l1.1-0.5
	l-0.1,0.6l0.8-0.3l0,0.7l-1.4,0.5l0.3-0.6l-0.9,0.3l0.2-0.6"/>
<path fill="#FCD027" d="M596.5,383.5l0.2-0.5l-1.1,0.3l0.2-0.5l-0.9,0.3"/>
<path fill="#FCD027" d="M591.6,383.4c1.3,0.8,2.6,1.4,4,1.9c0.3,0.1,0.6,0.1,0.8-0.1c0.5,0.1,0.7-0.2,0.9-0.1
	c-0.3-0.1,0.1-0.4-0.2-0.5c0.4-0.2,0.1-0.5-0.4-0.6c-1.2-0.4-2.3-1-3.3-1.6c-1-0.5-1.9-1.2-2.8-1.9c-0.3-0.3-0.7-0.4-1.1-0.2
	c-0.2-0.2-0.7,0-0.9-0.1c0.2,0.1-0.3,0.3-0.1,0.5c-0.2,0.1-0.4,0.2-0.1,0.5C589.4,382,590.5,382.8,591.6,383.4L591.6,383.4z"/>
<path fill="#FCD027" d="M591.9,381c0.4,0.3,0.9,0.6,1.3,0.8c0.2,0.1,0,0.5-0.5,0.2c-0.5-0.2-0.9-0.5-1.3-0.8
	c-0.2-0.2-0.8-0.6-1.1-0.9c-0.2-0.3,0.4-0.4,0.6-0.2C591.2,380.4,591.5,380.7,591.9,381L591.9,381z M595.8,383.3
	c-0.5-0.2-1-0.5-1.4-0.8c-0.2-0.1-0.8,0-0.4,0.3c0.5,0.3,0.9,0.6,1.4,0.8c0.3,0.1,1.1,0.4,1.6,0.6c0.6,0.1,0.6-0.2,0.4-0.3
	C596.8,383.7,596.3,383.5,595.8,383.3L595.8,383.3z"/>
<path fill="#FCD027" d="M590.7,380c-0.3-0.2-0.7-0.2-1,0.1c0.2,0,0.4,0.1,0.6,0.1C590.5,380.1,590.4,380.1,590.7,380L590.7,380z M591,381.4c0.2-0.1,0.4,0,0.7-0.1c0.1-0.1,0.2-0.2,0.1-0.3c-0.1-0.1-0.3-0.1-0.5,0C591,381.2,591.2,381.3,591,381.4L591,381.4z M593.3,382c0.3,0.2-0.1,0.4-0.5,0.5c0.2-0.1-0.1-0.3,0.1-0.4C593,382,593.2,382.2,593.3,382L593.3,382z M597.5,384
	c0.4,0.2,0.2,0.5-0.2,0.6c0.1-0.1-0.2-0.2-0.1-0.3C597.3,384.1,597.4,384.1,597.5,384L597.5,384z M595,383.8c0.2-0.1,0-0.2,0.2-0.4
	c0.1-0.1,0.3-0.1,0.5-0.1c0.1,0,0.1,0.1,0.1,0.2c0,0,0,0.1-0.1,0.1C595.5,383.8,595.2,383.7,595,383.8z M594,382.5
	c-0.3-0.1-0.7,0-0.8,0.3c0,0,0,0,0,0c0.2-0.1,0.5,0,0.6,0C594,382.6,593.7,382.5,594,382.5L594,382.5z"/>
<path fill="#FCD027" d="M590.7,380.2c0.1,0.1,0.2,0.2,0.2,0.3L590.7,380.2z M591.1,380.6c0.1,0.1,0.2,0.2,0.3,0.3L591.1,380.6z M592.9,381.9c-0.1-0.1-0.3-0.2-0.5-0.2L592.9,381.9z M592.3,381.6c0-0.1-0.2-0.2-0.4-0.2L592.3,381.6z M597.2,384
	c-0.1-0.1-0.3-0.1-0.5-0.1L597.2,384z M596.5,383.7c-0.2-0.1-0.3-0.1-0.5-0.2L596.5,383.7L596.5,383.7z M594.2,382.7
	c0.1,0.1,0.3,0.2,0.4,0.3L594.2,382.7L594.2,382.7z M594.8,383c0.2,0,0.3,0.1,0.4,0.2L594.8,383L594.8,383z"/>
<path fill="#FCD027" d="M589.7,380.6C589.6,380.6,589.6,380.6,589.7,380.6c0.1-0.1,0.1-0.1,0.2-0.1c0,0,0,0.1,0,0.1
	C589.8,380.7,589.8,380.7,589.7,380.6C589.7,380.7,589.7,380.7,589.7,380.6C589.7,380.7,589.7,380.7,589.7,380.6L589.7,380.6z M593.4,383.1C593.3,383.1,593.4,383.1,593.4,383.1c0.1-0.1,0.1-0.1,0.2-0.1c0,0,0,0,0,0.1C593.5,383.1,593.5,383.2,593.4,383.1
	C593.4,383.1,593.4,383.1,593.4,383.1L593.4,383.1z M593.2,383.2C593.2,383.2,593.2,383.2,593.2,383.2c0-0.1,0.1-0.1,0.1-0.1l0,0
	l0,0c0,0,0,0,0,0.1C593.3,383.3,593.3,383.3,593.2,383.2C593.2,383.2,593.2,383.2,593.2,383.2L593.2,383.2z"/>
<path fill="#FCD027" d="M590.3,380.6c0,0-0.1,0-0.1,0c-0.1,0-0.1,0-0.2-0.1c0,0-0.1-0.1-0.2,0c0,0,0,0.1,0.1,0.1s0.2,0,0.1,0.1
	c-0.1,0-0.1,0.1-0.2,0.1c0,0-0.1,0-0.1,0c0,0-0.1,0-0.1,0c-0.1,0-0.1,0-0.2,0c-0.1,0-0.1,0-0.2,0c0,0,0,0.1,0,0.1s0.1,0.1,0.1,0.1
	c0.1,0.1,0.1,0.1,0.2,0.2c0.1,0.1,0.2,0.2,0.3,0.3c0,0,0,0,0,0c0,0,0.1,0,0.2,0c0.1,0,0.2-0.1,0.3-0.1c0,0,0.1,0,0.1-0.1
	c-0.1,0-0.1,0-0.2,0c0,0-0.1,0-0.1,0c0,0,0,0,0,0c0,0-0.1,0.1-0.2,0.1c-0.1,0-0.1-0.1-0.1-0.1s-0.1-0.1,0-0.1c0.1,0,0.1,0,0.2-0.1
	c0.1,0,0.1,0,0.2-0.1c0,0-0.1,0-0.1,0s-0.1-0.1-0.1,0s-0.1,0.1-0.1,0.1c-0.1,0-0.1,0-0.2,0c0,0-0.1-0.1,0-0.1c0.1,0,0.1,0,0.2-0.1
	l0.2-0.1c0.1,0,0.1,0,0.2,0C590.2,380.7,590.2,380.7,590.3,380.6C590.3,380.7,590.3,380.6,590.3,380.6L590.3,380.6z M589.5,380.8
	L589.5,380.8C589.5,380.8,589.5,380.8,589.5,380.8C589.5,380.8,589.5,380.8,589.5,380.8C589.4,380.8,589.4,380.8,589.5,380.8
	C589.4,380.8,589.4,380.8,589.5,380.8C589.5,380.8,589.5,380.8,589.5,380.8L589.5,380.8z M589.1,381c0,0,0-0.1,0.1,0
	c0,0,0.1,0,0.1,0S589.2,381,589.1,381C589.1,381,589.1,381,589.1,381C589.1,381,589.1,381,589.1,381L589.1,381z M589.2,381.1
	C589.2,381.1,589.2,381.1,589.2,381.1L589.2,381.1c0.1-0.1,0.1-0.1,0.1-0.1s0.1,0,0,0.1C589.4,381.1,589.3,381.2,589.2,381.1
	C589.3,381.2,589.3,381.1,589.2,381.1L589.2,381.1z M595.7,384.9C595.7,384.8,595.7,384.8,595.7,384.9c0.1-0.1,0.1-0.1,0.1,0
	c0.1,0,0.1,0,0.1,0.1s0,0-0.1,0C595.8,384.9,595.8,384.9,595.7,384.9C595.7,384.9,595.7,384.9,595.7,384.9L595.7,384.9z M589.4,381.3C589.4,381.3,589.4,381.3,589.4,381.3C589.5,381.3,589.5,381.3,589.4,381.3c0.1-0.1,0.1-0.1,0.1-0.1c0,0,0,0,0,0
	c0,0,0,0.1-0.1,0.1C589.5,381.4,589.5,381.4,589.4,381.3L589.4,381.3z M591,382.3C591,382.3,590.9,382.3,591,382.3
	c0,0,0.1-0.1,0.1-0.1c0,0,0.1,0,0.1-0.1c0.1,0,0.1-0.1,0.2-0.1c0,0,0.1,0,0.1-0.1c0.1,0,0.1-0.1,0.2-0.1c0,0,0.1,0,0.1,0
	c0,0,0,0.1,0,0.1c0,0,0,0-0.1,0c0,0-0.1,0-0.1,0c0,0-0.1,0-0.1,0c-0.1,0-0.1,0-0.1,0.1c-0.1,0-0.1,0-0.2,0.1c0,0-0.1,0-0.1,0
	C591.1,382.3,591.1,382.4,591,382.3C591,382.3,591,382.3,591,382.3L591,382.3z M593.8,383.1c-0.1,0-0.1,0-0.2,0s0,0.1,0,0.1
	c0,0-0.1,0.1-0.1,0.1c0,0-0.1,0.1-0.1,0.1c0,0-0.1,0-0.2,0c-0.1,0-0.1,0-0.2,0c0,0-0.1,0-0.1,0.1c0,0-0.1,0-0.1,0.1l0,0c0,0,0,0,0,0
	c0,0,0.1,0,0.1,0.1c0.1,0,0.2,0.1,0.3,0.1c0.1,0,0.1,0.1,0.2,0.1c0,0,0.1,0,0.1,0c0,0,0.1-0.1,0.1-0.1c0,0,0.1-0.1,0.1-0.1
	c0,0,0-0.1-0.1-0.1c0,0-0.1,0-0.1,0c-0.1,0,0,0.1,0,0.1c0,0-0.1,0.1-0.1,0.1c0,0-0.1,0-0.1,0c-0.1,0-0.1,0-0.1-0.1
	c0,0,0.1-0.1,0.1-0.1c0.1,0,0.1-0.1,0.2-0.1C593.6,383.3,593.7,383.3,593.8,383.1C593.8,383.2,593.9,383.2,593.8,383.1L593.8,383.1z M593.2,383.5L593.2,383.5L593.2,383.5L593.2,383.5L593.2,383.5l-0.1,0l0,0C593.1,383.5,593.1,383.4,593.2,383.5
	C593.1,383.4,593.2,383.4,593.2,383.5L593.2,383.5z M591.7,381.8c0,0-0.1,0-0.1,0c-0.1,0-0.1,0-0.1,0c0,0,0,0-0.1,0
	c0,0-0.1,0-0.2,0.1S591,382,591,382c-0.1,0-0.2,0.1-0.2,0.1s-0.1,0-0.1,0l0.1,0c0.1,0,0-0.1,0-0.1s0-0.1,0-0.1c0,0,0.1,0,0.1,0.1
	c0.1,0,0.1,0,0.1,0c0,0,0-0.1,0-0.1c0.1,0,0.1-0.1,0.1-0.1c0,0,0,0,0,0c-0.1,0-0.2-0.1-0.3,0c0,0-0.1,0-0.1,0c-0.1,0-0.2,0-0.2,0
	c0,0,0.1,0.1,0,0.1c-0.1,0-0.1,0-0.2-0.1c-0.1,0-0.1-0.1,0-0.1c0,0,0.1-0.1,0.1-0.1c0,0,0-0.1-0.1,0c-0.1,0-0.1,0-0.2,0.1
	c-0.1,0-0.1,0.1-0.2,0.1c-0.1,0-0.2,0-0.2,0c0,0-0.1-0.1-0.1,0c0,0.1,0.1,0.1,0.2,0.1c0.1,0,0.2,0,0.2,0c0.1,0,0.1,0,0.2,0.1
	c0.1,0,0.1,0.1,0.2,0.1c0.1,0,0.2,0,0.1,0c-0.1,0,0,0.1,0,0.1s0,0,0,0.1c-0.1,0-0.1,0.1,0,0.1c0,0,0,0,0.1,0c0.1,0,0.2,0,0.2,0
	c0.1,0,0.1,0,0.2-0.1c0.1,0,0.2-0.1,0.3-0.1c0.1,0,0.2-0.1,0.3-0.1C591.5,381.9,591.6,381.9,591.7,381.8
	C591.7,381.8,591.7,381.8,591.7,381.8L591.7,381.8z M590.9,381.7C590.9,381.7,590.9,381.7,590.9,381.7
	C590.8,381.8,590.8,381.8,590.9,381.7C590.9,381.8,590.8,381.8,590.9,381.7c-0.1,0.1-0.1,0.1-0.1,0.1c0,0-0.1,0-0.1-0.1v0h0
	C590.8,381.7,590.8,381.7,590.9,381.7C590.8,381.7,590.9,381.7,590.9,381.7L590.9,381.7z M596.2,384.1c0,0-0.1,0-0.1-0.1
	c-0.1,0-0.2,0-0.2,0C595.9,384.2,596.1,384.2,596.2,384.1c0,0.2-0.1,0.2-0.2,0.3c-0.1,0-0.1,0.1-0.2,0.2c0,0.1-0.2,0-0.2,0
	c0-0.1-0.1-0.1-0.1-0.1c0,0,0,0,0,0c-0.1,0-0.2,0-0.3,0c-0.1,0,0-0.1,0-0.2c0-0.1-0.1-0.1-0.1-0.2c0-0.1,0.2-0.1,0.1-0.2
	c-0.1,0-0.3,0-0.2,0.1c0,0.1-0.1,0-0.2,0c-0.1,0-0.2,0-0.3,0.1c-0.1,0-0.1-0.1,0-0.1c0.1-0.1,0-0.1-0.1-0.1c-0.1,0-0.2,0-0.3,0
	c0,0-0.1,0.1-0.1,0.1c0,0,0.1,0.1,0.1,0.1c0.1,0,0.1,0.1,0,0.1s-0.2-0.1-0.3,0c0,0,0.1,0,0.1,0.1c0.1,0,0.2,0,0.3,0
	c0.1,0,0.2,0,0.3,0.1c0.1,0,0.2,0.1,0.1,0.1c0,0.1,0.1,0.2,0.2,0.2c0,0,0,0,0,0c0.1,0,0.2,0,0.2,0c0,0,0.2,0,0.1,0.1
	c0,0.1,0.1,0.1,0.2,0.1s0.2,0,0.3,0c0.2,0.1,0.3,0.1,0.5,0.2c0.1,0,0.1-0.1,0.1-0.1c0-0.1-0.3,0-0.3-0.1c0-0.1,0.1-0.1,0.1-0.2
	c0.1-0.1,0.2-0.1,0.2-0.2C596.4,384.2,596.3,384.2,596.2,384.1L596.2,384.1z M595.1,384.3C595.1,384.3,595.1,384.3,595.1,384.3
	c0,0.1,0,0.1,0,0.1c0,0,0,0-0.1,0C595,384.4,595,384.3,595.1,384.3c-0.1,0.1-0.1,0-0.1,0C595,384.3,595,384.3,595.1,384.3
	C595,384.3,595,384.3,595.1,384.3C595,384.2,595,384.2,595.1,384.3L595.1,384.3z M595.5,384.5C595.5,384.6,595.5,384.6,595.5,384.5
	C595.5,384.6,595.5,384.6,595.5,384.5l-0.1,0.1l0,0c0,0,0,0,0,0C595.4,384.5,595.5,384.5,595.5,384.5L595.5,384.5z M594.9,384.2
	C594.9,384.2,594.9,384.2,594.9,384.2C594.9,384.2,594.9,384.2,594.9,384.2C594.8,384.2,594.8,384.2,594.9,384.2
	c-0.1,0.1-0.1,0.1-0.1,0.1s0,0,0-0.1C594.8,384.2,594.8,384.2,594.9,384.2C594.8,384.2,594.8,384.2,594.9,384.2L594.9,384.2z M594.4,384C594.4,384,594.4,384,594.4,384C594.4,384,594.4,384,594.4,384C594.3,384.1,594.3,384.1,594.4,384c-0.1,0-0.1,0-0.1,0
	c0,0,0,0,0,0c0,0,0,0,0,0C594.3,384,594.3,384,594.4,384C594.3,384,594.3,384,594.4,384C594.3,384,594.3,384,594.4,384L594.4,384z M594.9,384.4C595,384.4,595,384.5,594.9,384.4C595,384.5,594.9,384.5,594.9,384.4c-0.1,0-0.1,0-0.1,0
	C594.8,384.4,594.8,384.4,594.9,384.4C594.8,384.4,594.9,384.4,594.9,384.4C594.9,384.4,594.9,384.4,594.9,384.4L594.9,384.4z M593.3,383.9C593.3,383.9,593.3,383.9,593.3,383.9c0,0,0.1,0,0.1,0c0.1,0,0.1,0,0.2,0c0,0,0.1,0,0.1,0c0,0,0.1,0,0.1-0.1
	c0,0,0-0.1,0-0.1c0,0,0,0,0-0.1s0.1,0,0.1,0c0,0,0.1,0,0.1,0s0,0,0,0c0,0,0,0,0,0.1c0,0,0,0.1,0,0.1c0,0,0,0,0,0.1s0,0-0.1,0.1
	c0,0-0.1,0-0.1,0.1c0,0-0.1,0-0.1,0c0,0-0.1,0-0.1,0c0,0-0.1,0-0.1,0C593.4,384,593.4,384,593.3,383.9L593.3,383.9L593.3,383.9z M592.8,383.6C592.8,383.6,592.8,383.6,592.8,383.6C592.9,383.6,592.9,383.6,592.8,383.6c0.1,0,0.2,0,0.2,0s0,0.1,0.1,0
	c0,0,0.1,0,0.1,0c0,0,0,0,0,0c0,0,0,0,0,0c0,0,0,0-0.1,0c0,0,0,0-0.1,0c0,0,0,0,0-0.1s0,0,0,0c0,0,0,0,0,0
	C593,383.7,592.9,383.7,592.8,383.6C592.9,383.7,592.9,383.7,592.8,383.6C592.8,383.7,592.8,383.7,592.8,383.6L592.8,383.6z M592,382.4c-0.1,0-0.1,0-0.2,0c0,0-0.1,0.1-0.1,0.1c-0.1,0.1-0.2,0-0.2,0c0-0.1,0.1-0.1,0.1-0.2c0,0-0.2,0-0.2,0c0,0,0,0.1-0.1,0.1
	c-0.1,0-0.2,0.1-0.3,0.1c-0.1,0-0.2,0-0.2-0.1c-0.1,0,0,0.1,0,0.1c0.1,0.1,0.2,0.1,0.3,0.1c0.1,0,0.2,0,0.3,0
	c0.1,0.1,0.2,0.1,0.3,0.2c0,0,0.2,0.1,0.2,0.1c-0.1,0-0.1,0.1,0,0.2c0,0,0.1,0,0.2,0c0.1,0,0.2,0,0.2,0c0.1,0.1,0.2,0.1,0.4,0.2
	c0,0,0.1,0,0.1,0c0,0,0.1-0.1,0.1-0.1c0,0,0.1-0.1,0.1-0.1c0,0-0.2,0-0.2-0.1c-0.1,0-0.2,0-0.3,0c-0.1,0-0.1-0.1,0-0.1
	c0,0,0.1,0,0.1,0c0,0-0.1-0.1-0.1-0.1c-0.1,0-0.1-0.1-0.2-0.1c-0.1,0-0.1-0.1-0.2-0.1C591.9,382.6,592,382.5,592,382.4
	C592,382.5,592,382.5,592,382.4L592,382.4z M591.9,382.7C591.9,382.7,591.9,382.7,591.9,382.7c0.1,0.1,0.1,0.1,0.2,0.1
	c0.1,0,0.1,0.1,0.2,0.1c0,0,0,0,0,0l-0.1,0.1c0,0,0,0-0.1,0c0,0,0,0,0,0c0,0,0,0,0,0c0,0,0.1,0,0.1,0l0,0c0,0,0,0,0,0
	c-0.1,0-0.1-0.1-0.2-0.1c-0.1,0-0.1-0.1-0.1-0.1c0,0,0,0,0,0S591.8,382.6,591.9,382.7C591.8,382.7,591.9,382.7,591.9,382.7
	L591.9,382.7z M592.7,383.2C592.7,383.2,592.7,383.2,592.7,383.2L592.7,383.2C592.7,383.2,592.7,383.2,592.7,383.2
	c-0.1,0-0.1,0-0.1,0S592.6,383.2,592.7,383.2C592.6,383.2,592.7,383.2,592.7,383.2L592.7,383.2z"/>
<path fill="#FCD027" d="M602.7,378.1c0,0,0.2-0.2,0.2-0.2c0,0.1,0.4,0.4,0.4,0.4c-0.2-0.2,0.5-1,1.3-1.4s1-0.7,1-0.8
	c0-0.2-0.3-0.5-0.6-0.7c-0.1-0.1-0.2-0.1-0.3,0c-0.2-0.2-0.5-0.4-0.8-0.5c-0.2,0-0.7,0.2-0.5,0.2c0.4,0,0.5,0.3,0.4,0.5
	c-0.1,0.2-0.6,0.5-1.4,0.7c-0.7,0.2-1.3,0.3-2,0.3c0.3,0.1,0.6,0.2,0.9,0.3l-0.5,0.2c0.3,0.1,0.6,0.1,0.9,0.1l0,0.3
	c0.2,0,0.6,0,0.6,0C602.4,377.7,602.5,377.9,602.7,378.1L602.7,378.1z"/>
<path fill="#FCD027" d="M603.4,376.3c-0.6,0.3-1.3,0.5-2,0.6 M603.6,376.4c-0.6,0.3-1.2,0.6-1.9,0.8 M603.8,376.6
	c-0.5,0.3-1,0.6-1.5,0.9 M604.1,376.8c0,0-1,0.7-1.2,1.1"/>
<path fill="#FCD027" d="M603.6,375.8c0.1,0,0.1-0.1,0.2-0.2c0.1-0.2,0-0.4-0.4-0.5c0.2-0.1,0.4-0.1,0.5,0c0.1,0.1,0.3,0.3,0.2,0.7
	c0,0-0.2-0.1-0.2-0.1C603.7,375.8,603.6,375.8,603.6,375.8L603.6,375.8z"/>
<path fill="#FCD027" d="M603.7,375c0.1,0,0.2,0,0.2,0c0.3,0.1,0.6,0.2,0.8,0.5c0.1-0.1,0.2-0.1,0.3,0c0.3,0.2,0.6,0.5,0.6,0.7
	c0,0.1,0,0.1-0.1,0.2h0c0-0.1-0.2-0.2-0.2-0.2c-0.1,0-0.2-0.1-0.3-0.1c-0.1,0-0.1-0.1-0.2-0.1c-0.1,0-0.2,0-0.2,0
	c-0.1,0-0.1-0.1,0-0.1s0-0.1,0-0.1c-0.1-0.1-0.2-0.2-0.2-0.3c0-0.2-0.1-0.2-0.3-0.3C604,375,603.8,375,603.7,375L603.7,375z"/>
<ellipse transform="matrix(5.427895e-03 -1 1 5.427895e-03 225.7796 978.4497)" fill="#FCD027" cx="604.8" cy="375.7" rx="0.1" ry="0.1"/>
<path fill="#FCD027" d="M596.4,380.6c2.3,0.3,4.6-0.2,6.6-1.3c-0.1,0-0.1-0.1-0.2-0.1c-0.5-0.3-1.4-1.1-1.3-1.5
	c-0.9-0.1-1.8-0.4-2.6-0.8c-0.1,0-0.1-0.1-0.2-0.1C598.8,376.8,595.9,378.2,596.4,380.6L596.4,380.6z"/>
<path fill="#FCD027" d="M602.7,379.3C602.6,379.3,602.6,379.3,602.7,379.3c-0.5-0.3-1.3-1-1.4-1.4c-0.9-0.1-1.7-0.4-2.5-0.8
	c0,0,0,0-0.1,0c-0.1,0.1-0.2,0.1-0.3,0.2c-0.3,0.2-0.6,0.4-0.9,0.7c-0.7,0.6-1.1,1.6-0.9,2.6c1.5,0.1,3-0.1,4.4-0.5
	c0.4-0.1,0.8-0.3,1.2-0.5C602.5,379.4,602.6,379.3,602.7,379.3L602.7,379.3z"/>
<path fill="#FCD027" d="M602.4,379.1C602.4,379.1,602.4,379.1,602.4,379.1c-0.5-0.3-1.2-1-1.3-1.4c-0.8-0.1-1.6-0.3-2.4-0.7
	c0,0,0,0-0.1,0c-0.1,0.1-0.2,0.1-0.3,0.2c-0.3,0.2-0.6,0.5-0.8,0.7c-0.7,0.7-1.1,1.6-0.9,2.6c1.4,0.1,2.9-0.1,4.3-0.6
	c0.4-0.1,0.8-0.3,1.2-0.5C602.2,379.2,602.3,379.2,602.4,379.1L602.4,379.1z"/>
<path fill="#FFFFFF" d="M556.9,367l-24,13.8l-8.5,4.9c-0.4,0.2-0.7,0.4-1.1,0.5c-4.2,1.9-10,2-13.4,0l-76.3-44.1
	c-3.4-2-3.3-5.3,0-7.7c0.3-0.2,0.7-0.5,1-0.7l4-2.3l4.5-2.6l24-13.8c4.3-2.5,10.8-2.7,14.5-0.6l76.2,44.1c0.4,0.2,0.8,0.5,1.1,0.8
	c0,0,0.1,0.1,0.1,0.1C561.5,361.7,560.7,364.8,556.9,367z"/>
<path fill="#0055FF" d="M532.9,380.8l-8.5,4.9l-1,0.6l-0.1-0.1l-89.6-51.8l-0.1,0l1.1-0.6l4-2.3l4.5-2.6l84.5,48.9L532.9,380.8z"/>
<path fill="#0055FF" d="M478.7,339.1c-2-0.3-3.9-0.9-5.6-1.9c-4.9-2.8-4.9-7.4-0.1-10.2s12.8-2.8,17.7,0c1.4,0.7,2.5,1.9,3.3,3.2
	c-4.1-0.7-8.3-0.1-12.1,1.8C478.6,334,477.6,336.7,478.7,339.1z"/>
<path fill="#0055FF" d="M499.6,342.4c-4.9,2.8-12.8,2.8-17.7,0c-1.4-0.7-2.5-1.9-3.2-3.2c4.1,0.7,8.3,0.1,12-1.8
	c3.3-1.9,4.3-4.5,3.2-7c2,0.3,3.9,0.9,5.6,1.9C504.4,335,504.5,339.6,499.6,342.4z"/>
<path fill="#0055FF" d="M490.7,337.3c-3.7,1.9-7.9,2.5-12,1.8c-1.1-2.4-0.1-5.1,3.2-7c3.7-1.9,7.9-2.5,12.1-1.8
	C495.1,332.7,494,335.4,490.7,337.3z"/>
<path fill="#020100" d="M559.5,360.1l-28.3,16.3c-1.1,0.6-2.3,1.1-3.5,1.4c-3.8,1-8.2,0.8-11-0.8l-76.3-44c-0.6-0.4-1.2-0.8-1.7-1.4
	l4.5-2.6l24-13.8c4.3-2.5,10.8-2.7,14.5-0.6l76.2,44.1c0.4,0.2,0.8,0.5,1.1,0.8c0,0,0.1,0.1,0.1,0.1
	C559.3,359.7,559.4,359.9,559.5,360.1z"/>
<path fill="#FFFFFF" d="M438.7,329.5l76.2,44.1c3.7,2.1,10.2,1.9,14.5-0.6l32.4-18.7c4.3-2.5,4.8-6.2,1-8.4l-76.2-44.1
	c-3.7-2.2-10.2-1.9-14.5,0.6l-32.4,18.7C435.4,323.6,435,327.3,438.7,329.5z"/>
<path fill="#FCD027" d="M528.4,373.6l-89.7-51.9l9.5-5.5l89.7,51.9L528.4,373.6z"/>
<path fill="#F0A77A" d="M483.6,326.4c-2-0.3-3.9-0.9-5.6-1.9c-4.9-2.8-4.9-7.4-0.1-10.2s12.8-2.8,17.7,0c1.4,0.7,2.5,1.9,3.3,3.2
	c-4.1-0.7-8.3-0.1-12.1,1.8C483.6,321.3,482.5,324,483.6,326.4z"/>
<path fill="#F0A77A" d="M504.5,329.7c-4.9,2.8-12.8,2.8-17.7,0c-1.4-0.7-2.5-1.9-3.2-3.2c4.1,0.7,8.3,0.1,12-1.8
	c3.3-1.9,4.3-4.5,3.2-7c2,0.3,3.9,0.9,5.6,1.9C509.4,322.3,509.4,326.9,504.5,329.7z"/>
<path fill="#FFFFFF" d="M495.7,324.6c-3.7,1.9-7.9,2.5-12,1.8c-1.1-2.4-0.1-5.1,3.2-7c3.7-1.9,7.9-2.5,12.1-1.8
	C500,320,498.9,322.7,495.7,324.6z"/>
<path fill="#FFC294" d="M468.1,223.1l60.7,35.1c4.5,2.6,12.3,2.3,17.5-0.7l126.5-72.9c5.2-3,5.7-13.6,1.3-16.1l-60.7-29
	c-4.5-2.6-12.3-2.3-17.5,0.7l-127.4,68.8C463.3,211.8,463.6,220.5,468.1,223.1z"/>
<path fill="#FCD3A2" d="M468.1,217.1l60.7,35.1c4.5,2.6,12.3,2.3,17.5-0.7l126.5-72.9c5.2-3,5.7-7.5,1.3-10.1l-60.7-35.1
	c-4.5-2.6-12.3-2.3-17.5,0.7L469.4,207C464.2,210,463.6,214.5,468.1,217.1z"/>
<path fill="#FFFFFF" d="M536.4,251.2c-2.2,0.1-4.3-0.4-6.2-1.4l-60.7-35.1c-0.6-0.4-1.7-1.1-1.7-2c0-0.8,0.8-2.1,2.9-3.3l126.5-72.9
	c2.6-1.4,5.5-2.1,8.5-2.1c2.2-0.1,4.3,0.4,6.2,1.4l60.7,35.1c0.6,0.4,1.7,1.1,1.7,2c0,0.8-0.8,2.1-2.9,3.3l-126.5,72.9
	C542.3,250.5,539.4,251.2,536.4,251.2L536.4,251.2z"/>
<path fill="#FCD3A2" d="M585.2,176.4l-18.5-10.6c-1.4-0.8-1.9-2.5-1.1-3.9c0.3-0.4,0.6-0.8,1.1-1.1l13.6-7.8c2.3-1.3,5.2-1.3,7.5,0
	l18.5,10.6c1.4,0.8,1.9,2.5,1.1,3.9c-0.3,0.4-0.6,0.8-1.1,1.1l-13.6,7.8C590.4,177.8,587.5,177.8,585.2,176.4z"/>
<path fill="#F0A77A" d="M584.7,158.4l-3-1.7l-11.7,6.8l3,1.7L584.7,158.4z"/>
<path fill="#F0A77A" d="M583.9,164.7l-3-1.7l-5.9,3.4l3,1.7L583.9,164.7z"/>
<path fill="#FCD3A2" d="M613.8,193.2l-18.5-10.6c-1.4-0.8-1.9-2.5-1.1-3.9c0.3-0.4,0.6-0.8,1.1-1.1l13.6-7.8c2.3-1.3,5.2-1.3,7.5,0
	l18.5,10.6c1.4,0.8,1.9,2.5,1.1,3.9c-0.3,0.4-0.6,0.8-1.1,1.1l-13.6,7.8C619,194.5,616.1,194.5,613.8,193.2z"/>
<path fill="#F0A77A" d="M614.3,175.5l-3-1.7l-11.7,6.8l3,1.7L614.3,175.5z"/>
<path fill="#F0A77A" d="M613.5,181.8l-3-1.7l-5.9,3.4l3,1.7L613.5,181.8z"/>
<path fill="#F0A77A" d="M632.7,155.5l-18.5-10.7c-0.4-0.2-0.3-0.6,0.1-0.8l0,0c0.4-0.2,1-0.3,1.4-0.1l18.5,10.7
	c0.4,0.2,0.3,0.6-0.1,0.8l0,0C633.6,155.7,633.1,155.7,632.7,155.5z"/>
<path fill="#F0A77A" d="M643,161.5l-7.2-4.2c-0.4-0.2-0.3-0.6,0.1-0.8l0,0c0.4-0.2,1-0.3,1.4-0.1l7.2,4.2c0.4,0.2,0.3,0.6-0.1,0.8
	l0,0C644,161.7,643.5,161.7,643,161.5z"/>
<path fill="#FCD027" d="M504.5,208.5c7.1-3,22-10.8,24.3-9.6c0.2,0.1,0.4,0.3,0.5,0.5c1.5,2-2.7,6.7-1.5,8c0.3,0.2,0.7,0.4,1.1,0.3
	c5.5-0.2,16.6-7.2,22.7-4.6c0.6,0.2,1.2,0.6,1.6,1c2,2.3-0.6,5.9,1.5,9.1c0.4,0.6,0.8,1.1,1.4,1.4c5,3.3,17.3-4.8,19.9-3.5
	c0.5,0.2,0.9,0.5,1.2,0.9c0.4,0.6,0.5,1.2,0.5,1.9l-2.9,1.9L546,232.4L504.5,208.5z"/>
<path fill="#0055FF" d="M569.8,185.8l-16.9,4l-2.4-1.4l16.5-3.8l-6.9-4l1.9-1.1l9.3,5.4L569.8,185.8z"/>
<path fill="#0055FF" d="M572.6,191.5c1.4,0.8,2.1,1.6,2.2,2.5s-0.5,1.7-1.8,2.5c-1.4,0.8-3,1.2-4.6,1.1c-1.7,0-3.3-0.5-4.8-1.3
	c-1.4-0.8-2.2-1.7-2.3-2.8c-0.1-1,0.5-1.9,2-2.8l2.5,1c-1,0.6-1.5,1.2-1.5,1.8c0,0.6,0.4,1.2,1.3,1.7c0.8,0.5,1.7,0.7,2.7,0.7
	c0.9,0,1.8-0.2,2.6-0.6c0.7-0.4,1-0.9,1-1.4c-0.1-0.5-0.5-1-1.3-1.5l-4.4-2.5l7.2-3.9l8.2,4.8l-1.9,1.1l-6.2-3.6l-3.2,1.7
	L572.6,191.5z"/>
<path fill="#0055FF" d="M595.4,198.8l1.4,0.8l-23.4,2l-1.4-0.8L595.4,198.8z M588.8,195.7c0.1,0.7-0.4,1.4-1.4,1.9
	c-1,0.6-2.1,0.8-3.3,0.8c-1.1,0-2.3-0.3-3.3-0.8c-0.8-0.3-1.3-1-1.5-1.9c0-0.7,0.4-1.4,1.3-1.9c1-0.6,2.2-0.8,3.3-0.8
	c1.1,0,2.3,0.3,3.3,0.9C588.1,194.1,588.6,194.8,588.8,195.7L588.8,195.7z M589.6,204.9c0.1,0.7-0.4,1.4-1.3,1.9
	c-1,0.6-2.1,0.8-3.3,0.8c-1.1,0-2.3-0.3-3.3-0.8c-0.8-0.3-1.3-1-1.5-1.9c0-0.7,0.4-1.4,1.3-1.9c1-0.6,2.1-0.8,3.3-0.8
	c1.1,0,2.3,0.3,3.3,0.9C588.9,203.4,589.5,204.1,589.6,204.9L589.6,204.9z M584.1,194.2c-0.6,0-1.3,0.1-1.8,0.4
	c-0.5,0.3-0.8,0.7-0.8,1c0.1,0.4,0.3,0.8,0.7,1c0.5,0.3,1.1,0.4,1.7,0.4c0.6,0,1.3-0.1,1.8-0.4c0.5-0.3,0.8-0.6,0.7-1
	c-0.1-0.4-0.3-0.8-0.7-1C585.3,194.3,584.7,194.2,584.1,194.2L584.1,194.2z M585,203.4c-0.6,0-1.3,0.1-1.8,0.4
	c-0.5,0.3-0.8,0.6-0.7,1c0.1,0.4,0.3,0.8,0.7,1c0.5,0.3,1.1,0.4,1.7,0.4c0.6,0,1.3-0.1,1.8-0.4c0.5-0.3,0.8-0.7,0.8-1.1
	c-0.1-0.4-0.3-0.8-0.7-1C586.2,203.6,585.6,203.4,585,203.4L585,203.4z"/>
<path fill="#1261FF" d="M581.2,169c0-0.3,0.2-0.5,0.4-0.6l0.6,0.3c-0.1,0.1-0.2,0.2-0.2,0.3c0,0.1,0.1,0.2,0.3,0.3
	c0.4,0.2,0.9,0.2,1.3,0c0.4-0.2,0.4-0.5,0-0.7c-0.3-0.2-0.6-0.3-1-0.2l-0.3-0.2l1.8-1l2,1.2l-0.5,0.3l-1.6-0.9l-0.9,0.5
	c0.3,0,0.7,0.1,1,0.3c0.3,0.2,0.5,0.4,0.4,0.6s-0.2,0.4-0.5,0.6c-0.7,0.4-1.6,0.4-2.3-0.1C581.4,169.4,581.2,169.2,581.2,169z"/>
<path fill="#1261FF" d="M584.3,170.6c0-0.3,0.3-0.6,0.8-0.9l0.2-0.1c0.9-0.6,2.1-0.6,3-0.1c0.4,0.2,0.6,0.5,0.6,0.8
	s-0.3,0.6-0.8,0.9l-0.2,0.1c-0.9,0.6-2.1,0.6-3,0.1C584.5,171.2,584.3,170.9,584.3,170.6z M587.3,170.9l0.2-0.1
	c0.7-0.4,0.8-0.8,0.3-1.1c-0.6-0.3-1.4-0.2-1.9,0.2l-0.2,0.1c-0.7,0.4-0.8,0.8-0.3,1.1C586,171.4,586.8,171.4,587.3,170.9z"/>
<path fill="#1261FF" d="M587.2,172.7l5.7-0.7l0.4,0.2l-5.7,0.7L587.2,172.7z M589.1,171.3c0-0.2,0.1-0.3,0.4-0.5
	c0.5-0.3,1.2-0.3,1.7,0c0.5,0.3,0.5,0.7,0,1c-0.3,0.1-0.6,0.2-0.9,0.2c-0.3,0-0.6-0.1-0.8-0.2C589.2,171.7,589.1,171.6,589.1,171.3
	L589.1,171.3z M589.1,173.5c0-0.2,0.2-0.4,0.4-0.5c0.5-0.3,1.2-0.3,1.7,0c0.5,0.3,0.5,0.7,0,1c-0.5,0.3-1.2,0.3-1.7,0
	C589.2,173.9,589.1,173.8,589.1,173.5L589.1,173.5z M590.7,171.6c0.3-0.2,0.3-0.4,0.1-0.5c-0.3-0.1-0.6-0.1-0.9,0
	c-0.3,0.2-0.3,0.4-0.1,0.5C590.1,171.8,590.4,171.7,590.7,171.6L590.7,171.6z M590.7,173.8c0.3-0.2,0.3-0.4,0.1-0.5
	c-0.3-0.1-0.6-0.1-0.9,0c-0.3,0.2-0.3,0.4-0.1,0.5C590.1,173.9,590.4,173.9,590.7,173.8L590.7,173.8z"/>
<path fill="#1261FF" d="M610,186.3l0.1-0.1l2.6,0c0.5,0,1-0.1,1.4-0.2c0.3-0.2,0.3-0.4,0-0.6c-0.4-0.2-0.9-0.2-1.3,0l-0.6-0.3
	c0.7-0.4,1.6-0.4,2.3,0c0.3,0.2,0.5,0.4,0.5,0.6s-0.1,0.4-0.4,0.6c-0.6,0.3-1.2,0.4-1.8,0.3l-1.5,0l1.4,0.8l-0.5,0.3L610,186.3z"/>
<path fill="#1261FF" d="M613.4,188c0-0.3,0.2-0.5,0.4-0.6l0.6,0.3c-0.1,0.1-0.2,0.2-0.2,0.3c0,0.1,0.1,0.2,0.3,0.3
	c0.4,0.2,0.9,0.2,1.3,0c0.4-0.2,0.4-0.5,0-0.7c-0.3-0.2-0.6-0.3-1-0.2l-0.3-0.2l1.8-1l2,1.2l-0.5,0.3l-1.6-0.9l-0.9,0.5
	c0.4,0,0.7,0.1,1,0.3c0.3,0.2,0.5,0.4,0.4,0.6s-0.2,0.4-0.5,0.6c-0.7,0.4-1.6,0.4-2.3-0.1C613.6,188.4,613.4,188.2,613.4,188z"/>
<path fill="#1261FF" d="M615.9,189.7l5.7-0.7l0.4,0.2l-5.7,0.7L615.9,189.7z M617.8,188.4c0-0.2,0.2-0.4,0.4-0.5
	c0.5-0.3,1.2-0.3,1.7,0c0.5,0.3,0.5,0.7,0,1c-0.3,0.1-0.6,0.2-0.9,0.2c-0.3,0-0.6-0.1-0.8-0.2C617.9,188.8,617.8,188.6,617.8,188.4
	L617.8,188.4z M617.8,190.6c0-0.2,0.2-0.4,0.4-0.5c0.5-0.3,1.2-0.3,1.7,0c0.5,0.3,0.5,0.7,0,1c-0.5,0.3-1.2,0.3-1.7,0
	C618,191,617.8,190.8,617.8,190.6L617.8,190.6z M619.4,188.6c0.3-0.2,0.3-0.4,0.1-0.5c-0.3-0.1-0.6-0.1-0.9,0
	c-0.3,0.2-0.3,0.4-0.1,0.5C618.8,188.8,619.1,188.8,619.4,188.6L619.4,188.6z M619.4,190.8c0.3-0.2,0.3-0.4,0.1-0.5
	c-0.3-0.1-0.6-0.1-0.9,0c-0.3,0.2-0.3,0.4-0.1,0.5C618.8,191,619.1,191,619.4,190.8L619.4,190.8z"/>
<polygon fill="#FFFFFF" points="531.9,227.4 531.8,227.2 569.1,205.6 569.2,205.9 "/>
<polygon fill="#FFFFFF" points="513.8,215.9 513.7,215.7 550.9,194.1 551.1,194.3 "/>
<path fill="#BF8260" d="M843.7,279c0,11.4-7.9,24.3-17.5,31.3c-0.9,0.6-1.8,1.1-2.8,1.5c-0.8,0.5-1,1.9-1.7,2.3l0,0
	c-0.1,0.1-92.9,54-92.9,54s75.6-60.9,75.7-66.4c0-2.6,0.4-5.2,1-7.8l14.1-9.6l19.5-14.5l1.6-1.2l0,0c-1.7,2.7-4.6,4.5-4.2,7.7
	l4.8,0.6C841.3,277.8,843.7,278.1,843.7,279z"/>
<path fill="#020100" d="M823.8,312.9l-2.2,1.3c-0.5,0.3-1.1,0.3-1.6,0.1l-0.2-0.1l-6.4-3.7l5.7-3.9l1.6-1.1L823.8,312.9z"/>
<path fill="#FFFFFF" d="M649.2,323.6c0,0.1,0,0.1,0,0.2c0,0.3,0,0.6,0,0.8V323.6z"/>
<path fill="#FFFFFF" d="M841.2,269.6l-1.7,1.2l-19.9,13.6L729,346.3c-6.7,4.6-10.7,12.2-10.7,20.3v1.4c0,1.6,1,3,2.5,3.6l0,0
	l-68.5-39.6c-2.5-1.4-2.8-5.4-2.9-8.3c0.1-7.8,0.5-11.6,7-16l104.1-74.1c6.7-4.5,15.3-4.8,22.3-0.8l0.8,0.5l4.4,2.5l40.5,23.4l0,0
	l4.4,2.5l3.3,1.9l0,0c0.9,0.5,1.7,1.2,2.4,1.9c0.8,0.9,1.5,1.9,2.2,2.9C840.8,269,841,269.2,841.2,269.6z"/>
<path fill="#020100" d="M701.8,350.8v5.5l-3.3-1.9l-25.7-14.9l-8.2-4.8l-4.3-2.5v-5.4L701.8,350.8z"/>
<path fill="#F0A77A" d="M661.9,331.6v-3.8l-1.6-0.9v5.4l41.5,24v-1.6L661.9,331.6z"/>
<path fill="#FFFFFF" d="M701.8,351.3v1.2l-0.5,0.3l-2.8,1.6l-20.3,11.8c-2.9,1.7-7.3,1.9-9.9,0.4l-21.1-12.2l-8.2-4.7l-2.1-1.2
	c-2.5-1.5-2.2-4,0.7-5.7l22.7-13.2l0.4-0.2l1.6-0.9l6.7,3.8l8.2,4.7L701.8,351.3z"/>
<path fill="#FCD027" d="M668.9,332.3l-29.9,17.4l8.2,4.7l29.9-17.4L668.9,332.3z"/>
<path fill="#BF8260" d="M701.8,351.3v1.2l-0.5,0.3L675.6,338l-8.2-4.7l-6.7-3.8l1.6-0.9l6.7,3.8l8.2,4.7L701.8,351.3z"/>
<path fill="#0055FF" d="M727.4,288.1c-0.2-0.3-0.5-0.6-0.9-0.8l-8.4-4.8c-1.6-0.8-3.6-0.7-5.1,0.2c-0.3,0.2-0.6,0.5-0.8,0.8
	c-0.5,0.8-0.2,1.9,0.6,2.3c0.1,0,0.2,0.1,0.2,0.1l8.4,4.8c1.6,0.8,3.6,0.7,5.1-0.2c0.9-0.4,1.3-1.5,0.8-2.4
	C727.5,288.1,727.5,288.1,727.4,288.1z"/>
<path fill="#FFFFFF" d="M743.9,297.5c-0.2-0.3-0.5-0.6-0.9-0.8l-8.4-4.8c-1.6-0.8-3.6-0.7-5.1,0.2c-0.3,0.2-0.6,0.5-0.8,0.8
	c-0.5,0.8-0.2,1.9,0.6,2.3c0.1,0,0.2,0.1,0.2,0.1l8.4,4.8c1.6,0.8,3.6,0.7,5.1-0.2c0.9-0.4,1.3-1.5,0.8-2.4
	C744,297.6,743.9,297.6,743.9,297.5z"/>
<path fill="#FFFFFF" d="M760.4,307c-0.2-0.3-0.5-0.6-0.9-0.8l-8.4-4.8c-1.6-0.8-3.6-0.7-5.1,0.2c-0.3,0.2-0.6,0.5-0.8,0.8
	c-0.5,0.8-0.2,1.9,0.6,2.3c0.1,0,0.2,0.1,0.2,0.1l8.4,4.8c1.6,0.8,3.6,0.7,5.1-0.2C760.5,309,760.9,308,760.4,307
	C760.4,307.1,760.4,307,760.4,307z"/>
<path fill="#FFFFFF" d="M716.3,295.9c-0.2-0.3-0.5-0.6-0.9-0.8l-8.4-4.8c-1.6-0.8-3.6-0.7-5.1,0.2c-0.3,0.2-0.6,0.5-0.8,0.8
	c-0.5,0.8-0.2,1.9,0.6,2.3c0.1,0,0.2,0.1,0.2,0.1l8.4,4.8c1.6,0.8,3.6,0.7,5.1-0.2c0.9-0.4,1.3-1.5,0.8-2.4
	C716.3,296,716.3,295.9,716.3,295.9z"/>
<path fill="#FFFFFF" d="M732.8,305.3c-0.2-0.3-0.5-0.6-0.9-0.8l-8.4-4.8c-1.6-0.8-3.6-0.7-5.1,0.2c-0.3,0.2-0.6,0.5-0.8,0.8
	c-0.5,0.8-0.2,1.9,0.6,2.3c0.1,0,0.2,0.1,0.2,0.1l8.4,4.8c1.6,0.8,3.6,0.7,5.1-0.2c0.9-0.4,1.3-1.5,0.8-2.4
	C732.8,305.4,732.8,305.4,732.8,305.3z"/>
<path fill="#FFFFFF" d="M749.2,314.8c-0.2-0.3-0.5-0.6-0.9-0.8l-8.4-4.8c-1.6-0.8-3.6-0.7-5.1,0.2c-0.3,0.2-0.6,0.5-0.8,0.8
	c-0.5,0.8-0.2,1.9,0.6,2.3c0.1,0,0.2,0.1,0.2,0.1l8.4,4.8c1.6,0.8,3.6,0.7,5.1-0.2C749.3,316.8,749.7,315.8,749.2,314.8
	C749.3,314.9,749.3,314.8,749.2,314.8z"/>
<path fill="#FFFFFF" d="M704.5,304.4c-0.2-0.3-0.5-0.6-0.9-0.8l-8.4-4.8c-1.6-0.8-3.6-0.7-5.1,0.2c-0.3,0.2-0.6,0.5-0.8,0.8
	c-0.5,0.8-0.2,1.9,0.6,2.3c0.1,0,0.2,0.1,0.2,0.1l8.4,4.8c1.6,0.8,3.6,0.7,5.1-0.2C704.6,306.5,705,305.4,704.5,304.4
	C704.5,304.5,704.5,304.5,704.5,304.4z"/>
<path fill="#FFFFFF" d="M721,313.9c-0.2-0.3-0.5-0.6-0.9-0.8l-8.4-4.8c-1.6-0.8-3.6-0.7-5.1,0.2c-0.3,0.2-0.6,0.5-0.8,0.8
	c-0.5,0.8-0.2,1.9,0.6,2.3c0.1,0,0.2,0.1,0.2,0.1l8.4,4.8c1.6,0.8,3.6,0.7,5.1-0.2c0.9-0.4,1.3-1.5,0.8-2.4
	C721,314,721,313.9,721,313.9z"/>
<path fill="#FFFFFF" d="M737.4,323.4c-0.2-0.3-0.5-0.6-0.9-0.8l-8.4-4.8c-1.6-0.8-3.6-0.7-5.1,0.2c-0.3,0.2-0.6,0.5-0.8,0.8
	c-0.5,0.8-0.2,1.9,0.6,2.3c0.1,0,0.2,0.1,0.2,0.1l8.4,4.8c1.6,0.8,3.6,0.7,5.1-0.2C737.5,325.4,737.9,324.3,737.4,323.4
	C737.5,323.4,737.5,323.4,737.4,323.4z"/>
<path fill="#FFFFFF" d="M709.2,322.6c-0.2-0.3-0.5-0.6-0.9-0.8l-8.4-4.8c-1.6-0.8-3.6-0.7-5.1,0.2c-0.3,0.2-0.6,0.5-0.8,0.8
	c-0.5,0.8-0.2,1.9,0.6,2.3c0.1,0,0.2,0.1,0.2,0.1l8.4,4.8c1.6,0.8,3.6,0.7,5.1-0.2c0.9-0.4,1.3-1.5,0.8-2.4
	C709.2,322.7,709.2,322.7,709.2,322.6z"/>
<path fill="#FFFFFF" d="M725.6,332.1c-0.2-0.3-0.5-0.6-0.9-0.8l-8.4-4.8c-1.6-0.8-3.6-0.7-5.1,0.2c-0.3,0.2-0.6,0.5-0.8,0.8
	c-0.5,0.8-0.2,1.9,0.6,2.3c0.1,0,0.2,0.1,0.2,0.1l8.4,4.8c1.6,0.8,3.6,0.7,5.1-0.2c0.9-0.4,1.3-1.5,0.8-2.4
	C725.7,332.2,725.7,332.1,725.6,332.1z"/>
<path fill="#FFFFFF" d="M692.7,313.3c-0.2-0.3-0.5-0.6-0.9-0.8l-8.4-4.8c-1.6-0.8-3.6-0.7-5.1,0.2c-0.3,0.2-0.6,0.5-0.8,0.8
	c-0.5,0.8-0.2,1.9,0.6,2.3c0.1,0,0.2,0.1,0.2,0.1l8.4,4.8c1.6,0.8,3.6,0.7,5.1-0.2c0.9-0.4,1.3-1.5,0.8-2.4
	C692.7,313.4,692.7,313.3,692.7,313.3z"/>
<path fill="#0055FF" d="M743.3,295.5l-8.4-4.8c-1.6-0.8-3.6-0.7-5.1,0.2c-0.9,0.4-1.3,1.5-0.8,2.4c0,0,0,0.1,0.1,0.1
	c0.2,0.3,0.5,0.6,0.9,0.8l8.4,4.8c1.6,0.8,3.6,0.7,5.1-0.2c0.3-0.2,0.6-0.5,0.8-0.8c0.5-0.8,0.2-1.9-0.6-2.3
	C743.4,295.5,743.3,295.5,743.3,295.5z"/>
<path fill="#0055FF" d="M759.7,304.9l-8.4-4.8c-1.6-0.8-3.6-0.7-5.1,0.2c-0.9,0.4-1.3,1.5-0.8,2.4c0,0,0,0.1,0.1,0.1
	c0.2,0.3,0.5,0.6,0.9,0.8l8.4,4.8c1.6,0.8,3.6,0.7,5.1-0.2c0.3-0.2,0.6-0.5,0.8-0.8c0.5-0.8,0.2-1.9-0.6-2.3
	C759.9,305,759.8,304.9,759.7,304.9z"/>
<path fill="#0055FF" d="M715.7,293.8l-8.4-4.8c-1.6-0.8-3.6-0.7-5.1,0.2c-0.9,0.4-1.2,1.5-0.8,2.4c0,0,0,0.1,0,0.1
	c0.2,0.3,0.5,0.6,0.9,0.8l8.4,4.8c1.6,0.8,3.6,0.7,5.1-0.2c0.3-0.2,0.6-0.5,0.8-0.8c0.5-0.8,0.2-1.9-0.6-2.3
	C715.8,293.9,715.7,293.8,715.7,293.8z"/>
<path fill="#0055FF" d="M732.1,303.3l-8.4-4.8c-1.6-0.8-3.6-0.7-5.1,0.2c-0.9,0.4-1.2,1.5-0.8,2.4c0,0,0,0.1,0.1,0.1
	c0.2,0.3,0.5,0.6,0.9,0.8l8.4,4.8c1.6,0.8,3.6,0.7,5.1-0.2c0.3-0.2,0.6-0.5,0.8-0.8c0.5-0.8,0.2-1.9-0.6-2.3
	C732.3,303.3,732.2,303.3,732.1,303.3z"/>
<path fill="#0055FF" d="M748.6,312.7l-8.4-4.8c-1.6-0.8-3.6-0.7-5.1,0.2c-0.9,0.4-1.3,1.5-0.8,2.4c0,0,0,0.1,0,0.1
	c0.2,0.3,0.5,0.6,0.9,0.8l8.4,4.8c1.6,0.8,3.6,0.7,5.1-0.2c0.3-0.2,0.6-0.5,0.8-0.8c0.5-0.8,0.2-1.9-0.6-2.3
	C748.7,312.8,748.7,312.8,748.6,312.7z"/>
<path fill="#0055FF" d="M703.8,302.4l-8.4-4.8c-1.6-0.8-3.6-0.7-5.1,0.2c-0.9,0.4-1.3,1.5-0.8,2.4c0,0,0,0.1,0,0.1
	c0.2,0.3,0.5,0.6,0.9,0.8l8.4,4.8c1.6,0.8,3.6,0.7,5.1-0.2c0.3-0.2,0.6-0.5,0.8-0.8c0.5-0.8,0.2-1.9-0.6-2.3
	C704,302.4,703.9,302.4,703.8,302.4z"/>
<path fill="#0055FF" d="M720.3,311.8l-8.4-4.8c-1.6-0.8-3.6-0.7-5.1,0.2c-0.9,0.4-1.2,1.5-0.8,2.4c0,0,0,0.1,0.1,0.1
	c0.2,0.3,0.5,0.6,0.9,0.8l8.4,4.8c1.6,0.8,3.6,0.7,5.1-0.2c0.3-0.2,0.6-0.5,0.8-0.8c0.5-0.8,0.2-1.9-0.6-2.3
	C720.5,311.9,720.4,311.9,720.3,311.8z"/>
<path fill="#0055FF" d="M736.8,321.3l-8.4-4.8c-1.6-0.8-3.6-0.7-5.1,0.2c-0.9,0.4-1.3,1.5-0.8,2.4c0,0,0,0.1,0,0.1
	c0.2,0.3,0.5,0.6,0.9,0.8l8.4,4.8c1.6,0.8,3.6,0.7,5.1-0.2c0.3-0.2,0.6-0.5,0.8-0.8c0.5-0.8,0.2-1.9-0.6-2.3
	C736.9,321.4,736.9,321.3,736.8,321.3z"/>
<path fill="#0055FF" d="M708.5,320.6l-8.4-4.8c-1.6-0.8-3.6-0.7-5.1,0.2c-0.9,0.4-1.2,1.5-0.8,2.4c0,0,0,0.1,0.1,0.1
	c0.2,0.3,0.5,0.6,0.9,0.8l8.4,4.8c1.6,0.8,3.6,0.7,5.1-0.2c0.3-0.2,0.6-0.5,0.8-0.8c0.5-0.8,0.2-1.9-0.6-2.3
	C708.7,320.6,708.6,320.6,708.5,320.6z"/>
<path fill="#0055FF" d="M725,330l-8.4-4.8c-1.6-0.8-3.6-0.7-5.1,0.2c-0.9,0.4-1.3,1.5-0.8,2.4c0,0,0,0.1,0,0.1
	c0.2,0.3,0.5,0.6,0.9,0.8l8.4,4.8c1.6,0.8,3.6,0.7,5.1-0.2c0.3-0.2,0.6-0.5,0.8-0.8c0.5-0.8,0.2-1.9-0.6-2.3
	C725.1,330.1,725.1,330.1,725,330z"/>
<path fill="#0055FF" d="M692,311.3l-8.4-4.8c-1.6-0.8-3.6-0.7-5.1,0.2c-0.9,0.4-1.3,1.5-0.8,2.4c0,0,0,0.1,0.1,0.1
	c0.2,0.3,0.5,0.6,0.9,0.8l8.4,4.8c1.6,0.8,3.6,0.7,5.1-0.2c0.3-0.2,0.6-0.5,0.8-0.8c0.5-0.8,0.2-1.9-0.6-2.3
	C692.2,311.4,692.1,311.3,692,311.3z"/>
<path fill="#FFC294" d="M843.7,279c0,11.4-7.3,25-16.8,32l-5.2,3.1l0,0l0,0c-0.1,0.1-0.3,0.1-0.4,0.2c-0.9,0.3-1.9-0.3-2.2-1.2
	c0-0.2-0.1-0.3-0.1-0.5v-6.2l0,0l-7.3,5l-2.9,2l-80.7,56l-2.9,1.7c-1.9,1.4-4.5,1-5.9-0.8c-0.5-0.7-0.8-1.6-0.9-2.5v-1.5
	c0-8.1,4-15.8,10.8-20.4l65.3-44.6l6.6-4.5l4.4-3l14.1-9.6l19.5-14.5l1.6-1.2l0,0l0,0c0.2,0.3,0.3,0.6,0.5,0.9
	c1.1,2.1,2,4.4,2.4,6.7v0C843.7,277.2,843.7,278.1,843.7,279z"/>
<path fill="#F0A77A" d="M830.2,269.7l-4.8,3.4c-0.1,0.1-0.2,0.2-0.3,0.2l-42.4,30.5c-2.7,1.8-6.2,2-9.1,0.3L721,273.6
	c-1.5-0.9-2-2.7-1.1-4.2c0.2-0.4,0.6-0.7,0.9-1l4.7-3.4c0.1-0.1,0.2-0.2,0.4-0.3l44.1-31.5c2.7-1.9,6.3-2,9.1-0.3L830,263
	c1.9,1.1,2.5,3.5,1.4,5.4C831.1,268.9,830.7,269.4,830.2,269.7z"/>
<path fill="#020100" d="M778,241.8l40.1,23.2c0.3,0.2,0.6,0.2,0.9,0l1.3-0.7c0.4-0.2,0.6-0.8,0.3-1.2c-0.1-0.1-0.2-0.2-0.3-0.3
	l-40.1-23.2c-0.3-0.2-0.6-0.2-0.9,0l-1.3,0.7c-0.4,0.2-0.6,0.8-0.3,1.2C777.7,241.6,777.8,241.8,778,241.8z"/>
<path fill="#FFFFFF" d="M860.9,229.8l-14.1,9.2c-3.2,2.1-6.8,3.2-10.6,3.2l0,0c-10.7,0-19.4,8.7-19.4,19.3l0,0v1.4L781.4,242v-1.7
	c0-10.7,8.7-19.3,19.4-19.3c0,0,0,0,0,0l0,0c3.8,0,7.5-1.1,10.6-3.2l14.1-9.2L860.9,229.8z"/>
<rect x="818.7" y="220.2" transform="matrix(0.5121 -0.859 0.859 0.5121 200.7189 816.2863)" fill="#020100" width="0.2" height="22.6"/>
<rect x="807.2" y="221.4" transform="matrix(0.5121 -0.8589 0.8589 0.5121 191.713 808.2828)" fill="#020100" width="0.2" height="27.9"/>
<rect x="800.7" y="228.5" transform="matrix(0.512 -0.859 0.859 0.512 181.9821 806.4656)" fill="#020100" width="0.2" height="29"/>
<path fill="#FFFFFF" d="M726.1,270l41.5-29.7c1-0.7,2.3-0.7,3.3-0.1l49.9,28.9c0.8,0.4,1.1,1.5,0.6,2.2c-0.1,0.2-0.3,0.4-0.5,0.5
	l-39.2,27.8c-1.2,0.8-2.8,0.9-4.1,0.1L726.1,270z"/>
<path fill="#1261FF" d="M763.1,268.4c-1.3-0.6-2.8-0.5-4.1,0.2c-1.1,0.7-1.1,1.7,0,2.3c1.3,0.6,2.8,0.5,4.1-0.2
	C764.2,270,764.2,269,763.1,268.4z M768.1,264.1c-0.1-0.1-0.3-0.1-0.4-0.2l-2,1.3c0.1,0.1,0.3,0.1,0.4,0.2c3.9,2.1,3.9,5.7,0,8.2
	c0,0,0,0-0.1,0l2,1.1c0,0,0,0,0.1,0C773.2,271.5,773.2,266.7,768.1,264.1L768.1,264.1z M776.2,259c-0.1-0.1-0.2-0.1-0.4-0.2l-2,1.3
	c0.1,0.1,0.2,0.1,0.4,0.2c8.4,4.4,8.4,12.3,0.1,17.5c0,0,0,0-0.1,0l2,1.1c0,0,0,0,0.1,0C785.8,272.9,785.7,264,776.2,259L776.2,259z M772.2,261.5c-0.1-0.1-0.2-0.1-0.3-0.2l-2,1.3c0.1,0.1,0.2,0.1,0.4,0.2c6.2,3.2,6.2,9,0.1,12.9l-0.1,0l2,1.1c0,0,0,0,0.1,0
	C779.5,272.2,779.5,265.4,772.2,261.5L772.2,261.5z"/>
<path fill="#FCD027" d="M726.8,286l-8.4-4.8c-1.6-0.8-3.6-0.7-5.1,0.2c-0.9,0.4-1.3,1.5-0.8,2.4c0,0,0,0.1,0,0.1
	c0.2,0.3,0.5,0.6,0.9,0.8l8.4,4.8c1.6,0.8,3.6,0.7,5.1-0.2c0.3-0.2,0.6-0.5,0.8-0.8c0.5-0.8,0.2-1.9-0.6-2.3
	C726.9,286.1,726.9,286,726.8,286z"/>
<path fill="#FFFFFF" d="M388.8,312.3l12.7,7.4v-90.3l-12.7-7.4V312.3z"/>
<path fill="#FFC294" d="M401.6,319.8l12.7-7.4v-90.3l-12.7,7.4V319.8z"/>
<path fill="#FCD027" d="M388.8,222l12.7,7.4l12.7-7.3l-12.7-7.4L388.8,222z"/>
<path fill="#FFFFFF" d="M339.6,283.7l12.7,7.4v-20.3l-12.7-7.4V283.7z"/>
<path fill="#FFC294" d="M352.4,291.2l12.7-7.4v-20.3l-12.7,7.4V291.2z"/>
<path fill="#0055FF" d="M339.7,263.4l12.7,7.4l12.7-7.3l-12.7-7.4L339.7,263.4z"/>
<path fill="#FFFFFF" d="M363.3,297.4l12.7,7.4v-52l-12.7-7.4V297.4z"/>
<path fill="#FFC294" d="M376.1,304.9l12.7-7.4v-52l-12.7,7.4V304.9z"/>
<path fill="#0055FF" d="M363.3,245.4l12.7,7.4l12.7-7.3l-12.7-7.4L363.3,245.4z"/>
<path fill="#FFFFFF" d="M381.1,317.7l0.1-0.1c1.4-0.9,3.1-1.1,4.6-0.4c0.8,0.5,1,1,0.3,1.5l-0.6-0.3c0.3-0.3,0.3-0.6-0.2-0.9
	c-1.1-0.4-2.3-0.3-3.3,0.4h0c0.7-0.1,1.4,0,2,0.4c1,0.6,1,1.4,0.1,1.9c-0.5,0.3-1.1,0.4-1.7,0.4c-0.6,0-1.2-0.2-1.7-0.5
	C379.3,319.3,379.9,318.4,381.1,317.7z M383.4,319.8c0.7-0.4,0.7-0.9,0-1.3c-0.7-0.4-1.5-0.4-2.2,0c-0.8,0.5-0.7,1-0.1,1.4
	C381.9,320.2,382.7,320.2,383.4,319.8L383.4,319.8z"/>
<path fill="#FFFFFF" d="M384,321.5c0-0.4,0.2-0.7,0.5-0.8l0.6,0.3c-0.2,0.1-0.3,0.3-0.4,0.5c0,0.2,0.2,0.4,0.5,0.6
	c0.7,0.4,1.6,0.4,2.3,0c0.7-0.4,0.7-0.9,0.1-1.3c-0.5-0.3-1.1-0.4-1.7-0.4l-0.2-0.1l2.6-1.5l2.8,1.6l-0.5,0.3l-2.3-1.3l-1.5,0.9
	c0.5,0,1,0.2,1.4,0.4c0.9,0.5,0.9,1.3-0.1,1.8c-1.1,0.6-2.3,0.5-3.4,0C384.3,322.1,384,321.8,384,321.5z"/>
<path fill="#FFFFFF" d="M387.8,324.1l8.4-1.2l0.5,0.3l-8.5,1.1L387.8,324.1z M391,324.6c0.8-0.4,1.7-0.4,2.4,0c0.7,0.4,0.7,1,0,1.4
	c-0.8,0.4-1.7,0.4-2.4,0c-0.4-0.1-0.6-0.6-0.4-0.9C390.7,324.9,390.8,324.7,391,324.6z M391.1,321.3c0.8-0.4,1.7-0.4,2.4,0
	c0.7,0.4,0.7,1,0,1.4c-0.8,0.4-1.7,0.4-2.4,0C390.4,322.4,390.4,321.8,391.1,321.3L391.1,321.3z M392.9,325.7
	c0.5-0.3,0.5-0.6,0.1-0.8c-0.5-0.2-1-0.2-1.4,0.1c-0.5,0.3-0.5,0.6-0.1,0.8C392,326,392.5,326,392.9,325.7L392.9,325.7z M393,322.4
	c0.5-0.3,0.5-0.6,0.1-0.8c-0.5-0.2-1-0.2-1.4,0.1c-0.5,0.3-0.5,0.6-0.1,0.8C392,322.7,392.5,322.7,393,322.4L393,322.4z"/>
<path fill="#FFFFFF" d="M356.1,303l0.6,0.3c-0.5,0.4-0.6,0.8,0.2,1.3c0.6,0.4,1.4,0.5,2.1,0.1c0.6-0.4,0.6-0.8-0.1-1.2l-0.4-0.2
	l0.5-0.3l0.4,0.2c0.5,0.4,1.2,0.4,1.8,0.1c0.5-0.3,0.5-0.6-0.1-1c-0.6-0.4-1.4-0.4-2-0.1l-0.5-0.3c1-0.4,2.1-0.4,3.1,0.1
	c1,0.6,0.9,1.2,0.2,1.6c-0.6,0.3-1.2,0.3-1.9,0.2c0.4,0.4,0.4,0.9-0.2,1.3c-1,0.5-2.3,0.4-3.2-0.2
	C355.3,304.3,355.3,303.6,356.1,303z"/>
<path fill="#FFFFFF" d="M359.7,306.4c0-0.4,0.2-0.7,0.5-0.8l0.6,0.3c-0.2,0.1-0.3,0.3-0.4,0.5c0,0.2,0.2,0.4,0.5,0.6
	c0.7,0.4,1.6,0.4,2.3,0c0.7-0.4,0.7-0.9,0.1-1.3c-0.5-0.3-1.1-0.4-1.7-0.4l-0.2-0.1l2.6-1.5l2.8,1.6l-0.5,0.3l-2.3-1.3l-1.5,0.9
	c0.5,0,1,0.2,1.4,0.4c0.9,0.5,0.9,1.3-0.1,1.8c-1.1,0.6-2.3,0.5-3.4,0C360,307,359.8,306.7,359.7,306.4z"/>
<path fill="#FFFFFF" d="M363.6,309l8.4-1.2l0.5,0.3l-8.4,1.1L363.6,309z M366.8,309.6c0.8-0.4,1.7-0.4,2.4,0c0.7,0.4,0.7,1,0,1.4
	c-0.8,0.4-1.7,0.4-2.4,0c-0.4-0.1-0.6-0.6-0.4-0.9C366.4,309.8,366.6,309.6,366.8,309.6L366.8,309.6z M366.8,306.3
	c0.8-0.4,1.7-0.4,2.4,0c0.7,0.4,0.7,1,0,1.4c-0.8,0.4-1.7,0.4-2.4,0C366.2,307.3,366.1,306.7,366.8,306.3L366.8,306.3z M368.7,310.6
	c0.5-0.3,0.5-0.6,0.1-0.8c-0.5-0.2-1-0.2-1.4,0.1c-0.5,0.3-0.5,0.6-0.1,0.8C367.7,310.9,368.3,310.9,368.7,310.6L368.7,310.6z M368.7,307.3c0.5-0.3,0.5-0.6,0.1-0.8c-0.5-0.2-1-0.2-1.4,0.1c-0.5,0.3-0.5,0.6-0.1,0.8C367.7,307.6,368.3,307.6,368.7,307.3
	L368.7,307.3z"/>
<path fill="#FFFFFF" d="M333.4,290.8l4.3-2.5l-1.9-0.2l0.6-0.3l2,0.2l0.6,0.3l-4.9,2.8L333.4,290.8z"/>
<path fill="#FFFFFF" d="M335.9,291.9c0-0.4,0.2-0.7,0.5-0.8l0.6,0.3c-0.2,0.1-0.3,0.3-0.4,0.5c0,0.2,0.2,0.4,0.5,0.6
	c0.7,0.4,1.6,0.4,2.3,0c0.7-0.4,0.7-0.9,0.1-1.3c-0.5-0.3-1.1-0.4-1.7-0.4l-0.2-0.1l2.6-1.5l2.8,1.6l-0.5,0.3l-2.3-1.3l-1.5,0.9
	c0.5,0,1,0.2,1.4,0.4c0.9,0.5,0.9,1.3-0.1,1.8c-1.1,0.6-2.3,0.5-3.4,0C336.2,292.5,335.9,292.2,335.9,291.9z"/>
<path fill="#FFFFFF" d="M339.7,294.5l8.4-1.2l0.5,0.3l-8.5,1.1L339.7,294.5z M343,295c0.8-0.4,1.7-0.4,2.4,0c0.7,0.4,0.7,1,0,1.4
	c-0.8,0.4-1.7,0.4-2.4,0c-0.4-0.1-0.6-0.6-0.4-0.9C342.6,295.3,342.8,295.1,343,295L343,295z M343,291.7c0.8-0.4,1.7-0.4,2.4,0
	c0.7,0.4,0.7,1,0,1.4c-0.8,0.4-1.7,0.4-2.4,0C342.4,292.8,342.3,292.2,343,291.7L343,291.7z M344.9,296.1c0.5-0.3,0.5-0.6,0.1-0.8
	c-0.5-0.2-1-0.2-1.4,0.1c-0.5,0.3-0.5,0.6-0.1,0.8C343.9,296.4,344.4,296.4,344.9,296.1L344.9,296.1z M344.9,292.8
	c0.5-0.3,0.5-0.6,0.1-0.8c-0.5-0.2-1-0.2-1.4,0.1c-0.5,0.3-0.5,0.6-0.1,0.8C343.9,293.1,344.5,293.1,344.9,292.8L344.9,292.8z"/>
<path fill="#FFC294" d="M809,20.4l-55.8,32.2l-15.9,9.2l-0.1,0l-30.9-17.9c-5.8-3.4-13.1-3.3-18.7,0.4l-0.1,0l71.7-41.3l0.1,0
	c5.7-3.6,12.9-3.8,18.7-0.4l30.8,17.9L809,20.4z"/>
<polygon fill="#0055FF" points="809,21.2 808.4,20.9 808.8,20.1 808.7,19.8 808.8,20 809,19.6 810.9,20.3 "/>
<path fill="#EFF3F9" d="M737.3,61.8l0,64.5l-58.1-33.7l0-33.3c0-9.9,8.1-18,18-18c3.2,0,6.3,0.8,9,2.4l30.9,17.9L737.3,61.8z"/>
<path fill="#1261FF" d="M719.7,57.7l-0.6,34.8l-31.6-18.3V74c2.3-1.3,13.4-7.7,30.3-17.5L719.7,57.7z"/>
<path fill="#0055FF" d="M809.7,86.1l-57.8-33.5L809,19.7l0.6,0.4l0,0.4L809.7,86.1z M754.5,52.6l53.8,31.2l0-62.3L754.5,52.6z"/>
<path fill="#0055FF" d="M960,90.2c0.5,0.3,0.7,0.9,0.4,1.4c-0.1,0.2-0.2,0.3-0.4,0.4l-69.7,40.2l-0.4,0.2v0l-81.6-47.1l-71.2-41.2v0
	l71.7-41.4v0.1L960,90.2z"/>
<path fill="#FFFFFF" d="M890,132.4l0,82.2l-152.8-88.2l0-82.2l71.2,41.2L890,132.4z"/>
<path fill="#F0A77A" d="M961.7,91.1l0,82.2l0,0l-71.7,41.3l0-82.3l0.4-0.2L961.7,91.1L961.7,91.1z"/>
<ellipse transform="matrix(0.8638 -0.5039 0.5039 0.8638 40.1906 376.1535)" fill="#020100" cx="715.8" cy="113.7" rx="11.2" ry="19.4"/>
<path fill="#F0A77A" d="M721.9,131.5c-5.1,0-11.4-4.6-15.8-12.1c-2.6-4.4-4-9.1-4.1-13.2c-0.1-4.4,1.3-7.7,4-9.2l0,0
	c5.4-3.2,14,1.7,19.5,11.1c5.5,9.4,5.5,19.3,0.1,22.4C724.4,131.2,723.2,131.5,721.9,131.5z M709.7,98.4c-0.9,0-1.8,0.2-2.5,0.6l0,0
	c-1.9,1.1-2.9,3.7-2.9,7.2c0.1,3.7,1.4,8,3.8,12.1c4.7,8,12.1,12.7,16.3,10.3c4.2-2.4,3.7-11.2-0.9-19.2
	C719.6,102.7,713.9,98.4,709.7,98.4z"/>
<ellipse transform="matrix(0.8638 -0.5039 0.5039 0.8638 25.0467 432.5035)" fill="#020100" cx="812.4" cy="169.9" rx="11.2" ry="19.4"/>
<path fill="#F0A77A" d="M818.5,187.7c-5.1,0-11.4-4.6-15.8-12.1c-2.6-4.4-4-9.1-4.1-13.2c-0.1-4.4,1.3-7.7,4-9.2l0,0
	c5.4-3.2,14,1.7,19.5,11.1c2.6,4.4,4,9.1,4.1,13.2c0.1,4.4-1.3,7.7-4,9.2C821.1,187.4,819.8,187.7,818.5,187.7z M803.8,155.2
	c-1.9,1.1-2.9,3.7-2.9,7.2c0.1,3.7,1.4,8,3.8,12.1c4.7,8,12.1,12.7,16.3,10.3c1.9-1.1,2.9-3.7,2.9-7.2c-0.1-3.7-1.4-8-3.8-12.1
	C815.4,157.5,808,152.7,803.8,155.2L803.8,155.2z"/>
<rect x="928.8" y="109.8" fill="#B57E5C" width="0.4" height="82.3"/>
<path fill="#FCD3A2" d="M717.7,56.5c-16.9,9.7-28,16.1-30.3,17.5l0.2-12.5c0.1-7.2,6.1-12.9,13.2-12.8c2.2,0,4.4,0.6,6.3,1.8
	L717.7,56.5z"/>
<path fill="#FCD027" d="M679.3,77.3v9.2l-1.5-0.8c-0.4-0.3-0.7-0.7-0.7-1.3v-5.8c0-0.8,0.7-1.5,1.5-1.4
	C678.8,77.1,679,77.1,679.3,77.3L679.3,77.3z"/>
<path fill="#0055FF" d="M528.5,86.4L559,68.8l-30.4-17.5l-30.5,17.6L528.5,86.4z"/>
<path fill="#FFC294" d="M559,68.8l0,29.4l-30.5,17.6l0-29.4L559,68.8z"/>
<path fill="#FFFFFF" d="M498.2,68.9l0,29.4l9.2,5.3l10.4,6l10.8,6.2l0-29.4L498.2,68.9z"/>
<path fill="#020100" d="M497.1,110.5l30.5-17.6l-30.4-17.5L466.7,93L497.1,110.5z"/>
<path fill="#FFFFFF" d="M466.7,93l0,29.4l9.2,5.3l10.4,6l10.8,6.2l0-29.4L466.7,93z"/>
<path fill="#FFC294" d="M527.6,92.9l0,29.4l-30.5,17.6l0-29.4L527.6,92.9z"/>
<path fill="#020100" d="M490.8,107.8l-30.5,17.6L429.9,108l30.5-17.6L490.8,107.8z"/>
<path fill="#FFC294" d="M490.8,107.8l0,29.4l-30.5,17.6l0-29.4L490.8,107.8z"/>
<path fill="#FFFFFF" d="M460.3,125.5l0,29.4l-10.8-6.2l-10.4-6l-9.2-5.3l0-29.4L460.3,125.5z"/>
<path fill="#0055FF" d="M495.6,79.6l30.5-17.6l-30.4-17.5l-30.5,17.6L495.6,79.6z"/>
<path fill="#FFC294" d="M526.1,61.9l0,29.4l-30.5,17.6l0-29.4L526.1,61.9z"/>
<path fill="#FFFFFF" d="M465.2,62.1l0,29.4l9.2,5.3l10.4,6l10.8,6.2l0-29.4L465.2,62.1z"/>
<path fill="#0055FF" d="M458.9,94.7L489.4,77l-30.4-17.5l-30.5,17.6L458.9,94.7z"/>
<path fill="#FFC294" d="M489.4,77l0,29.4L458.9,124l0-29.4L489.4,77z"/>
<path fill="#FFFFFF" d="M428.5,77.2l0,29.4l9.2,5.3l10.4,6l10.8,6.2l0-29.4L428.5,77.2z"/>
<path fill="#0055FF" d="M353.8,168.4l35.5-20.5L354,127.5L318.5,148L353.8,168.4z"/>
<path fill="#FFC294" d="M389.2,147.9l0,34.1l-35.5,20.5l0-34.1L389.2,147.9z"/>
<path fill="#FFFFFF" d="M318.5,148l0,34.1l10.7,6.2l12.1,7l12.6,7.2l0-34.1L318.5,148z"/>
<path fill="#020100" d="M317.2,196.4l35.5-20.5l-35.3-20.3L281.9,176L317.2,196.4z"/>
<path fill="#FFFFFF" d="M281.9,176l0,34.1l10.7,6.2l12,7l12.6,7.2l0-34.1L281.9,176z"/>
<path fill="#FFC294" d="M352.7,175.8l0,34.1l-35.5,20.5l0-34.1L352.7,175.8z"/>
<path fill="#020100" d="M310,193.3l-35.5,20.5l-35.3-20.3l35.5-20.5L310,193.3z"/>
<path fill="#FFC294" d="M310,193.3l0,34.1l-35.5,20.5l0-34.1L310,193.3z"/>
<path fill="#FFFFFF" d="M274.5,213.8l0,34.1l-12.6-7.2l-12-7l-10.7-6.1l0-34.1L274.5,213.8z"/>
<path fill="#0055FF" d="M315.5,160.4l35.5-20.5l-35.3-20.3L280.2,140L315.5,160.4z"/>
<path fill="#FFC294" d="M351,139.9l0,34.1l-35.5,20.5l0-34.1L351,139.9z"/>
<path fill="#FFFFFF" d="M280.2,140l0,34.1l10.7,6.2l12,7l12.6,7.2l0-34.1L280.2,140z"/>
<path fill="#0055FF" d="M272.9,177.9l35.5-20.5l-35.3-20.3l-35.5,20.5L272.9,177.9z"/>
<path fill="#FFC294" d="M308.3,157.4l0,34.1L272.9,212l0-34.1L308.3,157.4z"/>
<path fill="#FFFFFF" d="M237.6,157.6l0,34.1l10.7,6.2l12,7l12.6,7.2l0-34.1L237.6,157.6z"/>
<path fill="#FFC294" d="M812.2,423.3l67.2,38.8c5,2.9,13.6,2.5,19.4-0.8l140-80.7c5.7-3.3,6.4-15,1.4-17.9l-67.2-32.1
	c-5-2.9-13.6-2.5-19.4,0.8l-141,76.1C806.8,410.8,807.2,420.4,812.2,423.3z"/>
<path fill="#FCD3A2" d="M812.2,416.6l67.2,38.8c5,2.9,13.6,2.5,19.4-0.8l140-80.7c5.7-3.3,6.4-8.3,1.4-11.2L973,323.9
	c-5-2.9-13.6-2.5-19.4,0.8l-140,80.7C807.9,408.7,807.2,413.7,812.2,416.6z"/>
<path fill="#FFFFFF" d="M887.8,454.3c-2.4,0.1-4.8-0.4-6.9-1.5L813.7,414c-0.7-0.4-1.8-1.2-1.8-2.2c0-0.9,0.8-2.3,3.2-3.7l140-80.7
	c2.9-1.6,6.1-2.4,9.4-2.3c2.4-0.1,4.8,0.4,6.9,1.5l67.2,38.8c0.7,0.4,1.8,1.2,1.8,2.2c0,0.9-0.8,2.3-3.2,3.7l-140,80.7
	C894.3,453.6,891.1,454.4,887.8,454.3L887.8,454.3z"/>
<path fill="#F0A77A" d="M1000.9,351.7L980.8,340c-0.4-0.2-0.3-0.6,0.1-0.9l0,0c0.5-0.3,1.1-0.3,1.6-0.1l20.2,11.7
	c0.4,0.2,0.3,0.6-0.1,0.9l0,0C1002,351.9,1001.4,351.9,1000.9,351.7z"/>
<path fill="#F0A77A" d="M1012.2,358.2l-7.9-4.5c-0.4-0.2-0.4-0.6,0.1-0.9l0,0c0.5-0.3,1.1-0.3,1.6-0.1l7.9,4.5
	c0.4,0.2,0.3,0.6-0.1,0.9l0,0C1013.3,358.4,1012.7,358.4,1012.2,358.2z"/>
<path fill="#FCD3A2" d="M955.8,401.8l-19.3-11.2l11.7-6.7l19.3,11.2L955.8,401.8z"/>
<path fill="#F0A77A" d="M968.9,395.9l-22.2-12.8l3.2-1.8l22.2,12.8L968.9,395.9z"/>
<path fill="#020100" d="M960.6,387.3C960.6,387.3,960.6,387.3,960.6,387.3c-0.6,0-1.2-0.3-1.6-0.8c-0.4-0.5-0.6-1.2-0.6-1.9l0,0
	c0-0.7,0.3-1.4,0.7-1.9c0.4-0.5,1-0.8,1.6-0.8c0,0,0,0,0,0c1.2,0,2.2,1.2,2.2,2.7c0,0.7-0.3,1.4-0.7,1.9
	C961.7,387,961.2,387.3,960.6,387.3z M960.6,382.2c-0.5,0-1,0.2-1.3,0.7c-0.4,0.4-0.6,1-0.6,1.7l0,0c0,0.6,0.2,1.3,0.5,1.7
	c0.4,0.5,0.8,0.7,1.4,0.7c0.5,0,1-0.2,1.4-0.7c0.4-0.4,0.6-1,0.6-1.7C962.6,383.3,961.7,382.2,960.6,382.2
	C960.6,382.2,960.6,382.2,960.6,382.2z"/>
<path fill="#020100" d="M966.4,388.9c-2.6,0-5.3-0.5-5.3-1.6c0-1,2.7-1.6,5.3-1.6c0,0,0,0,0,0c2.6,0,5.3,0.5,5.3,1.6
	C971.8,388.3,969,388.9,966.4,388.9C966.4,388.9,966.4,388.9,966.4,388.9z M966.5,386C966.4,386,966.4,386,966.5,386
	c-3,0-5.1,0.7-5.1,1.3c0,0.6,2.1,1.3,5,1.3c0,0,0,0,0,0c3,0,5.1-0.7,5.1-1.3C971.5,386.7,969.4,386,966.5,386z"/>
<polygon fill="#020100" points="946,396.2 945.8,396 960.9,387.3 961.1,387.5 "/>
<path fill="#F0A77A" d="M923.8,365.6l0.4,4.6l7.9,0.2c1.8,0.1,3.3-0.8,3.3-1.8l0,0c0-1-1.3-1.8-3-1.8l-2.2-0.1l-0.1-1.3
	c-0.1-1-1.5-1.7-3.1-1.7l0,0C925.2,363.7,923.8,364.6,923.8,365.6z"/>
<path fill="#1261FF" d="M922.1,377.6c-0.1,0.1-0.2,0.2-0.4,0.3c-0.1,0.1-0.2,0.1-0.3,0.1c-0.1,0-0.2,0-0.3,0c-0.1,0-0.2-0.1-0.3-0.2
	c-0.1-0.1-0.1-0.2-0.2-0.3c0-0.1,0-0.2,0-0.3c0-0.1,0.1-0.2,0.1-0.3c0.1-0.1,0.2-0.2,0.3-0.3c0.1-0.1,0.3-0.2,0.4-0.3
	c0.1-0.1,0.2-0.1,0.3-0.2c0.1,0,0.2,0,0.3,0c0.1,0,0.2,0.1,0.3,0.2C922.7,376.7,922.6,377.1,922.1,377.6z M921.9,377.5
	c0.4-0.4,0.5-0.7,0.3-0.9c-0.2-0.2-0.5-0.1-1,0.3c-0.4,0.4-0.5,0.7-0.3,0.9C921.2,378,921.5,377.9,921.9,377.5z"/>
<path fill="#1261FF" d="M923.3,378.8c-0.1,0.1-0.2,0.2-0.4,0.3c-0.1,0.1-0.2,0.1-0.3,0.1s-0.2,0-0.3,0c-0.1,0-0.2-0.1-0.3-0.2
	c-0.1-0.1-0.1-0.2-0.1-0.2c0-0.1,0-0.2,0-0.3c0-0.1,0.1-0.2,0.1-0.3c0.1-0.1,0.2-0.2,0.3-0.3c0.1-0.1,0.3-0.2,0.4-0.3
	c0.1-0.1,0.2-0.1,0.3-0.2c0.1,0,0.2,0,0.3,0s0.2,0.1,0.3,0.2C923.9,377.8,923.8,378.3,923.3,378.8z M923.1,378.6
	c0.4-0.4,0.5-0.7,0.3-0.9c-0.2-0.2-0.5-0.1-1,0.3c-0.4,0.4-0.5,0.7-0.3,0.9C922.4,379.1,922.7,379,923.1,378.6z"/>
<path fill="#1261FF" d="M923.3,380.2l-0.2,0.2l-0.1-0.1l0.2-0.2c-0.1-0.1-0.2-0.3-0.3-0.4l0.2-0.2c0,0.1,0,0.2,0.1,0.3
	c0,0.1,0.1,0.2,0.2,0.2l0.5-0.5c-0.1-0.2-0.1-0.4-0.1-0.5c0-0.1,0.1-0.2,0.2-0.3c0.1-0.1,0.2-0.2,0.4-0.2c0.1,0,0.3,0,0.4,0.1
	l0.2-0.2l0.1,0.1l-0.2,0.2c0.1,0.1,0.2,0.3,0.2,0.3l-0.2,0.2c0-0.1-0.1-0.2-0.2-0.4l-0.5,0.5c0.1,0.2,0.1,0.4,0.1,0.5
	c0,0.1-0.1,0.2-0.1,0.3c-0.1,0.1-0.2,0.1-0.3,0.1C923.5,380.4,923.4,380.3,923.3,380.2z M923.9,379.6l-0.5,0.5
	c0.2,0.1,0.3,0.1,0.4,0C923.9,380,923.9,379.8,923.9,379.6z M924,379.3l0.5-0.5c-0.1,0-0.1-0.1-0.2-0.1c-0.1,0-0.1,0-0.2,0.1
	c-0.1,0.1-0.1,0.1-0.1,0.2C924,379.1,924,379.2,924,379.3z"/>
<path fill="#FCD3A2" d="M988.8,382.5l-19.3-11.2l11.7-6.7l19.3,11.2L988.8,382.5z"/>
<path fill="#F0A77A" d="M1001.9,376.6l-22.2-12.8l3.2-1.8l22.2,12.8L1001.9,376.6z"/>
<path fill="#020100" d="M993.5,368C993.5,368,993.5,368,993.5,368c-1.3,0-2.2-1.2-2.2-2.7c0-1.5,1-2.6,2.2-2.6c0,0,0,0,0,0
	c1.2,0,2.2,1.2,2.2,2.7c0,0.7-0.3,1.4-0.7,1.9C994.7,367.7,994.1,368,993.5,368z M993.6,362.9c-1.1,0-1.9,1-2,2.4
	c0,1.3,0.8,2.4,1.9,2.4c0,0,0,0,0,0c0.5,0,1-0.2,1.3-0.7c0.4-0.4,0.6-1,0.6-1.7C995.5,364.1,994.7,363,993.6,362.9
	C993.6,362.9,993.6,362.9,993.6,362.9z"/>
<path fill="#020100" d="M999.4,369.6c-1.4,0-2.7-0.1-3.7-0.4c-1.1-0.3-1.6-0.7-1.6-1.1c0-0.5,0.6-0.9,1.6-1.1c1-0.3,2.3-0.4,3.7-0.4
	c0,0,0,0,0,0c2.6,0,5.3,0.5,5.3,1.6C1004.7,369,1002,369.6,999.4,369.6C999.4,369.6,999.4,369.6,999.4,369.6z M999.4,366.6v0.1
	c-1.4,0-2.7,0.2-3.6,0.4c-0.9,0.2-1.4,0.6-1.4,0.9c0,0.3,0.5,0.6,1.4,0.9c1,0.3,2.2,0.4,3.6,0.4c0,0,0,0,0,0c3,0,5.1-0.7,5.1-1.3
	c0-0.6-2.1-1.3-5-1.3c0,0,0,0,0,0V366.6z"/>
<polygon fill="#020100" points="978.9,376.9 978.8,376.7 993.9,368 994,368.2 "/>
<path fill="#F0A77A" d="M956.8,346.4l0.4,4.6l7.9,0.2c1.8,0.1,3.3-0.8,3.3-1.8l0,0c0-1-1.3-1.8-3-1.8l-2.2-0.1l-0.1-1.3
	c-0.1-1-1.5-1.7-3.1-1.7l0,0C958.2,344.5,956.7,345.3,956.8,346.4z"/>
<path fill="#1261FF" d="M955.1,358.3c-0.1,0.1-0.2,0.2-0.4,0.3c-0.1,0.1-0.2,0.1-0.3,0.1c-0.1,0-0.2,0-0.3,0c-0.1,0-0.2-0.1-0.3-0.2
	c-0.1-0.1-0.1-0.2-0.2-0.3c0-0.1,0-0.2,0-0.3c0-0.1,0.1-0.2,0.1-0.3c0.1-0.1,0.2-0.2,0.3-0.3c0.1-0.1,0.3-0.2,0.4-0.3
	c0.1-0.1,0.2-0.1,0.3-0.2c0.1,0,0.2,0,0.3,0c0.1,0,0.2,0.1,0.3,0.2C955.7,357.4,955.6,357.8,955.1,358.3z M954.9,358.2
	c0.4-0.4,0.5-0.7,0.3-0.9c-0.2-0.2-0.5-0.1-1,0.3c-0.4,0.4-0.5,0.7-0.3,0.9C954.2,358.7,954.5,358.6,954.9,358.2z"/>
<path fill="#1261FF" d="M956.2,359.5c-0.1,0.1-0.2,0.2-0.4,0.3c-0.1,0.1-0.2,0.1-0.3,0.1s-0.2,0-0.3,0c-0.1,0-0.2-0.1-0.3-0.2
	c-0.1-0.1-0.1-0.2-0.1-0.2c0-0.1,0-0.2,0-0.3c0-0.1,0.1-0.2,0.1-0.3c0.1-0.1,0.2-0.2,0.3-0.3c0.1-0.1,0.3-0.2,0.4-0.3
	c0.1-0.1,0.2-0.1,0.3-0.2c0.1,0,0.2,0,0.3,0s0.2,0.1,0.3,0.2C956.8,358.6,956.7,359,956.2,359.5z M956,359.3
	c0.4-0.4,0.5-0.7,0.3-0.9c-0.2-0.2-0.5-0.1-1,0.3c-0.4,0.4-0.5,0.7-0.3,0.9C955.3,359.8,955.6,359.7,956,359.3z"/>
<path fill="#1261FF" d="M956.2,360.9l-0.2,0.2l-0.1-0.1l0.2-0.2c-0.1-0.1-0.2-0.3-0.3-0.4l0.2-0.2c0,0.1,0,0.2,0.1,0.3
	c0,0.1,0.1,0.2,0.2,0.2l0.5-0.5c-0.1-0.2-0.1-0.4-0.1-0.5c0-0.1,0.1-0.2,0.2-0.3c0.1-0.1,0.2-0.2,0.4-0.2c0.1,0,0.3,0,0.4,0.1
	l0.2-0.2l0.1,0.1l-0.2,0.2c0.1,0.1,0.2,0.3,0.2,0.3l-0.2,0.2c0-0.1-0.1-0.2-0.2-0.4l-0.5,0.5c0.1,0.2,0.1,0.4,0.1,0.5
	c0,0.1-0.1,0.2-0.1,0.3c-0.1,0.1-0.2,0.1-0.3,0.1C956.5,361.1,956.4,361,956.2,360.9z M956.8,360.3l-0.5,0.5c0.2,0.1,0.3,0.1,0.4,0
	C956.9,360.7,956.9,360.5,956.8,360.3z M957,360l0.5-0.5c-0.1,0-0.1-0.1-0.2-0.1c-0.1,0-0.1,0-0.2,0.1c-0.1,0.1-0.1,0.1-0.1,0.2
	C956.9,359.8,956.9,359.9,957,360z"/>
<path fill="#1261FF" d="M926.6,429.7l-70.4-40.7c-1.4-0.8-1.5-2-0.3-2.7l28.4-16.4c1.5-0.7,3.2-0.6,4.7,0.2l70.4,40.7
	c1.4,0.8,1.5,2,0.3,2.7l-28.4,16.4C929.7,430.5,928,430.5,926.6,429.7z"/>
<path fill="#FFFFFF" d="M923.2,421.5l-20.5-11.9l12.4-7.2l20.5,11.9L923.2,421.5z"/>
<path fill="#F0A77A" d="M937.1,415.2l-23.6-13.6l3.4-1.9l23.6,13.6L937.1,415.2z"/>
<path fill="#FFC294" d="M928.3,406.2C928.2,406.2,928.2,406.2,928.3,406.2c-1.4,0-2.5-1.4-2.4-3c0-0.8,0.3-1.5,0.7-2
	c0.5-0.5,1.1-0.8,1.7-0.8c0,0,0,0,0,0c1.3,0,2.4,1.4,2.4,3c0,0.8-0.3,1.5-0.7,2C929.5,405.9,928.9,406.2,928.3,406.2z M928.3,400.8
	c-0.5,0-1,0.2-1.4,0.7c-0.4,0.5-0.6,1.1-0.6,1.8c0,1.4,0.8,2.5,2,2.5c0.5,0,1-0.2,1.4-0.7c0.4-0.5,0.6-1.1,0.6-1.8
	C930.3,401.9,929.4,400.8,928.3,400.8C928.3,400.8,928.3,400.8,928.3,400.8z"/>
<path fill="#FFC294" d="M934.4,407.8c-1.5,0-2.9-0.2-3.9-0.4c-1.2-0.3-1.8-0.8-1.8-1.3s0.6-1,1.8-1.3c1.1-0.3,2.5-0.5,4-0.5v0.2
	v-0.2c0,0,0,0,0,0c1.5,0,2.9,0.2,3.9,0.4c1.2,0.3,1.8,0.8,1.8,1.3s-0.6,1-1.8,1.3C937.4,407.7,936,407.8,934.4,407.8
	C934.5,407.8,934.5,407.8,934.4,407.8z M934.5,404.8C934.5,404.8,934.5,404.8,934.5,404.8c-1.5,0-2.9,0.2-3.9,0.4
	c-1.1,0.3-1.5,0.7-1.5,0.9c0,0.2,0.4,0.6,1.5,0.9c1,0.3,2.4,0.4,3.9,0.4c1.5,0,2.8-0.2,3.9-0.4c1.1-0.3,1.5-0.7,1.5-0.9
	c0-0.2-0.4-0.6-1.5-0.9C937.3,405,936,404.8,934.5,404.8z"/>
<polygon fill="#FFC294" points="912.7,415.6 912.5,415.3 928.6,406 928.8,406.4 "/>
<path fill="#FCD027" d="M889.3,383.1l0.4,4.7l8.2,0.2c1.9,0.1,3.4-0.8,3.4-1.9l0,0c0-1-1.3-1.8-3.1-1.9l-2.3-0.1l-0.1-1.3
	c-0.1-1-1.5-1.8-3.2-1.8l0,0C890.7,381.2,889.2,382.1,889.3,383.1z"/>
<path fill="#FFFFFF" d="M887.2,395.8c-0.1,0.1-0.2,0.2-0.4,0.3c-0.1,0.1-0.2,0.1-0.3,0.1c-0.1,0-0.2,0-0.3,0c-0.1,0-0.2-0.1-0.3-0.2
	c-0.1-0.1-0.1-0.2-0.2-0.3c0-0.1,0-0.2,0-0.3c0-0.1,0.1-0.2,0.1-0.3c0.1-0.1,0.2-0.2,0.3-0.3c0.1-0.1,0.3-0.2,0.4-0.3
	c0.1-0.1,0.2-0.1,0.3-0.2c0.1,0,0.2,0,0.3,0c0.1,0,0.2,0.1,0.3,0.2C887.8,394.9,887.7,395.3,887.2,395.8z M887,395.7
	c0.4-0.4,0.5-0.7,0.3-0.9c-0.2-0.2-0.5-0.1-1,0.3c-0.4,0.4-0.5,0.7-0.3,0.9C886.3,396.2,886.6,396.1,887,395.7z"/>
<path fill="#FFFFFF" d="M888.3,397c-0.1,0.1-0.2,0.2-0.4,0.3c-0.1,0.1-0.2,0.1-0.3,0.1s-0.2,0-0.3,0c-0.1,0-0.2-0.1-0.3-0.2
	c-0.1-0.1-0.1-0.2-0.1-0.2c0-0.1,0-0.2,0-0.3c0-0.1,0.1-0.2,0.1-0.3c0.1-0.1,0.2-0.2,0.3-0.3c0.1-0.1,0.3-0.2,0.4-0.3
	c0.1-0.1,0.2-0.1,0.3-0.2c0.1,0,0.2,0,0.3,0s0.2,0.1,0.3,0.2C888.9,396.1,888.8,396.5,888.3,397z M888.1,396.8
	c0.4-0.4,0.5-0.7,0.3-0.9c-0.2-0.2-0.5-0.1-1,0.3c-0.4,0.4-0.5,0.7-0.3,0.9C887.4,397.3,887.7,397.2,888.1,396.8z"/>
<path fill="#FFFFFF" d="M888.3,398.4l-0.2,0.2l-0.1-0.1l0.2-0.2c-0.1-0.1-0.2-0.3-0.3-0.4l0.2-0.2c0,0.1,0,0.2,0.1,0.3
	c0,0.1,0.1,0.2,0.2,0.2l0.5-0.5c-0.1-0.2-0.1-0.4-0.1-0.5c0-0.1,0.1-0.2,0.2-0.3c0.1-0.1,0.2-0.2,0.4-0.2c0.1,0,0.3,0,0.4,0.1
	l0.2-0.2l0.1,0.1l-0.2,0.2c0.1,0.1,0.2,0.3,0.2,0.3l-0.2,0.2c0-0.1-0.1-0.2-0.2-0.4l-0.5,0.5c0.1,0.2,0.1,0.4,0.1,0.5
	c0,0.1-0.1,0.2-0.1,0.3c-0.1,0.1-0.2,0.1-0.3,0.1C888.6,398.6,888.4,398.5,888.3,398.4z M888.9,397.8l-0.5,0.5
	c0.2,0.1,0.3,0.1,0.4,0C889,398.2,889,398,888.9,397.8z M889,397.5l0.5-0.5c-0.1,0-0.1-0.1-0.2-0.1c-0.1,0-0.1,0-0.2,0.1
	c-0.1,0.1-0.1,0.1-0.1,0.2C889,397.3,889,397.4,889,397.5z"/>
<path fill="#FCD3A2" d="M889.8,439.9l-19.3-11.2l11.7-6.7l19.3,11.2L889.8,439.9z"/>
<path fill="#F0A77A" d="M902.9,434l-22.2-12.8l3.2-1.8l22.2,12.8L902.9,434z"/>
<path fill="#020100" d="M894.6,425.4C894.6,425.4,894.6,425.4,894.6,425.4c-1.3,0-2.2-1.2-2.2-2.7c0-0.7,0.3-1.4,0.7-1.9
	c0.4-0.5,1-0.8,1.6-0.8c0,0,0,0,0,0c0.6,0,1.2,0.3,1.6,0.8c0.4,0.5,0.6,1.2,0.6,1.9c0,0.7-0.3,1.4-0.7,1.9
	C895.7,425.2,895.2,425.4,894.6,425.4z M892.5,422.7l0.1,0c0,1.3,0.8,2.4,1.9,2.4c0,0,0,0,0,0c0.5,0,1-0.2,1.3-0.7
	c0.4-0.4,0.6-1,0.6-1.7s-0.2-1.3-0.5-1.7c-0.4-0.5-0.8-0.7-1.4-0.7c-0.5,0-1,0.2-1.4,0.7c-0.4,0.4-0.6,1-0.6,1.7L892.5,422.7z"/>
<path fill="#020100" d="M900.4,427c-1.4,0-2.7-0.1-3.7-0.4c-1.1-0.3-1.6-0.7-1.6-1.1c0-0.5,0.6-0.9,1.6-1.1c1-0.3,2.3-0.4,3.7-0.4
	c0,0,0,0,0,0c1.4,0,2.7,0.1,3.7,0.4c1.1,0.3,1.6,0.7,1.6,1.1c0,0.5-0.6,0.9-1.6,1.1C903.2,426.9,901.9,427,900.4,427
	C900.4,427,900.4,427,900.4,427z M900.5,424.2C900.5,424.2,900.5,424.2,900.5,424.2c-1.4,0-2.7,0.2-3.7,0.4
	c-0.9,0.2-1.4,0.6-1.4,0.9c0,0.3,0.5,0.6,1.4,0.9c1,0.3,2.2,0.4,3.6,0.4c0,0,0,0,0,0c1.4,0,2.7-0.2,3.6-0.4c0.9-0.2,1.4-0.6,1.4-0.9
	c0-0.3-0.5-0.6-1.4-0.9C903.1,424.3,901.8,424.2,900.5,424.2z"/>
<polygon fill="#020100" points="880,434.4 879.9,434.1 894.9,425.4 895.1,425.7 "/>
<path fill="#F0A77A" d="M857.9,403.8l0.4,4.6l7.9,0.2c1.8,0.1,3.3-0.8,3.3-1.8l0,0c0-1-1.3-1.8-3-1.8l-2.2-0.1l-0.1-1.3
	c-0.1-1-1.5-1.7-3.1-1.7l0,0C859.2,401.9,857.8,402.8,857.9,403.8z"/>
<path fill="#1261FF" d="M856.2,415.8c-0.1,0.1-0.2,0.2-0.4,0.3c-0.1,0.1-0.2,0.1-0.3,0.1c-0.1,0-0.2,0-0.3,0c-0.1,0-0.2-0.1-0.3-0.2
	c-0.1-0.1-0.1-0.2-0.2-0.3c0-0.1,0-0.2,0-0.3c0-0.1,0.1-0.2,0.1-0.3c0.1-0.1,0.2-0.2,0.3-0.3c0.1-0.1,0.3-0.2,0.4-0.3
	c0.1-0.1,0.2-0.1,0.3-0.2c0.1,0,0.2,0,0.3,0c0.1,0,0.2,0.1,0.3,0.2C856.8,414.9,856.7,415.3,856.2,415.8z M856,415.7
	c0.4-0.4,0.5-0.7,0.3-0.9c-0.2-0.2-0.5-0.1-1,0.3c-0.4,0.4-0.5,0.7-0.3,0.9C855.3,416.2,855.6,416.1,856,415.7z"/>
<path fill="#1261FF" d="M857.3,417c-0.1,0.1-0.2,0.2-0.4,0.3c-0.1,0.1-0.2,0.1-0.3,0.1s-0.2,0-0.3,0c-0.1,0-0.2-0.1-0.3-0.2
	c-0.1-0.1-0.1-0.2-0.1-0.2c0-0.1,0-0.2,0-0.3c0-0.1,0.1-0.2,0.1-0.3c0.1-0.1,0.2-0.2,0.3-0.3c0.1-0.1,0.3-0.2,0.4-0.3
	c0.1-0.1,0.2-0.1,0.3-0.2c0.1,0,0.2,0,0.3,0s0.2,0.1,0.3,0.2C857.9,416,857.8,416.4,857.3,417z M857.1,416.8
	c0.4-0.4,0.5-0.7,0.3-0.9c-0.2-0.2-0.5-0.1-1,0.3c-0.4,0.4-0.5,0.7-0.3,0.9C856.4,417.3,856.7,417.2,857.1,416.8z"/>
<path fill="#1261FF" d="M857.3,418.4l-0.2,0.2l-0.1-0.1l0.2-0.2c-0.1-0.1-0.2-0.3-0.3-0.4l0.2-0.2c0,0.1,0,0.2,0.1,0.3
	c0,0.1,0.1,0.2,0.2,0.2l0.5-0.5c-0.1-0.2-0.1-0.4-0.1-0.5c0-0.1,0.1-0.2,0.2-0.3c0.1-0.1,0.2-0.2,0.4-0.2c0.1,0,0.3,0,0.4,0.1
	l0.2-0.2l0.1,0.1l-0.2,0.2c0.1,0.1,0.2,0.3,0.2,0.3l-0.2,0.2c0-0.1-0.1-0.2-0.2-0.4l-0.5,0.5c0.1,0.2,0.1,0.4,0.1,0.5
	c0,0.1-0.1,0.2-0.1,0.3c-0.1,0.1-0.2,0.1-0.3,0.1C857.6,418.6,857.4,418.5,857.3,418.4z M857.9,417.8l-0.5,0.5
	c0.2,0.1,0.3,0.1,0.4,0C858,418.2,858,418,857.9,417.8z M858,417.5l0.5-0.5c-0.1,0-0.1-0.1-0.2-0.1c-0.1,0-0.1,0-0.2,0.1
	c-0.1,0.1-0.1,0.1-0.1,0.2C858,417.3,858,417.4,858,417.5z"/>
<path fill="#FFFFFF" d="M1016.7,427.1l-32.8-19l-43.8,25.2l32.8,19c3.2,1.8,7.9,2,10.6,0.4l33.9-19.5
	C1020.2,431.7,1019.9,428.9,1016.7,427.1z"/>
<path fill="#FCD027" d="M976.7,412.3l38.5,22.3l-8.9,5.1l-38.5-22.3L976.7,412.3z"/>
<path fill="#1261FF" d="M985.6,409.1l-43.7,25.2l-1.7-1l43.7-25.2L985.6,409.1z"/>
<path fill="#FFC294" d="M3.9,392.7l67.9,39.2c5,2.9,13.8,2.5,19.6-0.8l141.5-81.6c5.8-3.3,6.4-15.2,1.4-18.1L166.3,299
	c-5-2.9-13.8-2.5-19.6,0.8L4.2,376.7C-1.5,380.1-1.2,389.8,3.9,392.7z"/>
<path fill="#FCD3A2" d="M3.9,385.9l67.9,39.2c5,2.9,13.8,2.5,19.6-0.8l141.5-81.6c5.8-3.3,6.4-8.4,1.4-11.3l-67.9-39.2
	c-5-2.9-13.8-2.5-19.6,0.8L5.3,374.6C-0.5,378-1.1,383,3.9,385.9z"/>
<path fill="#FFFFFF" d="M80.2,424.1c3.3,0,6.6-0.8,9.5-2.4l141.5-81.6c2.4-1.4,3.3-2.8,3.3-3.7c0-1-1.2-1.8-1.8-2.2l-67.9-39.2
	c-2.2-1.1-4.5-1.6-7-1.5c-3.3,0-6.6,0.8-9.5,2.3L6.8,377.3c-2.4,1.4-3.3,2.8-3.3,3.7c0,1,1.2,1.8,1.8,2.2l67.9,39.2
	C75.4,423.6,77.8,424.1,80.2,424.1z"/>
<path fill="#F0A77A" d="M194.6,320.3l-20.4-11.8c-0.4-0.2-0.4-0.6,0.1-0.9l0,0c0.5-0.3,1.1-0.3,1.6-0.1l20.4,11.8
	c0.4,0.2,0.4,0.6-0.1,0.9l0,0C195.7,320.5,195.1,320.5,194.6,320.3z"/>
<path fill="#F0A77A" d="M206,326.9l-7.9-4.6c-0.4-0.2-0.4-0.6,0.1-0.9l0,0c0.5-0.3,1.1-0.3,1.6-0.1l7.9,4.6c0.4,0.2,0.4,0.6-0.1,0.9
	l0,0C207.1,327.1,206.5,327.1,206,326.9z"/>
<path fill="#020100" d="M169.8,379.1v0.1l-43.6,25.1l-4.4,2.5v-0.1c0-3.3-1.8-6.4-4.7-8.1l-14.1-8.1l-33.5-19.4
	c-1.3-0.8-1.8-2.4-1-3.8c0.2-0.4,0.6-0.8,1-1l1.7-1l2.8,1.6l34.7,20l14.1,8.2c2.9,1.7,4.7,4.8,4.7,8.2l19-10.9L169.8,379.1z"/>
<path fill="#1261FF" d="M169.8,379.1v0.1l-43.6,25.1c0-1.7-0.4-3.3-1.3-4.7c-0.8-1.4-2-2.6-3.4-3.4l-14.1-8.1l-37.6-21.8l-6.4-3.7
	c-5.3-3-6.2-7.5-2.6-10.5c0,0,0,0,0,0l8.9-5.1l15.5-9l2.3-1.4c5-2.9,13.7-2.5,19.5,0.8l58,33.5l-0.1,0.1l0.1,0.1
	C168,372.8,169.7,375.8,169.8,379.1z"/>
<path fill="#FFFFFF" d="M102.7,356.4l-1.2,0.7c-4.2,2.4-11.4,2.1-16.3-0.7l-17.1-9.9l16.3-9.4l17.1,9.9
	C106.4,349.8,106.9,354,102.7,356.4z"/>
<ellipse transform="matrix(1 -4.999937e-03 4.999937e-03 1 -1.7513 0.4604)" fill="#F0A77A" cx="91.2" cy="350.5" rx="6.8" ry="3.9"/>
<path fill="#FCD027" d="M120,368.3l-1.2,0.7l1.2,0.7l1.2-0.7L120,368.3z M113,377.7l-1.2,0.7l1.2,0.7l1.2-0.7L113,377.7z
	 M119.9,381.7l-1.2,0.7l1.2,0.7l1.2-0.7L119.9,381.7z M111.9,375.7l-2.3,1.3l1.2,0.7l2.3-1.3L111.9,375.7z M124.6,373.7l-1.2,0.7
	l1.2,0.7l1.2-0.7L124.6,373.7z M126.9,373.7l-1.2,0.7l1.1,0.7l-1.2,0.7l1.2,0.7l2.3-1.3L126.9,373.7z M108.4,369.7l-3.5,2l3.5,2
	l3.5-2L108.4,369.7z M121.1,379.7l-2.3,1.3l1.2,0.7l2.3-1.3L121.1,379.7z M130.4,371.7l-1.2,0.7l-1.2-0.7l-1.2,0.7l-2.3-1.3l1.2-0.7
	l2.3,1.3l1.2-0.7l-3.5-2l-1.2,0.7l-1.2-0.7l1.2-0.7l-2.3-1.3l-1.2,0.7l1.2,0.7l-1.2,0.7l2.3,1.3l-1.2,0.7l-2.3-1.3l-1.2,0.7
	l-1.2-0.7l1.2-0.7l-3.5-2l1.2-0.7l-2.3-1.3l1.2-0.7l1.2,0.7l1.2-0.7l-2.3-1.3l-3.5,2l2.3,1.3l-1.2,0.7l-2.3-1.3l-1.2,0.7l3.5,2
	l1.2-0.7l2.3,1.3l-1.2,0.7l4.6,2.7l-1.2,0.7l-1.2-0.7l-1.2,0.7l2.3,1.3l3.5-2l2.3,1.3l1.2-0.7l1.2,0.7l1.2-0.7l1.2,0.7l1.2-0.7
	l1.2,0.7l-1.2,0.7l1.2,0.7l2.3-1.3L130.4,371.7z M119.9,377.7l-1.2,0.7l2.3,1.3l1.2-0.7L119.9,377.7z M128,378.3l2.3-1.3l-1.2-0.7
	l-3.5,2l-2.3-1.3l-1.2,0.7l1.2,0.7l-1.2,0.7l2.3,1.3l-3.5,2l1.2,0.7l4.6-2.7l2.3,1.3l1.2-0.7l-1.2-0.7l1.2-0.7L128,378.3z
	 M122.3,375l-1.2-0.7l-3.5,2l-3.5-2L113,375l2.3,1.3l-1.2,0.7l3.5,2l1.2-0.7l-1.2-0.7l2.3-1.3l1.2,0.7l1.2-0.7l-1.2-0.7L122.3,375z
	 M118.9,365l-2.3,1.3l1.2,0.7l2.3-1.3L118.9,365z M137.3,375.7l-2.3-1.3l-2.3,1.3l-1.2-0.7l-1.2,0.7l1.2,0.7l-1.2,0.7l1.1,0.7l0,0
	l1.2-0.7l2.3,1.3l1.2-0.7L135,377L137.3,375.7z M123.4,375.7l-1.2,0.7l1.1,0.7l1.2-0.7L123.4,375.7z M133.9,363l-1.2,0.7l5.8,3.3
	l1.2-0.7L133.9,363z M140.8,369.6l-3.5,2l3.5,2l3.5-2L140.8,369.6z M140.8,367l-8.1,4.7l8.1,4.7l8.1-4.7L140.8,367z M135,371.7
	l5.8-3.3l5.8,3.3l-5.8,3.3L135,371.7z M140.8,369.6l-3.5,2l3.5,2l3.5-2L140.8,369.6z M108.4,369.7l-3.5,2l3.5,2l3.5-2L108.4,369.7z
	 M108.5,367l-8.1,4.7l8.1,4.6l8.1-4.7L108.5,367z M102.7,371.7l5.8-3.3l5.8,3.3l-5.8,3.3L102.7,371.7z M108.4,369.7l-3.5,2l3.5,2
	l3.5-2L108.4,369.7z M124.7,360.3l-3.5,2l3.5,2l3.5-2L124.7,360.3z M131.5,377.7L131.5,377.7l-1.2,0.7l1.2,0.7l1.2-0.7L131.5,377.7z
	 M140.8,369.6l-3.5,2l3.5,2l3.5-2L140.8,369.6z M124.7,360.3l-3.5,2l3.5,2l3.5-2L124.7,360.3z M124.7,357.7l-8.1,4.7l8.1,4.7
	l8.1-4.7L124.7,357.7z M118.9,362.3l5.8-3.3l5.8,3.3l-5.8,3.3L118.9,362.3z M124.7,360.3l-3.5,2l3.5,2l3.5-2L124.7,360.3z
	 M131.6,364.3l-2.3,1.3l1.2,0.7l1.2-0.7l1.2,0.7l1.2-0.7L131.6,364.3z M128.1,366.3l-3.5,2l1.2,0.7l3.5-2L128.1,366.3z M131.5,379
	l-1.2,0.7l2.3,1.3l1.2-0.7L131.5,379z M129.2,381.7l-1.2,0.7l1.2,0.7l1.2-0.7L129.2,381.7z M138.4,376.3l-2.3,1.3l1.2,0.7l2.3-1.3
	L138.4,376.3z M123.4,383.7l-1.2,0.7l1.1,0.7l1.2-0.7L123.4,383.7z M129.2,368.3l-1.2,0.7l1.2,0.7l1.2-0.7L129.2,368.3z
	 M125.7,382.3l-1.2,0.7l1.2,0.7l1.2-0.7L125.7,382.3z M136.2,367l-1.2,0.7l-2.3-1.3l-2.3,1.3l1.2,0.7l-1.2,0.7l1.2,0.7l-1.2,0.7
	l1.2,0.7l5.8-3.3L136.2,367z"/>
<path fill="#0055FF" d="M255,555.7h-1.6l0-11.7c0-10.1-12.6-26.3-18.1-32.7c-2.5-3.1-6-5.2-9.9-5.9c-3.4-0.5-6.3,0.2-8.6,2.2
	c-2.8,2.4-4.4,6.7-4.4,11.9l0,11.7h-1.6l0-11.7c0-5.8,1.7-10.4,4.9-13.1c2.6-2.2,6-3.1,9.8-2.5c4.3,0.8,8.2,3.1,10.9,6.5
	c6.9,8.2,18.4,23.5,18.4,33.7L255,555.7z"/>
<path fill="#0055FF" d="M266,613l-71.2-25.2l0-73.5l76.3,44.1L266,613z"/>
<path fill="#020100" d="M172,514.6l11.3,4.8l11.5-4.8l0,73.5l-16.4,0L172,514.6z"/>
<path fill="#FFFFFF" d="M248.3,631.9L172,587.8l0-73.5l76.3,44.1L248.3,631.9z"/>
<path fill="#FFC294" d="M232.2,555.7h-1.4l0-11.7c0-10.2-12.7-26.3-18.1-32.8c-2.5-3.1-6-5.3-10-6c-3.4-0.5-6.4,0.2-8.6,2.2
	c-2.8,2.4-4.4,6.7-4.4,12l0,11.7h-1.4l0-11.7c0-5.8,1.7-10.3,4.9-13.1c2.6-2.2,6-3.1,9.8-2.5c4.3,0.8,8.1,3.1,10.8,6.5
	c6.9,8.2,18.4,23.5,18.4,33.7L232.2,555.7z"/>
<path fill="#FFC294" d="M248.4,558.7l11.3,4.8l11.5-4.8l0,60.4l-22.8,13L248.4,558.7z"/>
<path fill="#020100" d="M193.3,483.1l-15.4-34.6c-1.6-3.5-5.7-5.1-9.2-3.6c-1,0.4-1.9,1.1-2.6,1.9l-2.4,2.9c-2.5,3-3.1,7.2-1.5,10.8
	l17.3,39l11.7,2.5L193.3,483.1z M185.4,494c-0.7-1.4-0.6-3.1,0.3-4.5c0.8-1,2-0.5,2.7,0.9c0.7,1.4,0.6,3.1-0.3,4.5
	C187.2,495.9,186,495.4,185.4,494L185.4,494z"/>
<path fill="#020100" d="M189.4,500.6c-0.8-1.8-1.3-3.7-1.4-5.7c-0.4,0.5-1.1,0.7-1.7,0.3c0,0,0,0,0,0c0.1,2.1,0.6,4.2,1.5,6.1
	c0,0.1,0,0.1,0.1,0.2l2.1,0.4C189.7,501.5,189.6,501.1,189.4,500.6z"/>
<path fill="#FFFFFF" d="M191.8,496.9l0.2-2.3l0.1-0.1c1.5,2,2.7,4.1,3.7,6.4c0.5,1,0.8,2.1,1,3.1c-0.6,0.1-1.1,0.3-1.6,0.6
	c-0.3-1-0.6-2.1-1-3.1C193.6,499.8,192.8,498.3,191.8,496.9z"/>
<path fill="#FFFFFF" d="M196.8,509.2c-0.4,0.5-1,0.9-1.6,0.8c-0.4,0-0.7-0.1-1.1-0.3c-1-0.5-1.9-1.3-2.6-2.1
	c-0.4-0.5-0.8-0.9-1.1-1.5c-1-1.5-1.9-3-2.6-4.7c0-0.1,0-0.1-0.1-0.2c-0.8-1.9-1.3-4-1.5-6.1c-0.1-0.8,0.1-1.6,0.5-2.3
	c0.4-0.6,1.1-0.9,1.8-0.8l0,0.8v0.1c0,0.2,0,0.4-0.1,0.7c-0.1,0-0.2,0.1-0.3,0.2c-0.2,0.3-0.3,0.7-0.2,1.1c0.1,2,0.5,3.9,1.4,5.7
	c0.2,0.4,0.4,0.9,0.6,1.3c0.5,1.2,1.2,2.3,1.9,3.4l0,0c0.4,0.5,0.8,1,1.2,1.5c0.9,1,1.7,1.5,2.2,1.5c0.1,0,0.2,0,0.2-0.1
	c0.2-0.3,0.3-0.5,0.3-1.5c0.5-0.3,1.1-0.5,1.7-0.6C197.4,507.2,197.3,508.2,196.8,509.2z"/>
<path fill="#FFFFFF" d="M175.4,466.2c-0.2,0.2-0.5,0.3-0.7,0.3c-0.2,0-0.5,0-0.7,0c-0.2-0.1-0.4-0.2-0.7-0.3
	c-0.2-0.2-0.4-0.4-0.6-0.6c-0.3-0.4-0.5-0.8-0.5-1.1l0.6-0.4c0,0.5,0.1,0.8,0.4,1.2c0.1,0.2,0.2,0.3,0.4,0.4
	c0.1,0.1,0.3,0.2,0.4,0.2s0.3,0,0.5,0c0.2,0,0.3-0.1,0.5-0.2c0.3-0.2,0.5-0.5,0.5-0.8c0-0.3-0.1-0.7-0.4-1.1c0-0.1-0.1-0.1-0.1-0.2
	c-0.1-0.1-0.1-0.1-0.2-0.2c-0.1-0.1-0.1-0.1-0.2-0.2s-0.1-0.1-0.1-0.2l2.4-1.4l1.5,2.1l-0.5,0.3l-1.2-1.7l-1.4,0.8
	c0.1,0.1,0.1,0.1,0.2,0.2c0.1,0.1,0.1,0.1,0.1,0.2c0.2,0.2,0.3,0.5,0.4,0.7c0.1,0.2,0.1,0.5,0.1,0.7c0,0.2-0.1,0.4-0.2,0.6
	S175.6,466.1,175.4,466.2z"/>
<path fill="#FFFFFF" d="M178.9,469.3c-0.4,0.3-0.8,0.5-1.1,0.6c-0.3,0.1-0.7,0.2-1,0.2c-0.3,0-0.6,0-0.8-0.2
	c-0.2-0.1-0.4-0.3-0.6-0.5c-0.2-0.2-0.3-0.5-0.3-0.7c0-0.3,0-0.5,0.1-0.8c0.1-0.3,0.3-0.5,0.5-0.8c0.2-0.3,0.5-0.5,0.9-0.8
	c0.4-0.3,0.8-0.5,1.1-0.6c0.4-0.1,0.7-0.2,1-0.2c0.3,0,0.6,0,0.8,0.2s0.4,0.3,0.6,0.6C180.9,467.2,180.5,468.2,178.9,469.3z
	 M178.5,468.8c1.3-0.9,1.7-1.7,1.3-2.3c-0.5-0.7-1.4-0.5-2.7,0.4c-1.2,0.9-1.6,1.6-1.2,2.3C176.4,469.8,177.2,469.7,178.5,468.8z"/>
<path fill="#FFFFFF" d="M184.4,472.3l-6.7,0.3l-0.3-0.5l6.7-0.3L184.4,472.3z M179.5,475.3c-0.2-0.3-0.3-0.6-0.2-1
	c0.1-0.3,0.3-0.6,0.6-0.9c0.4-0.3,0.8-0.4,1.1-0.3s0.7,0.2,0.9,0.6c0.2,0.3,0.3,0.7,0.2,1s-0.3,0.6-0.7,0.9
	c-0.4,0.3-0.7,0.4-1.1,0.3S179.7,475.6,179.5,475.3z M180,470.9c-0.2-0.3-0.3-0.6-0.2-1c0.1-0.3,0.3-0.6,0.6-0.9
	c0.4-0.3,0.8-0.4,1.1-0.3c0.4,0,0.7,0.2,0.9,0.6c0.2,0.3,0.3,0.7,0.2,1s-0.3,0.6-0.7,0.9c-0.4,0.3-0.7,0.4-1.1,0.3
	C180.5,471.4,180.2,471.2,180,470.9z M181.6,473.9c-0.1-0.2-0.3-0.3-0.6-0.3c-0.2,0-0.5,0.1-0.7,0.3c-0.3,0.2-0.4,0.4-0.5,0.6
	s0,0.4,0.1,0.6c0.1,0.2,0.3,0.3,0.6,0.3c0.2,0,0.5-0.1,0.7-0.3c0.3-0.2,0.4-0.4,0.5-0.6C181.7,474.3,181.7,474.1,181.6,473.9z
	 M182,469.5c-0.1-0.2-0.3-0.3-0.6-0.3c-0.2,0-0.5,0.1-0.7,0.3c-0.3,0.2-0.4,0.4-0.5,0.6c-0.1,0.2,0,0.4,0.1,0.6
	c0.1,0.2,0.3,0.3,0.6,0.3c0.2,0,0.5-0.1,0.7-0.3c0.3-0.2,0.4-0.4,0.5-0.6C182.2,469.9,182.2,469.7,182,469.5z"/>
<path fill="#FFC294" d="M364,431.3l-3.2,87.7h0c-3.8,0-7.6-0.9-11-2.7l-30.1-17.4c-3.9-2.3-5.4-5.5-4.6-8.7l0.2-0.7l16.2-77.1
	L364,431.3L364,431.3z"/>
<path fill="#BF8260" d="M356,456.2l-1.7,46l0,1.1c-0.1,1.7-1.5,3-3.1,2.9c-0.5,0-1-0.2-1.4-0.4c-7-4.1-20.5-11.9-25.5-14.7
	c-1.1-0.7-1.7-2-1.4-3.2l9.5-45.3l4.9,2.8L356,456.2z"/>
<path fill="#F0A77A" d="M356,456.2l-1.7,46c-7.2-4.2-16-9.2-21.2-12.3c-1.5-0.9-2.3-2.5-2-4.2l3.7-24.4l0.6-3.9l1.8-12L356,456.2z"
	/>
<path fill="#BF8260" d="M354.3,469.5l-0.5,3.2l-17.6-10.2l0.5-3.1L354.3,469.5z"/>
<path fill="#FFFFFF" d="M311.4,476c6-1.7,9-2.3,10.7-3.9c2.6-2.6,2.2-6.1,5.5-8.2c2.9-1.8,6.7-2.5,9.6-2.7l0,0l16.7,9.6
	c-2.9,0.3-6.7,0.9-9.6,2.7c-3.3,2-2.9,5.5-5.5,8.2c-1.6,1.6-4.6,2.2-10.7,3.9L311.4,476z"/>
<rect x="327.6" y="472" transform="matrix(0.5 -0.866 0.866 0.5 -250.466 522.9647)" fill="#9D9D9C" width="0.1" height="12.8"/>
<rect x="332.1" y="467.7" transform="matrix(0.4999 -0.8661 0.8661 0.4999 -244.5433 524.7477)" fill="#9D9D9C" width="0.1" height="12.8"/>
<rect x="335.4" y="463" transform="matrix(0.5 -0.866 0.866 0.5 -238.7715 525.153)" fill="#9D9D9C" width="0.1" height="12.8"/>
<polygon fill="#9D9D9C" points="347.1,469.7 335.8,463.1 335.8,463 347.2,469.6 "/>
<path fill="#F0A77A" d="M387.7,420.9l-12.2,7c-3.5,2-7.4,3.1-11.4,3.4c0,0-0.1,0-0.1,0l-32.4-18.9c0.5-2.3,2.5-4.6,5.7-6.5l12.2-7
	c7.1-4.1,17.9-4.5,24-1l15.9,9.2c2.5,1.5,3.9,3.4,4.1,5.4C393.8,415.3,391.8,418.4,387.7,420.9z"/>
<path fill="#FFC294" d="M403.3,500.2l-25.8,14.9c-5.1,2.8-10.8,4.1-16.6,3.9h0l3.2-87.7l0,0c4-0.2,7.9-1.4,11.4-3.4l12.2-7
	c4.2-2.4,6.2-5.5,5.8-8.4l0.1,0l16,76.4c0,0,0,0,0,0l0.2,0.8C410.8,493.1,408.5,497.2,403.3,500.2z"/>
<path fill="#FCD3A2" d="M385.8,473.3l-107.5-61.9c-6.2-3.6-8.8-11.2-6-17.8l34.1-82.8c3-7.3,11.4-10.7,18.7-7.7
	c0.6,0.2,1.1,0.5,1.7,0.8l107.5,61.9c6.2,3.6,8.8,11.2,6.1,17.8l-34.1,82.8c-3,7.3-11.4,10.7-18.7,7.7
	C386.9,473.9,386.3,473.6,385.8,473.3z"/>
<path fill="#FFFFFF" d="M393.3,469.2c-1.5,0.1-2.9-0.3-4.2-1.1L281.4,406c-3.5-2-5-6.4-3.4-10.1l34.3-83.1c1.2-2.9,4.1-4.9,7.3-4.8
	c1.4,0,2.7,0.4,3.9,1.1l107.7,62.1c3.5,2,5,6.4,3.4,10.1l-34,82.6C399.3,466.8,396.6,468.9,393.3,469.2z"/>
<g>
	<defs>
		<polygon id="SVGID_1_" points="331,397.6 345.8,362.4 380,380.7 365.2,416 		"/>
	</defs>
	<clipPath id="SVGID_2_">
		<use xlink:href="#SVGID_1_"  overflow="visible"/>
	</clipPath>
	<path clip-path="url(#SVGID_2_)" fill="#0055FF" d="M360.9,370.5c-2.9-1.6-6.3-2.1-9.6-1.6l2,8.4c1.5-0.1,3,0.3,4.3,1
		c1.3,0.7,2.4,1.7,3.2,2.9l6.8-4C366.1,374.4,363.8,372.1,360.9,370.5"/>
	<path clip-path="url(#SVGID_2_)" fill="#0055FF" d="M370.1,383.7l-0.1,0l-12.4,7.4l0,0l-0.1,0.2c0,0.1,0,0.2,0.1,0.2l3.8,2
		l-0.2,0.3c-1.4,2.7-4,4.5-7,4.9l-0.1,0H354c-1.6,0.1-3.1-0.2-4.5-0.9c-3.7-2-5.7-6.4-5-11c0.1-1,0.4-2,0.8-3
		c0.5-1.2,1.2-2.4,2.1-3.3l-3-8.3c-2.7,2.1-4.8,4.8-6,7.9c-4.1,9.7-0.6,21.2,7.7,25.7c3.8,2.1,8.3,2.4,12.3,0.8
		c4.2-1.7,7.7-4.9,9.6-9.1l0.1-0.2l3.8,2c0.1,0,0.2,0,0.2,0l0.1-0.2v0l-2-15.1L370.1,383.7L370.1,383.7"/>
</g>
<path fill="#0055FF" d="M728.5,679.7L477.5,534.7l249.5-143.9L978,535.8L728.5,679.7z"/>
<path fill="#FFFFFF" d="M728.5,679.7v0.8l0,171.2h-251l0-111.4v-37.8l0-49.2v0l0-70.5l0-48.1v0h0l39.6,22.9l42.9,24.8h0l43.7,25.3
	l23.1,13.3l13.5,7.8h0v0l32.1,18.5l5.6,3.2l10.2,5.9l0,0l2.8,1.6L728.5,679.7z"/>
<path fill="#F0A77A" d="M588,673.6c0.2,0,0.3,0,0.5,0.1c-0.2,0-0.5-0.1-0.7-0.1C587.8,673.6,587.9,673.6,588,673.6z"/>
<path fill="#F0A77A" d="M653.7,769.4l0,82.3H552.2l0-33.3v0l0-112.5c0-0.5,0-1,0-1.4c0-0.2,0-0.5,0-0.7c0-0.4,0.1-0.8,0.1-1.1
	c0-0.1,0-0.2,0-0.3c0.1-0.5,0.1-1.1,0.2-1.6s0.2-1.1,0.3-1.6c0-0.1,0-0.2,0-0.2c0.1-0.5,0.2-0.9,0.3-1.4c0-0.1,0-0.1,0-0.1
	c0.1-0.5,0.3-1,0.4-1.5c0-0.1,0-0.1,0-0.1c0.2-0.5,0.3-0.9,0.5-1.4c0.1-0.4,0.3-0.7,0.4-1.1c0.1-0.3,0.3-0.7,0.4-1
	c0-0.1,0-0.1,0.1-0.2c0.2-0.3,0.3-0.7,0.5-1c0.4-0.8,0.8-1.5,1.3-2.3c0.2-0.3,0.4-0.7,0.7-1c0.2-0.3,0.3-0.5,0.5-0.8
	c0.1-0.2,0.3-0.4,0.5-0.6c0.2-0.2,0.4-0.5,0.6-0.7c0.3-0.3,0.5-0.7,0.8-1c0.5-0.7,1.1-1.3,1.7-1.9c0.3-0.3,0.6-0.6,0.9-0.9
	s0.6-0.6,1-0.8c1-0.8,2-1.6,3-2.3c0.3-0.2,0.6-0.4,0.8-0.5c0.1-0.1,0.2-0.2,0.4-0.2c0.2-0.2,0.5-0.3,0.8-0.4
	c1.2-0.7,2.3-1.3,3.6-1.8c0.4-0.2,0.8-0.3,1.2-0.5s0.8-0.3,1.2-0.4s0.8-0.3,1.2-0.4s0.8-0.2,1.2-0.3c0.4-0.1,0.9-0.2,1.4-0.3
	c0.4-0.1,0.8-0.2,1.2-0.2c0.4-0.1,0.7-0.1,1.1-0.2c0.1,0,0.2,0,0.2,0c0.4,0,0.8-0.1,1.1-0.1c0.9-0.1,1.7-0.1,2.6-0.1
	c0.5,0,1,0,1.4,0c0.5,0,1.1,0.1,1.6,0.1c0.1,0,0.2,0,0.3,0c0.2,0,0.3,0,0.5,0.1c0.4,0,0.9,0.1,1.3,0.2c0.5,0.1,1,0.2,1.5,0.3h0
	c0.5,0.1,1.1,0.2,1.6,0.4c0.4,0.1,0.9,0.2,1.3,0.4c0.2,0.1,0.5,0.2,0.7,0.2c0.4,0.1,0.8,0.3,1.3,0.5c0.5,0.2,1.1,0.4,1.6,0.7
	c0.1,0,0.1,0.1,0.2,0.1c0.4,0.2,0.8,0.4,1.2,0.6c0.6,0.3,1.2,0.6,1.7,0.9c1.6,0.9,3.2,1.9,4.8,2.9c0.6,0.4,1.2,0.8,1.8,1.2
	c0.3,0.2,0.7,0.4,1,0.7c0.4,0.3,0.8,0.6,1.2,0.8c0.8,0.5,1.5,1.1,2.3,1.7c0.6,0.4,1.2,0.9,1.7,1.4c0.6,0.4,1.1,0.9,1.7,1.4
	c0.5,0.4,0.9,0.8,1.4,1.2c1.4,1.2,2.8,2.4,4.1,3.7c0.7,0.6,1.3,1.3,2,1.9c1.9,1.9,3.8,4,5.6,6c0.4,0.5,0.9,1,1.3,1.6
	c0,0.1,0.1,0.1,0.2,0.2c0.5,0.6,1,1.2,1.4,1.8c0.2,0.3,0.5,0.6,0.7,0.9c0.4,0.5,0.7,1,1.1,1.4c0.1,0.2,0.3,0.3,0.4,0.5
	c0.2,0.2,0.3,0.5,0.5,0.7c0.4,0.6,0.8,1.1,1.2,1.7c0.5,0.7,1,1.4,1.5,2.2c0.1,0.1,0.2,0.2,0.2,0.4c0.4,0.7,0.9,1.4,1.3,2.1
	c0.1,0.2,0.2,0.3,0.3,0.5c0.3,0.5,0.6,0.9,0.8,1.4c0.3,0.5,0.6,1.1,0.9,1.6c0.4,0.7,0.7,1.3,1.1,2c0.3,0.6,0.7,1.3,1,1.9
	c0.3,0.5,0.5,1,0.7,1.5c0.2,0.3,0.3,0.6,0.5,1c0.2,0.5,0.4,0.9,0.7,1.4c0.2,0.5,0.5,1,0.7,1.6c0.2,0.5,0.4,0.9,0.6,1.4
	s0.4,0.9,0.6,1.4c0.2,0.4,0.3,0.7,0.4,1.1c0.2,0.6,0.5,1.1,0.7,1.7c1.1,3,2.1,6.1,2.9,9.2c0.2,0.8,0.5,1.7,0.6,2.5
	c0.5,1.8,0.9,3.7,1.2,5.5c0.1,0.5,0.2,0.9,0.2,1.4c0.1,0.5,0.2,1.1,0.3,1.6c0.1,0.6,0.2,1.2,0.3,1.8c0.1,0.3,0.1,0.7,0.1,1
	c0.1,0.5,0.2,1.1,0.2,1.6c0.1,0.9,0.2,1.9,0.3,2.8C653.5,763.2,653.7,766.3,653.7,769.4z"/>
<path fill="#F0A77A" d="M622.8,694.7c1.9,1.9,3.8,4,5.6,6C626.6,698.7,624.7,696.6,622.8,694.7z"/>
<path fill="#F0A77A" d="M628.4,700.7c1,1.2,2,2.4,2.9,3.6C630.3,703.1,629.4,701.9,628.4,700.7z"/>
<path fill="#F0A77A" d="M635.1,709.6c-0.8-1.1-1.6-2.3-2.4-3.4c0.2,0.3,0.5,0.6,0.7,1C634,708,634.6,708.8,635.1,709.6z"/>
<path fill="#F0A77A" d="M632.7,706.2c-0.5-0.6-0.9-1.3-1.4-1.9C631.7,704.9,632.2,705.6,632.7,706.2z"/>
<path fill="#FFC294" d="M797.6,523.3l0,47.1l-46.6,26.9l0-47.1L797.6,523.3z"/>
<path fill="#FCD3A2" d="M797.6,523.3l-46.6,26.9L660,497.7l-40.7-23.6l46.6-26.9L797.6,523.3z"/>
<path fill="#EFF3F9" d="M619.3,521.2l131.6,76.1l0-47.1l-131.6-76.1L619.3,521.2z"/>
<path fill="#FFC294" d="M978,535.8l-0.1,315.9H728.4l0-171.2v-0.8l0,0l0.5-0.3L978,535.8z"/>
<path fill="#FCD027" d="M729.7,679.8L701.6,696c-18.4,10.6-29.8,50.6-29.8,50.6c-10.4-6-18.8,8.4-29.2,2.4s-2.1-20.5-12.5-26.5
	s-18.8,8.4-29.2,2.4s-2.1-20.4-12.5-26.5c-0.4-0.2-0.9-0.5-1.3-0.7c-0.3-0.1-0.6-0.3-1-0.4c-9.1-2.9-16.7,8.2-26,3.9
	c-0.8-0.3-1.5-0.6-2.3-1c-10.4-6-2.1-20.5-12.5-26.5c-0.3-0.2-0.6-0.3-0.8-0.4c-9.3-4.5-17,6.8-26.1,3.8c-0.8-0.3-1.5-0.6-2.2-1
	c-8.7-5-4.3-16-8.7-22.9c-0.8-1.2-1.8-2.3-3-3.1c-0.2-0.2-0.5-0.3-0.7-0.5c-10.4-6-18.7,8.4-29.2,2.4s-2.1-20.4-12.5-26.5
	s-18.7,8.4-29.2,2.4s-2.7-20-13.1-26V602c0-21.2,11.3-40.8,29.7-51.4l28.1-16.2l84.4,48.8l0.2-0.1L729.7,679.8z"/>
<path fill="#FFFFFF" d="M546.9,674.3l-1.2,0c0.6-21.2,12.3-40.9,30.7-51.5l27.8-16l0.6,1.1l-27.8,16
	C558.9,634.3,547.4,653.6,546.9,674.3z"/>
<path fill="#FFFFFF" d="M503.6,649.4l-1.2,0c0.4-21.4,12.1-41.4,30.7-52.1l27-15.6l0.6,1.1l-27,15.6
	C515.5,608.8,504,628.4,503.6,649.4z"/>
<path fill="#FFFFFF" d="M460.3,624.6l-1.2,0c0.4-21.3,12.2-41.2,30.7-51.9l27.5-15.9l0.6,1.1l-27.5,15.9
	C472.2,584.2,460.7,603.7,460.3,624.6z"/>
<path fill="#FFFFFF" d="M588.8,700.2l-0.1-0.8l0.1,0c0.3-21.6,12-41.6,30.7-52.4l27.2-15.7l0.6,1.1l-27.2,15.7
	c-18.5,10.7-30.1,30.6-30.1,52L588.8,700.2z"/>
<path fill="#FFFFFF" d="M631.5,723l-1.2,0c0.6-21.2,12.3-40.9,30.7-51.5l27.5-15.9l0.6,1.1l-27.5,15.9
	C643.6,682.9,632.1,702.3,631.5,723z"/>
<path fill="#FFFFFF" d="M359.8,689.6l116.4,67.3l0-42.8l-116.4-67.3L359.8,689.6z"/>
<path fill="#EFF3F9" d="M495.7,702.6l0.5,43.4l-20,11l0-42.8L495.7,702.6z"/>
<ellipse transform="matrix(0.8638 -0.5039 0.5039 0.8638 -293.7963 297.8686)" fill="#EFF3F9" cx="404" cy="692.3" rx="44.5" ry="77.2"/>
<ellipse transform="matrix(0.8638 -0.5039 0.5039 0.8638 -294.7033 294.5057)" fill="#FFFFFF" cx="397.3" cy="692.3" rx="44.5" ry="77.2"/>
<path fill="#1261FF" d="M376,654.3c4.9-0.9,10.7,0.4,16.6,3.9c6,3.6,11.3,8.3,15.5,13.9l-8.3,7.4c-2.1-2.4-4.5-4.4-7.2-6
	c-2.3-1.4-4.9-2.2-7.6-2.3L376,654.3z"/>
<path fill="#0055FF" d="M392.6,727.3c-16.6-9.6-30.1-32.9-30.1-51.9c0-6.4,1.5-11.7,4.4-15.4l10.5,16.8c-0.9,2-1.3,4.2-1.2,6.4
	c0,2,0.3,4,0.7,5.9c2.1,9.2,8.4,18.2,15.7,22.4c2.4,1.5,5.2,2.3,8,2.2l0.1,0c0.1,0,0.1,0,0.2,0c4.4-0.4,7.4-3.8,8.1-9.2l0.1-0.6
	l-7.6-4.4c-0.2-0.1-0.3-0.3-0.3-0.4c0-0.1-0.1-0.3,0.1-0.4l0,0l15.2-13.7c0.1,0,0.2,0,0.2,0c0,0,0.1,0.1,0.1,0.1
	c0,0,0.1,0.1,0.1,0.1l13.6,30.3l0,0.1c0.1,0.1,0.1,0.3,0.1,0.5c0,0-0.1,0.2-0.3,0.1l-7.6-4.4l0,0.5c-0.5,8.4-3.9,14.6-9.5,17.3
	C407.5,732.6,400.2,731.7,392.6,727.3L392.6,727.3z"/>
<path fill="#FFC294" d="M503.9,502.9L503.9,502.9L503.9,502.9L503.9,502.9z"/>
<path fill="#FFFFFF" d="M503.9,502.9L503.9,502.9L503.9,502.9C503.8,502.9,503.8,502.9,503.9,502.9z"/>
</svg>
