<?xml version="1.0" encoding="utf-8"?>
<svg width="28.8" height="18.3" version="1.1" xmlns="http://www.w3.org/2000/svg" xmlns:xlink="http://www.w3.org/1999/xlink" x="0px" y="0px" viewBox="0 0 28.8 18.3" style="enable-background:new 0 0 28.8 18.3;" xml:space="preserve">
    <path fill="#C6CFD9" d="M9.9,0L0,9.3l9.9,9h18.9V0H9.9z M23.2,13.1c-0.1,0.1-0.3,0.2-0.5,0.2s-0.4-0.1-0.5-0.2L19.1,10l-3.1,3.1 c-0.1,0.1-0.3,0.2-0.5,0.2s-0.4-0.1-0.5-0.2c-0.3-0.3-0.3-0.7,0-1l3.1-3.1L15.1,6c-0.3-0.3-0.3-0.7,0-1s0.7-0.3,1,0l3.1,3.1L22.2,5 c0.3-0.3,0.7-0.3,1,0s0.3,0.7,0,1l-3.1,3.1l3.1,3.1C23.5,12.4,23.5,12.8,23.2,13.1z"/>
</svg>