<?xml version="1.0" encoding="utf-8"?>
<!-- Generator: Adobe Illustrator 23.0.0, SVG Export Plug-In . SVG Version: 6.00 Build 0)  -->
<svg version="1.1" id="Layer_1" xmlns="http://www.w3.org/2000/svg" xmlns:xlink="http://www.w3.org/1999/xlink" x="0px" y="0px"
	 viewBox="0 0 1090.9 871.8" enable-background="new 0 0 1090.9 871.8" xml:space="preserve">
<g>
	<g id="Group_4314" transform="translate(97.754 106.307)" opacity="0.53">
		<path id="Path_1775" fill="#93AEE6" d="M101.6,50.8c0-28-22.7-50.8-50.8-50.8S0,22.7,0,50.8l0,0c0,28,50.8,91.1,50.8,91.1
			S101.6,78.8,101.6,50.8z"/>
		<path id="Path_1776" fill="#4080FF" d="M69.2,50.8c0,7.8-4.9,14.8-12.3,17.4c-1.9,0.7-4,1.1-6.1,1.1c-10.2,0-18.4-8.2-18.4-18.4
			s8.2-18.4,18.4-18.4l0,0c2.1,0,4.1,0.3,6.1,1.1C64.3,36,69.2,43,69.2,50.8z"/>
		<path id="Path_1777" fill="#C8C9E2" d="M69.2,50.8c0,7.8-4.9,14.8-12.3,17.4c-9.6-3.3-14.7-13.8-11.4-23.3
			c1.8-5.3,6-9.5,11.4-11.4C64.3,36,69.2,43,69.2,50.8z"/>
	</g>
	<g id="Group_4315" transform="translate(298.668 106.307)" opacity="0.53">
		<path id="Path_1775-2" fill="#93AEE6" d="M101.6,50.8c0-28-22.7-50.8-50.8-50.8S0,22.7,0,50.8l0,0c0,28,50.8,91.1,50.8,91.1
			S101.6,78.8,101.6,50.8z"/>
		<path id="Path_1776-2" fill="#4080FF" d="M69.2,50.8c0,7.8-4.9,14.8-12.3,17.4c-1.9,0.7-4,1.1-6.1,1.1c-10.2,0-18.4-8.2-18.4-18.4
			s8.2-18.4,18.4-18.4l0,0c2.1,0,4.1,0.3,6.1,1.1C64.3,36,69.2,43,69.2,50.8z"/>
		<path id="Path_1777-2" fill="#C8C9E2" d="M69.2,50.8c0,7.8-4.9,14.8-12.3,17.4c-9.6-3.3-14.7-13.8-11.4-23.3
			c1.8-5.3,6-9.5,11.4-11.4C64.3,36,69.2,43,69.2,50.8z"/>
	</g>
	<g id="Group_3909" transform="translate(171.412 31.429)">
		<path id="Path_1775-3" fill="#FFFFFF" d="M155.2,77.6C155.2,34.7,120.5,0,77.6,0C34.8,0,0,34.7,0,77.6l0,0
			c0,42.8,77.6,139.2,77.6,139.2S155.2,120.4,155.2,77.6z"/>
		<path id="Path_1776-3" fill="#4080FF" d="M105.7,77.6c0,12-7.6,22.6-18.9,26.5c-3,1.1-6.1,1.6-9.3,1.6
			c-15.5,0-28.1-12.6-28.1-28.1S62,49.5,77.6,49.5c3.2,0,6.3,0.5,9.3,1.6C98.2,55,105.7,65.6,105.7,77.6z"/>
		<path id="Path_1777-3" fill="#C8C9E2" d="M105.7,77.6c0,12-7.6,22.6-18.9,26.5c-14.6-5.1-22.4-21-17.4-35.7
			c2.8-8.2,9.2-14.6,17.4-17.4C98.2,55,105.7,65.6,105.7,77.6z"/>
	</g>
</g>
<g id="Group_6704">
	<path id="Path_2311" fill="#0055FF" d="M686.3,593L279.5,357.8L684,124.5l406.9,235.2L686.3,593z"/>
	<path id="Path_2312" fill="#FFFFFF" d="M686.4,592.9v1.4l-0.1,277.5H279.4V691.2v-61.3v-79.8l0,0V435.7v-78v-0.1l0,0l64.3,37.2
		l69.5,40.2l0,0l70.9,41l37.4,21.6l21.9,12.7l0,0l0,0l52,30l9.1,5.2L621,555l0,0l4.5,2.6L686.4,592.9z"/>
	<path id="Path_2313" fill="#F0A77A" d="M458.6,583c0.3,0,0.5,0.1,0.8,0.1c-0.4-0.1-0.8-0.1-1.2-0.1C458.3,583,458.4,583,458.6,583z
		"/>
	<path id="Path_2314" fill="#F0A77A" d="M565,738.4v133.4H400.5v-54l0,0V635.3c0-0.8,0-1.5,0-2.3c0-0.4,0-0.8,0.1-1.1
		c0-0.6,0.1-1.2,0.2-1.9c0-0.2,0-0.3,0-0.5c0.1-0.9,0.2-1.7,0.3-2.6c0.1-0.9,0.3-1.7,0.5-2.5c0-0.1,0-0.2,0.1-0.4
		c0.2-0.8,0.3-1.5,0.5-2.2c0-0.1,0-0.2,0.1-0.2c0.2-0.8,0.4-1.6,0.7-2.4c0-0.1,0-0.2,0.1-0.2c0.2-0.8,0.5-1.5,0.8-2.2
		c0.2-0.6,0.4-1.2,0.7-1.7c0.2-0.6,0.4-1.1,0.7-1.7c0-0.1,0.1-0.2,0.1-0.3c0.2-0.6,0.5-1.1,0.8-1.7c0.6-1.3,1.3-2.5,2.1-3.7
		c0.3-0.6,0.7-1.1,1.1-1.6c0.3-0.4,0.6-0.9,0.9-1.3c0.2-0.3,0.5-0.7,0.7-1c0.3-0.4,0.6-0.8,0.9-1.2c0.4-0.5,0.9-1.1,1.3-1.6
		c0.9-1.1,1.8-2.1,2.8-3c0.5-0.5,1-0.9,1.5-1.4s1-0.9,1.5-1.3c1.6-1.3,3.2-2.6,4.9-3.7c0.4-0.3,0.9-0.6,1.4-0.9
		c0.2-0.1,0.4-0.3,0.6-0.4c0.4-0.2,0.8-0.5,1.2-0.7c1.9-1.1,3.8-2,5.8-2.8c0.7-0.3,1.3-0.5,1.9-0.8c0.6-0.2,1.3-0.5,1.9-0.7
		c0.7-0.2,1.3-0.4,2-0.6c0.7-0.2,1.3-0.4,2-0.5c0.7-0.2,1.5-0.3,2.2-0.5c0.6-0.1,1.3-0.2,1.9-0.3c0.6-0.1,1.2-0.2,1.8-0.3
		c0.1,0,0.2,0,0.4,0c0.6-0.1,1.2-0.1,1.9-0.2c1.4-0.1,2.8-0.2,4.3-0.2c0.8,0,1.5,0,2.3,0.1c0.9,0,1.7,0.1,2.6,0.2c0.1,0,0.3,0,0.4,0
		c0.3,0,0.5,0,0.8,0.1c0.7,0.1,1.4,0.2,2.1,0.3c0.8,0.1,1.6,0.3,2.4,0.4l0,0c0.9,0.2,1.7,0.4,2.6,0.6c0.7,0.2,1.4,0.4,2.1,0.6
		c0.4,0.1,0.8,0.2,1.1,0.4c0.7,0.2,1.4,0.5,2.1,0.7c0.9,0.3,1.7,0.7,2.6,1.1c0.1,0,0.2,0.1,0.3,0.1c0.7,0.3,1.3,0.6,2,0.9
		c0.9,0.5,1.9,1,2.8,1.5c2.6,1.5,5.2,3.1,7.8,4.8c1,0.6,2,1.3,3,2c0.5,0.3,1.1,0.7,1.6,1.1c0.7,0.4,1.3,0.9,1.9,1.4
		c1.3,0.9,2.5,1.8,3.7,2.7c0.9,0.7,1.9,1.4,2.8,2.2c0.9,0.7,1.8,1.4,2.8,2.2c0.8,0.6,1.5,1.3,2.3,1.9c2.3,1.9,4.5,3.9,6.6,6
		c1.1,1,2.1,2.1,3.2,3.1c3.1,3.2,6.1,6.4,9,9.8c0.7,0.8,1.4,1.7,2.1,2.6c0.1,0.1,0.2,0.2,0.2,0.3c0.8,1,1.5,1.9,2.3,2.9
		c0.4,0.5,0.8,1,1.2,1.5c0.6,0.8,1.2,1.5,1.7,2.3c0.2,0.3,0.4,0.5,0.6,0.8c0.3,0.4,0.5,0.7,0.8,1.1c0.7,0.9,1.3,1.8,1.9,2.8
		c0.8,1.2,1.6,2.3,2.4,3.5c0.2,0.2,0.3,0.4,0.4,0.6c0.7,1.1,1.4,2.2,2.1,3.4c0.2,0.2,0.3,0.5,0.5,0.8c0.5,0.8,0.9,1.5,1.4,2.3
		c0.5,0.9,1,1.7,1.5,2.6c0.6,1.1,1.2,2.2,1.8,3.3c0.6,1,1.1,2.1,1.6,3.1c0.4,0.8,0.8,1.6,1.2,2.4c0.3,0.5,0.5,1,0.7,1.5
		c0.4,0.8,0.7,1.5,1.1,2.3c0.4,0.8,0.8,1.7,1.1,2.5c0.3,0.7,0.6,1.5,1,2.2c0.3,0.8,0.7,1.5,0.9,2.3c0.3,0.6,0.5,1.2,0.7,1.8
		c0.4,0.9,0.7,1.9,1.1,2.8c1.8,4.9,3.4,9.8,4.7,14.9c0.4,1.3,0.7,2.7,1.1,4.1c0.7,3,1.4,6,1.9,9c0.1,0.8,0.3,1.5,0.4,2.3
		c0.2,0.9,0.3,1.7,0.4,2.6c0.2,0.9,0.3,1.9,0.4,2.8c0.1,0.5,0.2,1.1,0.2,1.6c0.1,0.9,0.2,1.8,0.3,2.6c0.2,1.5,0.3,3,0.5,4.5
		C564.8,728.4,565,733.4,565,738.4z"/>
	<path id="Path_2315" fill="#F0A77A" d="M515,617.3c3.2,3.1,6.2,6.4,9,9.8C521.1,623.7,518.1,620.4,515,617.3z"/>
	<path id="Path_2316" fill="#F0A77A" d="M524,627c1.6,1.9,3.2,3.8,4.7,5.8C527.2,630.9,525.6,628.9,524,627z"/>
	<path id="Path_2317" fill="#F0A77A" d="M535,641.4c-1.3-1.9-2.6-3.7-3.9-5.5c0.4,0.5,0.8,1.1,1.2,1.6
		C533.2,638.8,534.1,640.1,535,641.4z"/>
	<path id="Path_2318" fill="#F0A77A" d="M531,635.9c-0.8-1-1.5-2.1-2.3-3.1C529.5,633.8,530.3,634.9,531,635.9z"/>
	<g id="Group_6703" transform="translate(323.173 91.574)">
		<path id="Path_2319" fill="#FFC294" d="M475.2,247.9v76.3l-75.6,43.6v-76.3L475.2,247.9z"/>
		<path id="Path_2320" fill="#FCD3A2" d="M475.2,247.8l-75.6,43.7l-147.4-85.2l-66.1-38.2l75.6-43.6L475.2,247.8z"/>
		<path id="Path_2321" fill="#EFF3F9" d="M186.1,244.4l213.4,123.4v-76.3L186.1,168.1V244.4z"/>
	</g>
	<path id="Path_2322" fill="#FFC294" d="M1090.9,359.7l-0.1,512.2H686.3l0.1-277.5V593l0,0l0.8-0.5L1090.9,359.7z"/>
	<path id="Path_2323" fill="#FCD027" d="M688.4,593.2l-45.5,26.3c-29.8,17.2-48.3,82-48.3,82c-16.9-9.8-30.4,13.6-47.3,3.9
		c-16.9-9.7-3.4-33.2-20.3-42.9c-16.9-9.8-30.4,13.6-47.3,3.9c-16.9-9.8-3.4-33.1-20.2-42.9c-0.7-0.4-1.4-0.8-2.1-1.1
		c-0.5-0.2-1-0.4-1.6-0.6c-14.7-4.7-27.1,13.4-42.1,6.3c-1.3-0.4-2.5-1-3.7-1.6c-16.9-9.8-3.4-33.2-20.3-42.9
		c-0.5-0.3-0.9-0.5-1.4-0.7c-15.1-7.2-27.5,11-42.3,6.2c-1.3-0.4-2.5-1-3.6-1.6c-14.1-8.2-6.9-25.9-14.1-37.2c-1.3-2-2.9-3.7-4.9-5
		c-0.4-0.3-0.8-0.5-1.2-0.7c-16.9-9.7-30.4,13.6-47.3,3.9s-3.4-33.1-20.2-42.9s-30.4,13.6-47.3,3.9s-4.4-32.5-21.3-42.3V467
		c0-34.4,18.4-66.2,48.2-83.3l45.6-26.3l136.9,79.1l0.4-0.2L688.4,593.2z"/>
	<path id="Path_2324" fill="none" stroke="#FFFFFF" stroke-width="1.24" stroke-miterlimit="10" d="M390.9,584.2
		c0.9-34.2,19.6-65.5,49.2-82.6l45-26"/>
	<path id="Path_2325" fill="none" stroke="#FFFFFF" stroke-width="1.24" stroke-miterlimit="10" d="M320.8,543.7
		c0.6-34.6,19.3-66.4,49.2-83.7l43.7-25.2"/>
	<path id="Path_2326" fill="none" stroke="#FFFFFF" stroke-width="1.24" stroke-miterlimit="10" d="M250.5,503.7
		c0.7-34.5,19.4-66.1,49.2-83.3l44.5-25.7"/>
	<path id="Path_2327" fill="none" stroke="#FFFFFF" stroke-width="1.24" stroke-miterlimit="10" d="M460.7,624.7l0.2,1.3
		c0-35.2,18.8-67.6,49.2-85.2l44-25.4"/>
	<path id="Path_2328" fill="none" stroke="#FFFFFF" stroke-width="1.24" stroke-miterlimit="10" d="M528.1,663.1
		c0.9-34.2,19.6-65.5,49.2-82.6l44.7-25.8"/>
</g>
<path fill="#FFFFFF" d="M88.5,609l188.7,109v-69.5l-188.7-109V609z"/>
<path fill="#EFF3F9" d="M308.8,629.9l0.8,70.3L277.2,718v-69.4L308.8,629.9z"/>
<path fill="#EFF3F9" d="M97.2,505.3c34.4-20.1,90.6,12,125.4,71.7c34.8,59.7,35.1,124.3,0.7,144.4s-90.6-12-125.4-71.7
	S62.7,525.4,97.2,505.3z"/>
<path fill="#FFFFFF" d="M86.4,505.3c34.4-20.1,90.6,12,125.4,71.7s35.1,124.3,0.7,144.4c-34.4,20.1-90.6-12-125.4-71.7
	C52.2,590,51.9,525.4,86.4,505.3z"/>
<path fill="#1261FF" d="M114.8,551.7c8-1.5,17.3,0.7,26.9,6.3c8.9,5.2,17.6,12.9,25.2,22.6l-13.4,12c-3.3-3.8-7.2-7.1-11.6-9.7
	c-3.7-2.3-8-3.6-12.4-3.7L114.8,551.7z M141.6,670c-26.9-15.6-48.7-53.3-48.7-84.2c0-10.3,2.5-18.9,7.1-25l17,27.3
	c-1.4,3.3-2.1,6.9-2,10.5c0,3.2,0.4,6.5,1.2,9.6c3.4,15,13.7,29.6,25.5,36.4c4.5,2.6,9,3.9,12.9,3.6h0.1c0.1,0,0.2,0,0.3,0
	c7.1-0.6,12-6.2,13.1-14.8l0.1-0.9l-12.3-7.1c-0.2-0.2-0.4-0.4-0.5-0.7c0-0.1-0.1-0.5,0.1-0.6l0,0l24.6-22.2c0.1,0,0.3,0,0.4,0.1
	c0.1,0,0.1,0.1,0.2,0.2s0.1,0.1,0.2,0.2l22.1,49.2v0.1c0.2,0.2,0.2,0.5,0.1,0.8c0,0.1-0.2,0.3-0.5,0.1l-12.2-7.3v0.8
	c-0.9,13.6-6.3,23.6-15.3,28.1C165.9,678.7,154.1,677.2,141.6,670L141.6,670z"/>
</svg>
