<?xml version="1.0" encoding="utf-8"?>
<!-- Generator: Adobe Illustrator 23.0.0, SVG Export Plug-In . SVG Version: 6.00 Build 0)  -->
<svg version="1.1" id="Layer_1" xmlns="http://www.w3.org/2000/svg" xmlns:xlink="http://www.w3.org/1999/xlink" x="0px" y="0px"
	 viewBox="0 0 302.3 216.8" enable-background="new 0 0 302.3 216.8" xml:space="preserve">
<g>
	<g id="Group_4314" transform="translate(97.754 106.307)" opacity="0.53">
		<path id="Path_1775" fill="#93AEE6" d="M3.8,19.4c0-28-22.7-50.8-50.8-50.8S-97.8-8.7-97.8,19.4l0,0c0,28,50.8,91.1,50.8,91.1
			S3.8,47.4,3.8,19.4z"/>
		<path id="Path_1776" fill="#4080FF" d="M-28.6,19.4c0,7.8-4.9,14.8-12.3,17.4c-1.9,0.7-4,1.1-6.1,1.1c-10.2,0-18.4-8.2-18.4-18.4
			S-57.2,1.1-47,1.1l0,0c2.1,0,4.1,0.3,6.1,1.1C-33.5,4.6-28.6,11.6-28.6,19.4z"/>
		<path id="Path_1777" fill="#C8C9E2" d="M-28.6,19.4c0,7.8-4.9,14.8-12.3,17.4c-9.6-3.3-14.7-13.8-11.4-23.3
			c1.8-5.3,6-9.5,11.4-11.4C-33.5,4.6-28.6,11.6-28.6,19.4z"/>
	</g>
	<g id="Group_4315" transform="translate(298.668 106.307)" opacity="0.53">
		<path id="Path_1775-2" fill="#93AEE6" d="M3.8,19.4c0-28-22.7-50.8-50.8-50.8S-97.8-8.7-97.8,19.4l0,0c0,28,50.8,91.1,50.8,91.1
			S3.8,47.4,3.8,19.4z"/>
		<path id="Path_1776-2" fill="#4080FF" d="M-28.6,19.4c0,7.8-4.9,14.8-12.3,17.4c-1.9,0.7-4,1.1-6.1,1.1
			c-10.2,0-18.4-8.2-18.4-18.4S-57.2,1.1-47,1.1l0,0c2.1,0,4.1,0.3,6.1,1.1C-33.5,4.6-28.6,11.6-28.6,19.4z"/>
		<path id="Path_1777-2" fill="#C8C9E2" d="M-28.6,19.4c0,7.8-4.9,14.8-12.3,17.4c-9.6-3.3-14.7-13.8-11.4-23.3
			c1.8-5.3,6-9.5,11.4-11.4C-33.5,4.6-28.6,11.6-28.6,19.4z"/>
	</g>
	<g id="Group_3909" transform="translate(171.412 31.429)">
		<path id="Path_1775-3" fill="#FFFFFF" d="M57.4,46.2c0-42.9-34.7-77.6-77.6-77.6c-42.8,0-77.6,34.7-77.6,77.6l0,0
			c0,42.8,77.6,139.2,77.6,139.2S57.4,89,57.4,46.2z"/>
		<path id="Path_1776-3" fill="#4080FF" d="M7.9,46.2c0,12-7.6,22.6-18.9,26.5c-3,1.1-6.1,1.6-9.3,1.6c-15.5,0-28.1-12.6-28.1-28.1
			s12.6-28.1,28.2-28.1c3.2,0,6.3,0.5,9.3,1.6C0.4,23.6,7.9,34.2,7.9,46.2z"/>
		<path id="Path_1777-3" fill="#C8C9E2" d="M7.9,46.2c0,12-7.6,22.6-18.9,26.5c-14.6-5.1-22.4-21-17.4-35.7
			c2.8-8.2,9.2-14.6,17.4-17.4C0.4,23.6,7.9,34.2,7.9,46.2z"/>
	</g>
</g>
</svg>
