<svg xmlns="http://www.w3.org/2000/svg" xmlns:xlink="http://www.w3.org/1999/xlink" width="498" height="760" viewBox="0 0 498 760">
  <defs>
    <clipPath id="clip-path">
      <rect id="Rectangle_2689" data-name="Rectangle 2689" width="498" height="760" fill="#dadbf1"/>
    </clipPath>
  </defs>
  <g id="Mask_Group_1" data-name="Mask Group 1" clip-path="url(#clip-path)">
    <g id="Group_4314" data-name="Group 4314" transform="translate(97.754 106.307)" opacity="0.53">
      <path id="Path_1775" data-name="Path 1775" d="M645.846,138.5a50.789,50.789,0,1,0-101.578,0c0,28.048,50.788,91.128,50.788,91.128S645.846,166.543,645.846,138.5Z" transform="translate(-544.268 -87.705)" fill="#93aee6"/>
      <path id="Path_1776" data-name="Path 1776" d="M593.054,118.077a18.324,18.324,0,0,1-12.35,17.361,17.323,17.323,0,0,1-6.067,1.056,18.417,18.417,0,1,1,0-36.834,17.321,17.321,0,0,1,6.067,1.056A18.324,18.324,0,0,1,593.054,118.077Z" transform="translate(-523.849 -67.281)" fill="#4080ff"/>
      <path id="Path_1777" data-name="Path 1777" d="M585.417,117.411a18.324,18.324,0,0,1-12.35,17.361,18.364,18.364,0,0,1,0-34.721A18.324,18.324,0,0,1,585.417,117.411Z" transform="translate(-516.213 -66.615)" fill="#c8c9e2"/>
    </g>
    <g id="Group_4315" data-name="Group 4315" transform="translate(298.668 106.307)" opacity="0.53">
      <path id="Path_1775-2" data-name="Path 1775" d="M645.846,138.5a50.789,50.789,0,1,0-101.578,0c0,28.048,50.788,91.128,50.788,91.128S645.846,166.543,645.846,138.5Z" transform="translate(-544.268 -87.705)" fill="#93aee6"/>
      <path id="Path_1776-2" data-name="Path 1776" d="M593.054,118.077a18.324,18.324,0,0,1-12.35,17.361,17.323,17.323,0,0,1-6.067,1.056,18.417,18.417,0,1,1,0-36.834,17.321,17.321,0,0,1,6.067,1.056A18.324,18.324,0,0,1,593.054,118.077Z" transform="translate(-523.849 -67.281)" fill="#4080ff"/>
      <path id="Path_1777-2" data-name="Path 1777" d="M585.417,117.411a18.324,18.324,0,0,1-12.35,17.361,18.364,18.364,0,0,1,0-34.721A18.324,18.324,0,0,1,585.417,117.411Z" transform="translate(-516.213 -66.615)" fill="#c8c9e2"/>
    </g>
    <g id="Group_3909" data-name="Group 3909" transform="translate(171.412 31.429)">
      <path id="Path_1775-3" data-name="Path 1775" d="M699.44,165.293a77.586,77.586,0,1,0-155.172,0c0,42.846,77.584,139.209,77.584,139.209S699.44,208.139,699.44,165.293Z" transform="translate(-544.268 -87.705)" fill="#fff"/>
      <path id="Path_1776-3" data-name="Path 1776" d="M612.488,127.794a27.992,27.992,0,0,1-18.866,26.52,26.462,26.462,0,0,1-9.268,1.613,28.134,28.134,0,1,1,0-56.268,26.462,26.462,0,0,1,9.268,1.614A27.992,27.992,0,0,1,612.488,127.794Z" transform="translate(-506.77 -50.198)" fill="#4080ff"/>
      <path id="Path_1777-3" data-name="Path 1777" d="M598.464,126.57a27.991,27.991,0,0,1-18.866,26.52,28.053,28.053,0,0,1,0-53.041A27.991,27.991,0,0,1,598.464,126.57Z" transform="translate(-492.746 -48.975)" fill="#c8c9e2"/>
    </g>
    <g id="Group_6708" data-name="Group 6708" transform="translate(24 124.459)">
      <g id="Group_6705" data-name="Group 6705" transform="translate(162.085)">
        <g id="Group_6704" data-name="Group 6704">
          <path id="Path_2311" data-name="Path 2311" d="M1555.607,3082.469l-406.856-235.178L1553.308,2614l406.855,235.178Z" transform="translate(-1055.382 -2613.999)" fill="#05f"/>
          <path id="Path_2312" data-name="Path 2312" d="M1555.716,2957.847v1.366l-.068,277.539H1148.706l.045-180.575v-61.252l.045-79.758v-.022l.022-114.371.022-78.032v-.068h.023l64.255,37.191,69.5,40.192h.022l70.908,41,37.37,21.62,21.933,12.681h.023v.023l51.977,30.043,9.1,5.241,16.489,9.5.023.022,4.525,2.621Z" transform="translate(-1055.435 -2489.427)" fill="#fff"/>
          <path id="Path_2313" data-name="Path 2313" d="M1232.419,2827.659c.269.022.539.066.807.111a11.65,11.65,0,0,0-1.211-.135A2.332,2.332,0,0,1,1232.419,2827.659Z" transform="translate(-959.94 -2369.117)" fill="#f0a77a"/>
          <path id="Path_2314" data-name="Path 2314" d="M1369.668,2983.184l-.022,133.392H1205.158l.022-54.016v-.023l.021-182.457c0-.784.024-1.545.046-2.307.024-.38.045-.761.069-1.142.044-.626.089-1.232.156-1.86a4.156,4.156,0,0,1,.045-.516c.088-.85.2-1.7.335-2.553s.292-1.7.47-2.531c.024-.136.045-.247.069-.358.156-.762.334-1.5.536-2.241.023-.09.045-.156.069-.225.2-.8.425-1.591.671-2.353.022-.087.045-.156.067-.224.247-.76.515-1.5.786-2.239.223-.606.446-1.166.717-1.748.224-.561.447-1.121.715-1.656a.8.8,0,0,1,.135-.271c.247-.56.515-1.12.807-1.657a42.268,42.268,0,0,1,2.084-3.7c.335-.56.693-1.1,1.075-1.636.268-.425.56-.873.874-1.276.223-.335.47-.672.74-1.007.29-.4.6-.786.917-1.166.425-.539.874-1.075,1.322-1.591a35.931,35.931,0,0,1,2.822-3c.472-.469.987-.94,1.481-1.412q.773-.7,1.545-1.343a48.841,48.841,0,0,1,4.928-3.7c.448-.292.9-.584,1.367-.874a4.062,4.062,0,0,1,.606-.358c.4-.247.807-.493,1.231-.719a46.394,46.394,0,0,1,5.8-2.844c.65-.269,1.279-.516,1.927-.762.627-.248,1.277-.47,1.927-.673.65-.224,1.3-.427,1.97-.6.651-.2,1.3-.357,1.972-.539.717-.177,1.458-.335,2.2-.469.627-.134,1.254-.247,1.882-.334.582-.115,1.187-.181,1.792-.271.135-.022.247-.022.38-.044.629-.067,1.234-.134,1.861-.178,1.412-.113,2.823-.181,4.256-.181.762,0,1.548.024,2.307.068.876.022,1.747.089,2.644.179a2.842,2.842,0,0,1,.427.045c.268.023.515.045.783.089.694.067,1.389.178,2.084.293.8.133,1.59.268,2.374.446h.022q1.278.27,2.554.6c.7.181,1.391.382,2.063.6.382.112.762.247,1.141.38.7.225,1.367.472,2.063.74.873.337,1.747.672,2.6,1.076.111.045.2.09.311.135.674.29,1.324.6,1.972.94.942.471,1.882.986,2.822,1.525q3.967,2.286,7.752,4.77c1.009.629,1.973,1.277,2.958,1.972.539.335,1.054.694,1.59,1.1.65.427,1.3.9,1.927,1.367,1.256.874,2.487,1.793,3.719,2.734.94.694,1.883,1.411,2.8,2.2q1.375,1.04,2.756,2.217c.76.627,1.522,1.256,2.262,1.9,2.262,1.949,4.481,3.946,6.632,5.982,1.076,1.033,2.127,2.063,3.181,3.114q4.7,4.739,9.029,9.791c.717.829,1.434,1.68,2.127,2.554a1.833,1.833,0,0,0,.247.313c.784.964,1.547,1.928,2.307,2.914.4.494.807,1.007,1.187,1.523.607.762,1.189,1.545,1.749,2.331.2.268.425.536.6.8.269.382.536.74.805,1.12.65.919,1.3,1.838,1.927,2.757.807,1.166,1.593,2.331,2.352,3.518a3.363,3.363,0,0,1,.4.584c.716,1.118,1.412,2.239,2.107,3.382a7.359,7.359,0,0,1,.47.762c.47.761.916,1.524,1.365,2.307.538.874,1.03,1.748,1.524,2.644.627,1.075,1.211,2.172,1.771,3.271.56,1.031,1.1,2.06,1.636,3.114.425.8.828,1.612,1.208,2.441.271.494.517,1.033.741,1.547.38.761.717,1.521,1.054,2.283.4.831.784,1.681,1.142,2.533.337.739.648,1.479.964,2.24.335.762.65,1.524.94,2.308a18.538,18.538,0,0,1,.717,1.837c.382.918.738,1.858,1.075,2.8q2.724,7.292,4.728,14.854c.38,1.344.738,2.711,1.051,4.076.74,2.958,1.391,5.96,1.927,8.962q.2,1.144.4,2.286c.157.873.314,1.723.427,2.6.157.942.29,1.906.425,2.846.088.538.157,1.075.2,1.615.133.874.245,1.769.335,2.644.181,1.5.337,3.024.47,4.524C1369.466,2973.1,1369.668,2978.1,1369.668,2983.184Z" transform="translate(-990.726 -2369.249)" fill="#f0a77a"/>
          <path id="Path_2315" data-name="Path 2315" d="M1258.478,2843.585c3.159,3.138,6.183,6.409,9.03,9.791Q1263.171,2848.335,1258.478,2843.585Z" transform="translate(-929.608 -2350.835)" fill="#f0a77a"/>
          <path id="Path_2316" data-name="Path 2316" d="M1262.685,2848.147q2.408,2.84,4.69,5.778C1265.851,2851.971,1264.308,2850.029,1262.685,2848.147Z" transform="translate(-924.786 -2345.605)" fill="#f0a77a"/>
          <path id="Path_2317" data-name="Path 2317" d="M1269.891,2857.735c-1.258-1.852-2.6-3.658-3.936-5.464.4.533.813,1.052,1.2,1.588C1268.1,2855.135,1268.994,2856.437,1269.891,2857.735Z" transform="translate(-921.038 -2340.878)" fill="#f0a77a"/>
          <path id="Path_2318" data-name="Path 2318" d="M1267.2,2853.913c-.768-1.032-1.537-2.061-2.329-3.073C1265.662,2851.852,1266.433,2852.881,1267.2,2853.913Z" transform="translate(-922.282 -2342.519)" fill="#f0a77a"/>
          <g id="Group_6703" data-name="Group 6703" transform="translate(323.173 91.574)">
            <path id="Path_2319" data-name="Path 2319" d="M1430.9,2714.14l-.039,76.318-75.6,43.631.04-76.317Z" transform="translate(-1141.845 -2590.784)" fill="#ffc294"/>
            <path id="Path_2320" data-name="Path 2320" d="M1544.853,2780.015l-75.6,43.639-147.361-85.192-66.05-38.187,75.6-43.61Z" transform="translate(-1255.803 -2656.665)" fill="#fcd3a2"/>
            <path id="Path_2321" data-name="Path 2321" d="M1255.824,2753.319l213.414,123.36.036-76.316-213.41-123.379Z" transform="translate(-1255.824 -2633.375)" fill="#eff3f9"/>
          </g>
          <path id="Path_2322" data-name="Path 2322" d="M1742.9,2723.573l-.112,512.151h-404.5l.068-277.494v-1.367l.045-.022.806-.471Z" transform="translate(-838.123 -2488.397)" fill="#ffc294"/>
          <path id="Path_2323" data-name="Path 2323" d="M1607.511,2958.269l-45.535,26.271c-29.79,17.183-48.34,82.036-48.34,82.036-16.895-9.764-30.414,13.626-47.316,3.859s-3.372-33.16-20.275-42.927c-16.883-9.764-30.4,13.626-47.289,3.866-16.87-9.75-3.352-33.139-20.22-42.894a18.831,18.831,0,0,0-2.131-1.066,14.585,14.585,0,0,0-1.561-.578c-14.712-4.668-27.135,13.354-42.086,6.308a18.566,18.566,0,0,1-3.67-1.637c-16.9-9.767-3.372-33.158-20.276-42.927-.452-.261-.905-.5-1.352-.715-15.056-7.229-27.528,11-42.337,6.2a19.045,19.045,0,0,1-3.6-1.616c-14.126-8.166-6.943-25.9-14.148-37.18a16.82,16.82,0,0,0-4.891-4.965c-.378-.268-.768-.508-1.181-.749-16.869-9.748-30.395,13.643-47.262,3.887s-3.351-33.144-20.226-42.892-30.393,13.633-47.263,3.878-4.436-32.345-21.306-42.094v-.193a96.248,96.248,0,0,1,48.184-83.347l45.59-26.281,136.879,79.141.352-.206Z" transform="translate(-1105.248 -2489.613)" fill="#fcd027"/>
          <path id="Path_2324" data-name="Path 2324" d="M1200.653,2886.188a98.443,98.443,0,0,1,49.22-82.625l45-25.958" transform="translate(-995.891 -2426.465)" fill="none" stroke="#fff" stroke-miterlimit="10" stroke-width="1.24"/>
          <path id="Path_2325" data-name="Path 2325" d="M1168.013,2867.5a98.438,98.438,0,0,1,49.242-83.665l43.749-25.24" transform="translate(-1033.304 -2448.26)" fill="none" stroke="#fff" stroke-miterlimit="10" stroke-width="1.24"/>
          <path id="Path_2326" data-name="Path 2326" d="M1135.263,2848.873a98.433,98.433,0,0,1,49.227-83.305l44.545-25.7" transform="translate(-1070.844 -2469.721)" fill="none" stroke="#fff" stroke-miterlimit="10" stroke-width="1.24"/>
          <path id="Path_2327" data-name="Path 2327" d="M1233.191,2905.409l.176,1.326a98.453,98.453,0,0,1,49.248-85.223l44.028-25.4" transform="translate(-958.594 -2405.246)" fill="none" stroke="#fff" stroke-miterlimit="10" stroke-width="1.24"/>
          <path id="Path_2328" data-name="Path 2328" d="M1264.594,2922.853a98.418,98.418,0,0,1,49.214-82.617l44.655-25.764" transform="translate(-922.598 -2384.205)" fill="none" stroke="#fff" stroke-miterlimit="10" stroke-width="1.24"/>
        </g>
      </g>
      <g id="Group_6707" data-name="Group 6707" transform="translate(0 344.378)">
        <path id="Path_2329" data-name="Path 2329" d="M1059.787,2876.859l188.655,109.049.036-69.468L1059.822,2807.39Z" transform="translate(-995.273 -2736.701)" fill="#fff"/>
        <path id="Path_2330" data-name="Path 2330" d="M1179.352,2849.532l.764,70.283-32.429,17.788.036-69.42Z" transform="translate(-894.517 -2688.395)" fill="#eff3f9"/>
        <ellipse id="Ellipse_653" data-name="Ellipse 653" cx="72.206" cy="125.069" rx="72.206" ry="125.069" transform="matrix(0.864, -0.504, 0.504, 0.864, 10.818, 72.824)" fill="#eff3f9"/>
        <ellipse id="Ellipse_654" data-name="Ellipse 654" cx="72.206" cy="125.069" rx="72.206" ry="125.069" transform="matrix(0.864, -0.504, 0.504, 0.864, 0, 72.819)" fill="#fff"/>
        <g id="Group_6706" data-name="Group 6706" transform="translate(68.949 82.464)">
          <path id="Path_2331" data-name="Path 2331" d="M1072.058,2813.318c7.986-1.457,17.269.7,26.908,6.271,8.907,5.153,17.589,12.941,25.162,22.569l-13.433,12.014a47.369,47.369,0,0,0-11.618-9.739,24.489,24.489,0,0,0-12.352-3.7Z" transform="translate(-1050.156 -2812.876)" fill="#1261ff"/>
          <path id="Path_2332" data-name="Path 2332" d="M1110.6,2926.477c-26.9-15.547-48.767-53.314-48.75-84.187,0-10.3,2.455-18.908,7.093-24.97l17.011,27.3a25.365,25.365,0,0,0-1.989,10.452,43.028,43.028,0,0,0,1.157,9.624c3.438,14.941,13.684,29.569,25.493,36.394,4.531,2.62,9.008,3.878,12.949,3.638l.129-.009c.086,0,.174-.008.259-.017,7.115-.611,12.013-6.161,13.1-14.845l.114-.9-12.266-7.09a1.219,1.219,0,0,1-.513-.693c-.043-.144-.115-.49.123-.623l.034-.021,24.6-22.19a.415.415,0,0,1,.365.054.858.858,0,0,1,.193.152,1.311,1.311,0,0,1,.156.2l22.119,49.189.047.081a.829.829,0,0,1,.12.767c-.032.073-.167.3-.513.1l-12.289-7.1-.049.764c-.859,13.625-6.306,23.6-15.337,28.088-9.072,4.512-20.917,3.037-33.353-4.151Z" transform="translate(-1061.853 -2807.78)" fill="#05f"/>
        </g>
      </g>
    </g>
  </g>
</svg>
