<?xml version="1.0" encoding="utf-8"?>
<svg width="16.9" height="16.8" version="1.1" xmlns="http://www.w3.org/2000/svg" xmlns:xlink="http://www.w3.org/1999/xlink" x="0px" y="0px" viewBox="0 0 16.9 16.8" xml:space="preserve">
    <path fill="#C6CFD9" d="M14.2,1.3h-2V0.7c0-0.4-0.3-0.7-0.7-0.7s-0.7,0.3-0.7,0.7v0.6H6.1V0.7C6.1,0.3,5.7,0,5.4,0S4.7,0.3,4.7,0.7v0.6 h-2C1.2,1.3,0,2.5,0,4v10.1c0,1.5,1.2,2.7,2.7,2.7h11.5c1.5,0,2.7-1.2,2.7-2.7V4C16.9,2.5,15.7,1.3,14.2,1.3z M2.7,2.7h2v0.5 c0,0.4,0.3,0.7,0.7,0.7s0.7-0.3,0.7-0.7V2.7h4.8v0.5c0,0.4,0.3,0.7,0.7,0.7s0.7-0.3,0.7-0.7V2.7h2c0.7,0,1.3,0.6,1.3,1.3v2.3H1.4V4 C1.4,3.3,2,2.7,2.7,2.7z M14.2,15.4H2.7c-0.7,0-1.3-0.6-1.3-1.3V7.7h14.1v6.3C15.5,14.8,14.9,15.4,14.2,15.4z"/>
</svg>