<?xml version="1.0" encoding="utf-8"?>
<svg version="1.1" xmlns="http://www.w3.org/2000/svg" xmlns:xlink="http://www.w3.org/1999/xlink" x="0px" y="0px" viewBox="0 0 164 164" xml:space="preserve">
	<path fill="#F5F5F5" d="M82,0L82,0c45.3,0,82,36.7,82,82l0,0c0,45.3-36.7,82-82,82l0,0c-45.3,0-82-36.7-82-82l0,0 C0,36.7,36.7,0,82,0z"/>
	<path opacity="0.5" fill="#A3AAB2" d="M82,8c40.9,0,74,33.1,74,74s-33.1,74-74,74S8,122.9,8,82 S41.1,8,82,8z"/>
	<path fill="#FFFFFF" d="M120.9,107.3c-14.9,21.5-44.4,26.9-65.9,12.1c-4.7-3.3-8.8-7.3-12.1-12.1c14.9-21.5,44.4-26.9,65.9-12.1 C113.5,98.5,117.6,102.6,120.9,107.3z M81.4,43c9.7,0,17.5,7.8,17.5,17.5s-7.8,17.5-17.5,17.5s-17.5-7.8-17.5-17.5S71.7,43,81.4,43z "/>
</svg>