<?xml version="1.0" encoding="utf-8"?>
<svg width="25" height="25" version="1.1" xmlns="http://www.w3.org/2000/svg" xmlns:xlink="http://www.w3.org/1999/xlink" x="0px" y="0px" viewBox="0 0 25 25" xml:space="preserve">
    <path fill="#FF6B73" d="M12.5,0C19.4,0,25,5.6,25,12.5S19.4,25,12.5,25S0,19.4,0,12.5S5.6,0,12.5,0z"/>
    <path fill="#F5F5F5" d="M18.7,16.1c-2.3,3.4-7,4.4-10.5,2c-0.8-0.5-1.5-1.2-2-2c2.3-3.4,7-4.4,10.5-2C17.5,14.6,18.2,15.3,18.7,16.1z M12.5,5.6c1.6,0,2.8,1.3,2.8,2.8s-1.3,2.8-2.8,2.8S9.7,10,9.7,8.4S10.9,5.6,12.5,5.6z"/>
</svg>