<?xml version="1.0" encoding="utf-8"?>
<svg width="22.1" height="17.4" version="1.1" xmlns="http://www.w3.org/2000/svg" xmlns:xlink="http://www.w3.org/1999/xlink" x="0px" y="0px" viewBox="0 0 22.1 17.4" xml:space="preserve">
	<path d="M16.5,5.6H5.6c-0.4,0-0.7-0.3-0.7-0.7s0.3-0.7,0.7-0.7h10.8c0.4,0,0.7,0.3,0.7,0.7S16.8,5.6,16.5,5.6z M17.2,8.7 c0-0.4-0.3-0.7-0.7-0.7H5.6C5.2,8,4.9,8.3,4.9,8.7s0.3,0.7,0.7,0.7h10.8C16.8,9.4,17.2,9.1,17.2,8.7z M6.5,17.1l3.5-3.5 c0.1-0.1,0.1-0.1,0.2-0.1h9.2c1.5,0,2.7-1.2,2.7-2.7V2.7c0-1.5-1.2-2.7-2.7-2.7H2.7C1.2,0,0,1.2,0,2.7v8.2c0,1.5,1.2,2.7,2.7,2.7h2 c0.2,0,0.3,0.1,0.3,0.3l0,2.6c0,0.2,0.1,0.4,0.3,0.6c0.2,0.2,0.4,0.3,0.6,0.3c0,0,0,0,0,0C6.1,17.4,6.3,17.3,6.5,17.1z M2.7,12.1 c-0.7,0-1.3-0.6-1.3-1.3V2.7C1.4,2,2,1.4,2.7,1.4h16.7c0.7,0,1.3,0.6,1.3,1.3v8.1c0,0.7-0.6,1.3-1.3,1.3h-9.2 c-0.5,0-0.9,0.2-1.2,0.5l-2.6,2.6v-1.4c0-0.9-0.8-1.7-1.7-1.7H2.7z"/>
</svg>