<?xml version="1.0" encoding="utf-8"?>
<svg width="20.5" height="13.2" version="1.1" xmlns="http://www.w3.org/2000/svg" xmlns:xlink="http://www.w3.org/1999/xlink" x="0px" y="0px" viewBox="0 0 20.5 13.2" xml:space="preserve">
    <path fill="#1877F2" d="M18.5,13.2H2c-1.1,0-2-0.9-2-2V2c0-1.1,0.9-2,2-2h16.5c1.1,0,2,0.9,2,2v9.2C20.5,12.3,19.6,13.2,18.5,13.2z M2,1C1.4,1,1,1.4,1,2v9.2c0,0.6,0.4,1,1,1h16.5c0.6,0,1-0.4,1-1V2c0-0.6-0.4-1-1-1H2z M16.2,8h0.5V5.2h-0.5c-1,0-1.7-0.5-1.7-0.9 h-1c0,1,0.9,1.7,2.2,1.9v0.9C14.4,7.2,13.5,8,13.5,9h1C14.5,8.5,15.2,8,16.2,8z M4.7,7.1V6.2C5.9,6,6.9,5.3,6.9,4.3h-1 c0,0.4-0.7,0.9-1.7,0.9H3.7V8h0.5c1,0,1.7,0.5,1.7,0.9h1C6.9,8,5.9,7.2,4.7,7.1z M10.3,4.2c1.2,0,2.2,1,2.2,2.2s-1,2.2-2.2,2.2 s-2.2-1-2.2-2.2S9.1,4.2,10.3,4.2z"/>
</svg>