<?xml version="1.0" encoding="utf-8"?>
<svg version="1.1" xmlns="http://www.w3.org/2000/svg" xmlns:xlink="http://www.w3.org/1999/xlink" x="0px" y="0px" viewBox="0 0 142 142" enable-background="new 0 0 142 142" xml:space="preserve">
	<path opacity="0.5" fill="#FFDBE6" d="M71,0c39.2,0,71,31.8,71,71s-31.8,71-71,71S0,110.2,0,71 S31.8,0,71,0z"/>
	<path fill="#FF6B73" d="M115.8,38.4H87.1V24.9c0-1.6-1.3-3-3-3H57.8c-1.6,0-3,1.3-3,3v13.6H26.2v4h8.9c0,0.1,0,0.1,0,0.2 c0,0.2,0,0.3,0,0.5l7.2,63.4c0.9,7.7,7.4,13.6,15.2,13.6l0,0l0,0h26.8c7.8,0,14.3-5.8,15.2-13.6l7.2-63.4c0-0.2,0-0.5,0-0.7h8.9 v-4.1H115.8z M58.9,25.9h24.3v12.5H58.9V25.9z M95.6,106.1c-0.7,5.7-5.5,10-11.2,10H57.6l0,0c-5.7,0-10.6-4.3-11.2-10l-7.2-63.4 c0-0.1,0.1-0.2,0.2-0.2h63.3c0.1,0,0.1,0,0.1,0.1c0,0,0.1,0.1,0,0.2L95.6,106.1z M85.3,81.3H56.7v-4h28.7L85.3,81.3L85.3,81.3z"/>
</svg>