<?xml version="1.0" encoding="utf-8"?>
<svg width="13" height="13.1" version="1.1" xmlns="http://www.w3.org/2000/svg" xmlns:xlink="http://www.w3.org/1999/xlink" x="0px" y="0px" viewBox="0 0 13 13.1" xml:space="preserve">
    <path fill="#060505" d="M8.1,13c-0.5,0-0.9-0.2-1.2-0.5l-0.1-0.1L0.5,6.2C0.2,5.9,0,5.4,0,4.9l0.1-3c0-0.9,0.8-1.7,1.7-1.7l3-0.1 c0.5,0,1,0.2,1.4,0.5l6.3,6.3c0.7,0.7,0.7,1.8,0,2.5l-3.1,3.1C9,12.8,8.5,13,8.1,13C8.1,13,8.1,13,8.1,13z M7.5,11.8 C7.7,11.9,7.9,12,8.1,12h0c0.2,0,0.4-0.1,0.6-0.2l3.1-3.1c0.3-0.3,0.3-0.8,0-1.1L5.5,1.2C5.3,1.1,5.1,1,4.9,1l-3,0.1 c-0.4,0-0.7,0.3-0.8,0.8L1,4.9c0,0.2,0.1,0.4,0.2,0.6L7.5,11.8z M4.1,5.5c-0.8,0-1.5-0.7-1.5-1.5s0.7-1.5,1.5-1.5s1.5,0.7,1.5,1.5 S4.9,5.5,4.1,5.5z M4.1,3.6c-0.3,0-0.5,0.2-0.5,0.5s0.2,0.5,0.5,0.5s0.5-0.2,0.5-0.5S4.3,3.6,4.1,3.6z"/>
</svg>