<?xml version="1.0" encoding="utf-8"?>
<svg width="17.1" height="14.3" version="1.1" xmlns="http://www.w3.org/2000/svg" xmlns:xlink="http://www.w3.org/1999/xlink" x="0px" y="0px" viewBox="0 0 17.1 14.3" xml:space="preserve">
    <path fill="#1877F2" d="M11.4,14.1c-0.2,0-0.4-0.1-0.5-0.2c-0.3-0.3-0.3-0.7,0-1l2.9-2.9h-13c-0.4,0-0.7-0.3-0.7-0.7 s0.3-0.7,0.7-0.7h16.4l-5.3,5.3C11.7,14,11.6,14.1,11.4,14.1z M17.1,5.1c0-0.4-0.3-0.7-0.7-0.7h-13l2.9-2.9c0.3-0.3,0.3-0.7,0-1 s-0.7-0.3-1,0L0,5.8h16.4C16.8,5.8,17.1,5.4,17.1,5.1z"/>
</svg>