<?xml version="1.0" encoding="utf-8"?>
<svg width="30" height="34" version="1.1" xmlns="http://www.w3.org/2000/svg" xmlns:xlink="http://www.w3.org/1999/xlink" x="0px" y="0px" viewBox="0 0 30 34" xml:space="preserve">
    <path fill="#1877F2" d="M12.1,15.8L25.3,2.6l3.5,3.5l-2.3,2.3L30,12l-5.9,5.9l-3.5-3.5l-5,5c2.1,4.1,0.5,9.1-3.5,11.2S3.1,31,0.9,27 s-0.5-9.1,3.5-11.2C6.9,14.5,9.7,14.5,12.1,15.8L12.1,15.8z M10.6,25.5c1.3-1.3,1.3-3.4,0-4.7s-3.4-1.3-4.7,0 c-1.3,1.3-1.3,3.4,0,4.7C7.3,26.7,9.4,26.7,10.6,25.5C10.6,25.5,10.6,25.5,10.6,25.5z"/>
    <path fill="#DAE0E5" d="M11.6,23.1c0,1.4-0.9,2.7-2.2,3.1c-0.4,0.1-0.7,0.2-1.1,0.2c-1.8,0-3.3-1.5-3.3-3.3c0-1.8,1.5-3.3,3.3-3.3 c0.4,0,0.7,0.1,1.1,0.2C10.7,20.4,11.6,21.7,11.6,23.1z"/>
    <path fill="#F4F4F4" d="M11.6,23.1c0,1.4-0.9,2.7-2.2,3.1c-1.7-0.6-2.6-2.5-2.1-4.2c0.3-1,1.1-1.7,2.1-2.1 C10.7,20.4,11.6,21.7,11.6,23.1z"/>
</svg>