<?xml version="1.0" encoding="utf-8"?>
<svg width="30" height="34" version="1.1" xmlns="http://www.w3.org/2000/svg" xmlns:xlink="http://www.w3.org/1999/xlink" x="0px" y="0px" viewBox="0 0 30 34" xml:space="preserve">
	<path fill="#1877F2" d="M26.5,8.4l2.3-2.3l-3.5-3.5L12.1,15.8c-2.4-1.3-5.2-1.3-7.7,0c-4,2.1-5.7,7.2-3.5,11.2 c2.2,4,7.2,5.7,11.2,3.6s5.6-7.1,3.5-11.2l5-5l3.5,3.5L30,12L26.5,8.4z M8.3,26.4c-1.9,0-3.3-1.5-3.3-3.4s1.5-3.3,3.3-3.3 c1.9,0,3.4,1.5,3.4,3.3S10.1,26.4,8.3,26.4z"/>
	<path fill="#DAE0E5" d="M11.6,23.1c0,1.4-0.9,2.7-2.2,3.2c-0.4,0.1-0.7,0.2-1.1,0.2c-1.8,0-3.3-1.5-3.3-3.4 s1.5-3.4,3.4-3.4c0.4,0,0.7,0.1,1.1,0.2C10.7,20.4,11.6,21.6,11.6,23.1z"/>
	<path fill="#FFFFFF" d="M11.6,23.1c0,1.4-0.9,2.7-2.2,3.2c-1.7-0.6-2.7-2.5-2.1-4.3c0.3-1,1.1-1.7,2.1-2.1 C10.7,20.4,11.6,21.6,11.6,23.1z"/>
</svg>