<?xml version="1.0" encoding="utf-8"?>
<svg width="30" height="34" version="1.1" xmlns="http://www.w3.org/2000/svg" xmlns:xlink="http://www.w3.org/1999/xlink" x="0px" y="0px" viewBox="0 0 30 34" xml:space="preserve">
	<path fill="#DAE0E5" d="M30,12.1V14l-10.5,1.7l-3,0.3c-0.9,0.1-2,0.1-3,0l-2.9-0.3L0,14.1v-1.9L14.3,11c0.5,0,0.9,0,1.5,0L30,12.1z"/>
	<path fill="#1877F2" d="M30,12.1V34H0V12.1l10.5,1.1l3,0.3c1,0.1,2,0.1,3,0l3-0.3L30,12.1z"/>
	<path fill="#DAE0E5" d="M18,22.6c0,1.4-0.8,2.6-2,3.1V28c0,0.5-0.3,1-0.8,1.3c-0.7,0.3-1.6,0-1.9-0.7c-0.1-0.2-0.1-0.4-0.1-0.5 v-2.3c-1.8-0.8-2.5-2.8-1.8-4.6c0.5-1.3,1.8-2,3.1-2c0.2,0,0.4,0,0.5,0C16.8,19.5,18,20.9,18,22.6z"/>
	<path fill="#FFFFFF" d="M18,22.6c0,1.4-0.8,2.6-2,3.1V28c0.2,0.4,0,1-0.5,1.3c-0.4,0.2-1,0-1.2-0.5c-0.1-0.2-0.1-0.5,0-0.7v-2.3 c-1.8-0.2-3-1.9-2.8-3.6c0.2-1.8,1.9-3,3.6-2.8C16.9,19.4,18,20.8,18,22.6z"/>
	<path fill="#1877F2" d="M15,0c5,0,9.1,4.1,9.1,9.1v2.7c0,0.2-0.5,0.3-1.1,0.3s-1.1-0.1-1.1-0.3V9.1c0-3.8-3-6.9-6.9-6.9l0,0 c-3.8,0-6.9,3-6.9,6.9v2.7c0,0.2-0.5,0.3-1.1,0.3s-0.9-0.2-0.9-0.3V9.1C5.9,4.1,10,0,15,0L15,0z"/>
</svg>