<?xml version="1.0" encoding="utf-8"?>
<svg width="28.8" height="32.6" version="1.1" xmlns="http://www.w3.org/2000/svg" xmlns:xlink="http://www.w3.org/1999/xlink" x="0px" y="0px" viewBox="0 0 28.8 32.6" xml:space="preserve">
    <path fill="#C6CFD9" d="M28.8,11.6v1.8L18.7,15l-2.9,0.3c-0.9,0.1-1.9,0.1-2.9,0L10.1,15L0,13.5v-1.8l13.7-1.1c0.5,0,0.9,0,1.4,0 L28.8,11.6z"/>
    <path fill="#1877F2" d="M28.8,11.6v21H0v-21l10.1,1.1L13,13c1,0.1,1.9,0.1,2.9,0l2.9-0.3L28.8,11.6z"/>
    <path fill="#C6CFD9" d="M17.3,21.7c0,1.3-0.8,2.5-1.9,3v2.2c0,0.5-0.3,1-0.8,1.2c-0.7,0.3-1.5,0-1.8-0.7c-0.1-0.2-0.1-0.4-0.1-0.5 v-2.2C11,23.9,10.3,22,11,20.3c0.5-1.2,1.7-1.9,3-1.9c0.2,0,0.4,0,0.5,0C16.1,18.7,17.3,20.1,17.3,21.7z"/>
    <path fill="#FFFFFF" d="M17.3,21.7c0,1.3-0.8,2.5-1.9,3v2.2c0.2,0.4,0,1-0.5,1.2c-0.4,0.2-1,0-1.2-0.5c-0.1-0.2-0.1-0.5,0-0.7v-2.2 c-1.7-0.2-2.9-1.8-2.7-3.5c0.2-1.7,1.8-2.9,3.5-2.7C16.2,18.6,17.3,20,17.3,21.7z"/>
    <path fill="#1877F2" d="M13.7,0c4.8,0,8.7,3.9,8.7,8.7v2.6c0,0.2-0.5,0.3-1.1,0.3s-1.1-0.1-1.1-0.3V8.7c0-3.6-2.9-6.6-6.6-6.6l0,0 c-3.6,0-6.6,2.9-6.6,6.6v2.6c0,0.2-0.5,0.3-1.1,0.3S5,11.4,5,11.3V8.7C5,3.9,8.9,0,13.7,0L13.7,0z"/>
</svg>