<?xml version="1.0" encoding="utf-8"?>
<svg width="18" height="17.6" version="1.1" xmlns="http://www.w3.org/2000/svg" xmlns:xlink="http://www.w3.org/1999/xlink" x="0px" y="0px" viewBox="0 0 18 17.6" xml:space="preserve">
    <path d="M2.8,3.8L0.2,1.2L1.4,0l16.5,16.5l-1.2,1.2l-2.8-2.8C9.6,17.6,4,16.3,1.3,12.1C0.6,11.1,0.2,10,0,8.8 C0.4,6.9,1.3,5.1,2.8,3.8L2.8,3.8z M11.3,12.3l-1.2-1.2c-1.2,0.6-2.7,0.1-3.3-1.2c-0.3-0.7-0.3-1.5,0-2.2L5.5,6.5 C4.3,8.4,4.8,11,6.7,12.3C8.1,13.2,9.9,13.2,11.3,12.3L11.3,12.3z M5.7,2c4.7-1.8,10,0.5,11.9,5.2c0.2,0.5,0.4,1.1,0.5,1.7 c-0.3,1.4-0.8,2.7-1.7,3.8l-3.2-3.2c0.3-2.3-1.2-4.4-3.5-4.7c-0.4-0.1-0.8-0.1-1.2,0L5.7,2L5.7,2z"/>
</svg>