<?xml version="1.0" encoding="utf-8"?>
<svg version="1.1" xmlns="http://www.w3.org/2000/svg" xmlns:xlink="http://www.w3.org/1999/xlink" x="0px" y="0px" viewBox="0 0 30.4 22" xml:space="preserve">
    <path fill="#F5F5F5" d="M28.4,0H7.9c-1.1,0-2,0.9-2,2v3.1H2c-1.1,0-2,0.9-2,2V20c0,1.1,0.9,2,2,2h22.2c1.1,0,2-0.9,2-2v-4.8h2.2 c1.1,0,2-0.9,2-2V2C30.4,0.9,29.5,0,28.4,0z"/>
    <path opacity="0.52" fill="#1877F2" enable-background="new" d="M25.4,8.3h5.1v2.5h-5.1V8.3z M23.5,2.8h5.1v0.7h-5.1V2.8z M21.7,2.8h1.4v0.7h-1.4V2.8z M19.9,2.8h1.4v0.7h-1.4V2.8z"/>
    <path fill="#1877F2" d="M30.4,2v11.2c0,1.1-0.9,2-2,2h-2.2v-1h2.2c0.6,0,1-0.4,1-1V2c0-0.6-0.4-1-1-1H7.9c-0.6,0-1,0.4-1,1v3.1h-1V2 c0-1.1,0.9-2,2-2h20.5C29.5,0,30.4,0.9,30.4,2z M24.2,6.1c0.6,0,1,0.4,1,1v7.1h1V7.1c0-1.1-0.9-2-2-2H6.9v1H24.2z M25.2,20 c0,0.6-0.4,1-1,1H2c-0.6,0-1-0.4-1-1V7.1c0-0.6,0.4-1,1-1h3.9v-1H2c-1.1,0-2,0.9-2,2V20c0,1.1,0.9,2,2,2h22.2c1.1,0,2-0.9,2-2v-4.8 h-1V20z M6.9,6.1v-1h-1v1H6.9z M25.2,14.2v1h1v-1H25.2z M22,15.4l0.5,0v-3.7l-0.5,0c-0.9,0-1.7-0.7-1.8-1.6l-1,0 c0.1,1.3,1,2.4,2.3,2.6v1.7c-1.3,0.2-2.2,1.3-2.3,2.6l1,0C20.2,16.1,21,15.4,22,15.4z M7,17c-0.1-1.3-1-2.4-2.3-2.6v-1.7 c1.3-0.2,2.2-1.3,2.3-2.6l-1,0c0,0.9-0.9,1.7-1.8,1.6l-0.5,0v3.7l0.5,0c0.9,0,1.7,0.7,1.8,1.6L7,17z M10.9,13.2c0,1.3,1,2.3,2.3,2.3 s2.3-1,2.3-2.3s-1-2.3-2.3-2.3S10.9,11.9,10.9,13.2z"/>
</svg>