<?xml version="1.0" encoding="utf-8"?>
<svg version="1.1" xmlns="http://www.w3.org/2000/svg" xmlns:xlink="http://www.w3.org/1999/xlink" x="0px" y="0px" viewBox="0 0 15 13.9" xml:space="preserve">
    <path fill="#A3AAB2" d="M14.8,12.7l-2.4-2.4c1.6-2.6,1.3-6-0.9-8.3C8.8-0.7,4.6-0.7,2,2C0.7,3.2,0,4.9,0,6.7s0.7,3.5,2,4.7 c1.3,1.3,2.9,2,4.7,2s3.5-0.7,4.7-2c0,0,0.1-0.1,0.1-0.1l2.3,2.3c0.1,0.1,0.3,0.2,0.5,0.2s0.4-0.1,0.5-0.2 C15.1,13.4,15.1,12.9,14.8,12.7z M6.7,12C5.3,12,4,11.4,3,10.4c-1-1-1.6-2.3-1.6-3.7S2,4,3,2.9c1-1,2.3-1.6,3.7-1.6s2.7,0.6,3.7,1.6 c2.1,2.1,2.1,5.4,0,7.5C9.4,11.4,8.1,12,6.7,12z"/>
</svg>