<?xml version="1.0" encoding="utf-8"?>
<svg version="1.1" xmlns="http://www.w3.org/2000/svg" xmlns:xlink="http://www.w3.org/1999/xlink" x="0px" y="0px" viewBox="0 0 18 15" xml:space="preserve">
    <path fill="#C6CFD9" d="M0,7.5c0.9-5,5.7-8.3,10.7-7.3c3.7,0.7,6.7,3.6,7.3,7.3c-0.9,5-5.7,8.3-10.7,7.3C3.6,14.2,0.7,11.2,0,7.5z M9,11.7c2.3,0,4.2-1.9,4.2-4.2S11.3,3.3,9,3.3c-2.3,0-4.2,1.9-4.2,4.2C4.8,9.8,6.7,11.7,9,11.7C9,11.7,9,11.7,9,11.7z M9,10 c-1.4,0-2.5-1.1-2.5-2.5S7.6,5,9,5s2.5,1.1,2.5,2.5S10.4,10,9,10z"/>
</svg>