<?xml version="1.0" encoding="utf-8"?>
<svg width="124" height="124" version="1.1" xmlns="http://www.w3.org/2000/svg" xmlns:xlink="http://www.w3.org/1999/xlink" x="0px" y="0px" viewBox="0 0 124 124" xml:space="preserve">
    <path fill="#30B360" d="M62,124C27.8,124,0,96.2,0,62S27.8,0,62,0s62,27.8,62,62S96.2,124,62,124z"/>
    <path fill="#fff" d="M52.7,84.9c-0.6,0-1.3-0.2-1.8-0.7L29.7,63c-1-1-1-2.6,0-3.5c1-1,2.6-1,3.5,0l19.4,19.4l38.1-38.1 c1-1,2.6-1,3.5,0c1,1,1,2.6,0,3.5L54.4,84.2C53.9,84.7,53.3,84.9,52.7,84.9z"/>
</svg>