<?xml version="1.0" encoding="utf-8"?>
<!-- Generator: Adobe Illustrator 23.0.0, SVG Export Plug-In . SVG Version: 6.00 Build 0)  -->
<svg version="1.1" id="Layer_1" xmlns="http://www.w3.org/2000/svg" xmlns:xlink="http://www.w3.org/1999/xlink" x="0px" y="0px"
	 viewBox="0 0 44 44" style="enable-background:new 0 0 44 44;" xml:space="preserve">
<style type="text/css">
	.st0{fill:#FF6B73;}
	.st1{fill:#fff;}
</style>
<g>
	<path class="st0" d="M22,44C9.9,44,0,34.1,0,22S9.9,0,22,0s22,9.9,22,22S34.1,44,22,44z"/>
	<path class="st1" d="M33,15.4c-1.7-2.7-4.5-4.6-7.6-5.4c-3.2-0.7-6.4-0.1-9.2,1.6c-2.7,1.7-4.6,4.4-5.4,7.6
		c-0.3,1.4-0.4,2.9-0.2,4.3l-1.8-1l-1.5,2.8l6.5,3.5l3.5-6.5l-2.8-1.5l-1,1.8c-0.1-0.9,0-1.8,0.2-2.7c0.5-2.4,1.9-4.4,4-5.7
		c2-1.3,4.5-1.7,6.8-1.2c2.4,0.5,4.4,1.9,5.7,4c1.3,2,1.7,4.5,1.2,6.8c-0.5,2.4-1.9,4.4-4,5.7c-2,1.3-4.5,1.7-6.8,1.2l-0.7,3.1
		c0.9,0.2,1.8,0.3,2.7,0.3c5.6,0,10.6-3.9,11.9-9.5C35.3,21.4,34.8,18.1,33,15.4z"/>
</g>
</svg>
