<?xml version="1.0" encoding="utf-8"?>
<svg version="1.1" xmlns="http://www.w3.org/2000/svg" xmlns:xlink="http://www.w3.org/1999/xlink" x="0px" y="0px" viewBox="0 0 28 28" xml:space="preserve">
	<path fill="#4DCDE6" d="M28,14c0,7.7-6.3,14-14,14S0,21.7,0,14S6.3,0,14,0S28,6.3,28,14z M16.1,12.9c1.2-0.7,2.1-2.1,2.1-3.6 c0-2.3-1.9-4.2-4.2-4.2c-2.3,0-4.2,1.9-4.2,4.2c0,1.5,0.8,2.9,2.1,3.6c-3,0.6-5.5,2.4-6.8,4.8c1.6,3,5,5,8.9,5c3.9,0,7.3-2.1,8.9-5 C21.6,15.3,19.1,13.5,16.1,12.9z M14,6.5c1.6,0,2.8,1.3,2.8,2.8c0,1.6-1.3,2.8-2.8,2.8c-1.6,0-2.8-1.3-2.8-2.8 C11.2,7.8,12.4,6.5,14,6.5z M18.6,20.3c-1.4,0.8-3,1.2-4.6,1.2c-1.7,0-3.3-0.4-4.6-1.2c-1.1-0.6-2-1.5-2.7-2.5 c0.7-1,1.6-1.9,2.7-2.5c1.4-0.8,3-1.2,4.6-1.2c1.7,0,3.3,0.4,4.6,1.2c1.1,0.6,2,1.5,2.7,2.5C20.7,18.8,19.8,19.6,18.6,20.3z"/>
</svg>