<?xml version="1.0" encoding="utf-8"?>
<svg version="1.1" xmlns="http://www.w3.org/2000/svg" xmlns:xlink="http://www.w3.org/1999/xlink" x="0px" y="0px" viewBox="0 0 28 28" xml:space="preserve">
	<path fill="#4DCDE6" d="M17.3,12.3c1.9-1.1,3.2-3.2,3.2-5.6c0-3.6-2.9-6.5-6.5-6.5c-3.6,0-6.5,2.9-6.5,6.5c0,2.4,1.3,4.5,3.2,5.6 C6,13.2,2.1,16.1,0,19.9c2.6,4.7,7.9,7.9,14,7.9c6.1,0,11.4-3.2,14-7.9C25.9,16.1,22,13.2,17.3,12.3z M14,2.2c2.5,0,4.5,2,4.5,4.5 c0,2.5-2,4.5-4.5,4.5c-2.5,0-4.5-2-4.5-4.5C9.5,4.2,11.5,2.2,14,2.2z M21.3,23.8c-2.2,1.3-4.7,1.9-7.3,1.9c-2.6,0-5.1-0.7-7.3-1.9 c-1.7-1-3.2-2.4-4.3-3.9C3.5,18.3,5,17,6.7,16c2.2-1.3,4.7-1.9,7.3-1.9c2.6,0,5.1,0.7,7.3,1.9c1.7,1,3.2,2.4,4.3,3.9 C24.5,21.5,23,22.8,21.3,23.8z"/>
</svg>