<svg xmlns="http://www.w3.org/2000/svg" width="27.139" height="26.812" viewBox="0 0 27.139 26.812">
    <g id="Path_2024" data-name="Path 2024" transform="translate(-1797.868 -1270.883)" fill="none" stroke-miterlimit="10">
        <path d="M1805.12,1277.2a6.317,6.317,0,1,1,6.316,6.317A6.311,6.311,0,0,1,1805.12,1277.2Z" stroke="none"/>
        <path d="M 1811.4365234375 1272.88330078125 C 1809.056396484375 1272.88330078125 1807.1201171875 1274.819946289062 1807.1201171875 1277.200317382812 C 1807.1201171875 1279.580810546875 1809.056396484375 1281.517456054688 1811.4365234375 1281.517456054688 C 1813.817504882812 1281.517456054688 1815.754638671875 1279.580810546875 1815.754638671875 1277.200317382812 C 1815.754638671875 1274.819946289062 1813.817504882812 1272.88330078125 1811.4365234375 1272.88330078125 M 1811.4365234375 1270.88330078125 C 1814.930541992188 1270.88330078125 1817.754638671875 1273.707153320312 1817.754638671875 1277.200317382812 C 1817.754638671875 1280.679077148438 1814.930541992188 1283.517456054688 1811.4365234375 1283.517456054688 C 1807.943237304688 1283.517456054688 1805.1201171875 1280.679077148438 1805.1201171875 1277.200317382812 C 1805.1201171875 1273.707153320312 1807.943237304688 1270.88330078125 1811.4365234375 1270.88330078125 Z" stroke="none" fill="#4dcde6"/>
    </g>
    <g id="Path_2025" data-name="Path 2025" transform="translate(-1796.835 -1276.683)" fill="none" stroke-miterlimit="10">
        <path d="M1823.975,1295.821a15.834,15.834,0,0,1-27.139,0,15.835,15.835,0,0,1,27.139,0Z" stroke="none"/>
        <path d="M 1810.403930664062 1290.147094726562 C 1807.89111328125 1290.147094726562 1805.446533203125 1290.791015625 1803.334594726562 1292.009155273438 C 1801.643798828125 1292.984375 1800.224853515625 1294.2890625 1799.179321289062 1295.82080078125 C 1800.224853515625 1297.352661132812 1801.643920898438 1298.657592773438 1803.334716796875 1299.632934570312 C 1805.446533203125 1300.851196289062 1807.890991210938 1301.4951171875 1810.403930664062 1301.4951171875 C 1812.917724609375 1301.4951171875 1815.36279296875 1300.851196289062 1817.474731445312 1299.632934570312 C 1819.165405273438 1298.65771484375 1820.584594726562 1297.352905273438 1821.630249023438 1295.82080078125 C 1820.58447265625 1294.288940429688 1819.16552734375 1292.984375 1817.474853515625 1292.009155273438 C 1815.36279296875 1290.791015625 1812.917724609375 1290.147094726562 1810.403930664062 1290.147094726562 M 1810.403930664062 1288.147094726562 C 1816.329956054688 1288.147094726562 1821.474731445312 1291.268188476562 1823.974609375 1295.820678710938 C 1821.474731445312 1300.373901367188 1816.329956054688 1303.4951171875 1810.403930664062 1303.4951171875 C 1804.480102539062 1303.4951171875 1799.334350585938 1300.373901367188 1796.835205078125 1295.820678710938 C 1799.334350585938 1291.268188476562 1804.480102539062 1288.147094726562 1810.403930664062 1288.147094726562 Z" stroke="none" fill="#4dcde6"/>
    </g>
</svg>