<?xml version="1.0" encoding="utf-8"?>
<svg version="1.1" xmlns="http://www.w3.org/2000/svg" xmlns:xlink="http://www.w3.org/1999/xlink" x="0px" y="0px" viewBox="0 0 28 28" xml:space="preserve">
	<path fill="#FF6B73" d="M14,28c-2.9,0-5.9-0.9-8.4-2.8c-6.2-4.6-7.4-13.4-2.8-19.6s13.4-7.4,19.6-2.8l-1.3,1.8 C15.9,0.7,8.5,1.7,4.6,6.9S1.8,19.5,7,23.4s12.6,2.8,16.5-2.4c1.9-2.5,2.7-5.6,2.2-8.8l2.2-0.3c0.5,3.7-0.4,7.4-2.6,10.4 C22.5,26.1,18.2,28,14,28z M12.6,21l-6.5-6.5l1.6-1.6l4.9,5L24.1,6.4l1.6,1.5L12.6,21z"/>
</svg>