<?xml version="1.0" encoding="utf-8"?>
<svg version="1.1" xmlns="http://www.w3.org/2000/svg" xmlns:xlink="http://www.w3.org/1999/xlink" x="0px" y="0px" viewBox="0 0 28 28"  xml:space="preserve">
	<path fill="#FF6B73" d="M28,14c0,7.7-6.3,14-14,14S0,21.7,0,14S6.3,0,14,0S28,6.3,28,14z M21.2,19.3c1.4-1.9,2.1-4.3,1.7-6.7 l-1.4,0.2c0.3,2-0.2,4-1.4,5.7c-2.5,3.3-7.3,4.1-10.6,1.5c-3.3-2.5-4.1-7.3-1.5-10.6c2.5-3.3,7.3-4.1,10.6-1.5l0.9-1.1 c-4-3-9.6-2.2-12.6,1.8s-2.2,9.6,1.8,12.6c1.6,1.2,3.5,1.8,5.4,1.8C16.7,22.9,19.4,21.7,21.2,19.3z M21.5,9.9l-1-1l-7.4,7.4 l-3.2-3.2l-1,1l4.2,4.2L21.5,9.9z"/>
</svg>