<?xml version="1.0" encoding="utf-8"?>
<svg version="1.1" xmlns="http://www.w3.org/2000/svg" xmlns:xlink="http://www.w3.org/1999/xlink" x="0px" y="0px" viewBox="0 0 28 28" xml:space="preserve">
	<path fill="#3DBEC8" d="M14,0C6.3,0,0,6.3,0,14s6.3,14,14,14s14-6.3,14-14S21.7,0,14,0z"/>
	<path fill="#FFFFFF" d="M14,5c-5,0-9,4-9,9s4,9,9,9s9-4,9-9S19,5,14,5z M14,21c-3.9,0-7-3.1-7-7s3.1-7,7-7s7,3.1,7,7S17.9,21,14,21z M14,11c-1.7,0-3,1.3-3,3s1.3,3,3,3s3-1.3,3-3S15.7,11,14,11z M14,15c-0.6,0-1-0.4-1-1s0.4-1,1-1s1,0.4,1,1S14.6,15,14,15z"/>
</svg>