<?xml version="1.0" encoding="utf-8"?>
<svg version="1.1" xmlns="http://www.w3.org/2000/svg" xmlns:xlink="http://www.w3.org/1999/xlink" x="0px" y="0px" viewBox="0 0 28 28" xml:space="preserve">
	<path fill="#4DCDE6" d="M14,28C6.3,28,0,21.7,0,14S6.3,0,14,0s14,6.3,14,14S21.7,28,14,28z M11.2,13.7V5h-2v8.7 C8.5,14.1,8,14.8,8,15.6v4.7c0,1.2,1,2.2,2.2,2.2c1.2,0,2.2-1,2.2-2.2v-4.7C12.4,14.8,11.9,14.1,11.2,13.7z M10.4,20.3 c0,0.2-0.4,0.2-0.4,0v-4.7c0-0.1,0.1-0.2,0.2-0.2c0.1,0,0.2,0.1,0.2,0.2V20.3z M18.2,20.1V7.9c1-0.4,1.7-1.4,1.7-2.5h-2 c0,0.4-0.3,0.7-0.7,0.7c-0.4,0-0.7-0.3-0.7-0.7h-2c0,1.2,0.7,2.1,1.7,2.5v12.2c-1,0.4-1.7,1.4-1.7,2.5h2c0-0.4,0.3-0.7,0.7-0.7 c0.4,0,0.7,0.3,0.7,0.7h2C19.9,21.5,19.2,20.5,18.2,20.1z"/>
</svg>