<?xml version="1.0" encoding="utf-8"?>
<!-- Generator: Adobe Illustrator 23.0.0, SVG Export Plug-In . SVG Version: 6.00 Build 0)  -->
<svg version="1.1" id="Layer_1" xmlns="http://www.w3.org/2000/svg" xmlns:xlink="http://www.w3.org/1999/xlink" x="0px" y="0px"
	 viewBox="0 0 44 44" style="enable-background:new 0 0 44 44;" xml:space="preserve">
<style type="text/css">
	.st0{fill:#4DCDE6;}
</style>
<path class="st0" d="M17.1,22.6v-14h-2v14C14,23,13.2,24,13.2,25.3v7.3c0,1.6,1.3,2.9,2.9,2.9s2.9-1.3,2.9-2.9v-7.3
	C18.9,24,18.2,23,17.1,22.6z M16.9,32.6c0,0.5-0.4,0.9-0.9,0.9c-0.5,0-0.9-0.4-0.9-0.9v-7.3c0-0.5,0.4-0.9,0.9-0.9
	c0.5,0,0.9,0.4,0.9,0.9V32.6z"/>
<path class="st0" d="M28.1,31.9V12.1c1.6-0.4,2.7-1.9,2.7-3.6h-2c0,1-0.8,1.7-1.7,1.7s-1.7-0.8-1.7-1.7h-2c0,1.7,1.2,3.1,2.7,3.6
	v19.8c-1.6,0.4-2.7,1.9-2.7,3.6h2c0-1,0.8-1.7,1.7-1.7s1.7,0.8,1.7,1.7h2C30.8,33.8,29.7,32.3,28.1,31.9z"/>
<path class="st0" d="M22,44C9.9,44,0,34.1,0,22C0,9.9,9.9,0,22,0c12.1,0,22,9.9,22,22C44,34.1,34.1,44,22,44z M22,2.1
	C11,2.1,2.1,11,2.1,22S11,41.9,22,41.9S41.9,33,41.9,22S33,2.1,22,2.1z"/>
</svg>
