<?xml version="1.0" encoding="utf-8"?>
<svg version="1.1" xmlns="http://www.w3.org/2000/svg" xmlns:xlink="http://www.w3.org/1999/xlink" x="0px" y="0px" viewBox="0 0 44 44" xml:space="preserve">
	<path fill="#A3AAB2" d="M43.4,18.5l-20.5-15c-0.5-0.4-1.2-0.4-1.7,0l-20.5,15c-0.5,0.4-0.7,1-0.5,1.6s0.8,1,1.4,1l5.3,0v18.1 c0,0.8,0.7,1.5,1.5,1.5h8.5c0.8,0,1.5-0.7,1.5-1.5v-7.2c0-1.9,1.6-3.5,3.5-3.5c0,0,0,0,0,0c0.9,0,1.8,0.4,2.5,1c0.7,0.7,1,1.5,1,2.5 v7.2c0,0.8,0.7,1.5,1.5,1.5h9.1c0.8,0,1.5-0.7,1.5-1.5V21.2l5.3,0c0.6,0,1.2-0.4,1.4-1C44.1,19.6,43.9,18.9,43.4,18.5z"/>
</svg>