<?xml version="1.0" encoding="utf-8"?>
<svg version="1.1" xmlns="http://www.w3.org/2000/svg" xmlns:xlink="http://www.w3.org/1999/xlink" x="0px" y="0px" viewBox="0 0 44 44" xml:space="preserve">
	<path fill="#A3AAB2" d="M16.8,40.8H8.2c-0.8,0-1.5-0.7-1.5-1.5V21.2l-5.3,0c-0.6,0-1.2-0.4-1.4-1c-0.2-0.6,0-1.3,0.5-1.6l20.5-15 c0.5-0.4,1.2-0.4,1.7,0l20.5,15c0.5,0.4,0.7,1,0.5,1.6c-0.2,0.6-0.8,1-1.4,1l-5.3,0v18.1c0,0.8-0.7,1.5-1.5,1.5h-9.1 c-0.8,0-1.5-0.7-1.5-1.5v-7.2c0-0.9-0.4-1.8-1-2.5c-0.7-0.7-1.5-1-2.5-1c0,0,0,0,0,0c-1.9,0-3.5,1.6-3.5,3.5v7.2 C18.2,40.1,17.6,40.8,16.8,40.8z M9.7,37.9h5.6v-5.8c0-3.5,2.9-6.4,6.4-6.4c0,0,0,0,0,0c1.7,0,3.3,0.7,4.5,1.9 c1.2,1.2,1.9,2.8,1.9,4.5v5.7h6.2V19.7c0-0.8,0.7-1.5,1.5-1.5l2.3,0L22,6.5L5.9,18.3l2.3,0c0.8,0,1.5,0.7,1.5,1.5V37.9z"/>
</svg>