<?xml version="1.0" encoding="utf-8"?>
<svg version="1.1" xmlns="http://www.w3.org/2000/svg" xmlns:xlink="http://www.w3.org/1999/xlink" x="0px" y="0px" viewBox="0 0 28 28" xml:space="preserve">
	<path fill="#A3AAB2" d="M28,14c0,7.7-6.3,14-14,14S0,21.7,0,14S6.3,0,14,0S28,6.3,28,14z M14.5,22.3h-1.1v-0.6 c0-0.9-0.5-1.8-1.4-2.1c-0.1,0-0.2-0.1-0.3-0.1c-0.3-0.2-0.7-0.3-1.1-0.3c-0.6,0-1.2,0.2-1.7,0.7l-0.5,0.5l-0.8-0.8l0.7-0.7 c0.7-0.7,0.9-1.6,0.5-2.5l0,0c0,0,0-0.1,0-0.1l0,0c-0.3-0.9-1.2-1.6-2.2-1.6H5.7v-1.1H7c1,0,1.8-0.6,2.2-1.5l0,0 c0.4-0.9,0.2-1.9-0.5-2.6L7.8,8.5l0.8-0.8l0.8,0.8c0.4,0.4,1,0.7,1.7,0.7c0.4,0,0.7-0.1,1-0.2c0,0,0.1,0,0.1,0 c0.8-0.4,1.4-1.2,1.4-2.1V5.7h1.1v0.7c0,1,0.7,1.9,1.7,2.3c0.1,0,0.2,0.1,0.3,0.1c0.3,0.1,0.5,0.1,0.8,0.1c0.6,0,1.2-0.2,1.7-0.7 l0.5-0.5l0.8,0.8L20,8.7c-0.7,0.7-0.9,1.9-0.4,2.8c0.1,0.2,0.2,0.3,0.2,0.5c0.4,0.9,1.2,1.5,2.2,1.5h0.2v1.1h-0.1 c-1,0-1.9,0.6-2.2,1.6c-0.1,0.2-0.2,0.4-0.2,0.6c-0.4,0.9-0.3,2,0.5,2.7l0.1,0.1l-0.8,0.8l-0.2-0.2c-0.4-0.4-1.1-0.7-1.7-0.7 c-0.3,0-0.6,0.1-0.9,0.2c-0.2,0.1-0.3,0.1-0.5,0.2c-1,0.3-1.7,1.2-1.7,2.3V22.3 M15.9,22.7V22c0-0.4,0.3-0.8,0.7-0.9 c0.2-0.1,0.4-0.1,0.7-0.2c0.4-0.2,0.8-0.1,1.1,0.2l0.4,0.4c0.4,0.4,1,0.4,1.4,0l1.3-1.3c0.4-0.4,0.4-1,0-1.4l-0.3-0.3 c-0.3-0.3-0.4-0.8-0.2-1.1c0.1-0.2,0.2-0.5,0.3-0.7c0.1-0.4,0.5-0.7,0.9-0.7h0.5c0.5,0,1-0.4,1-1v-1.8c0-0.5-0.4-1-1-1H22 c-0.4,0-0.8-0.2-0.9-0.6c-0.1-0.2-0.2-0.4-0.3-0.6c-0.2-0.4-0.1-0.9,0.2-1.2l0.5-0.5c0.4-0.4,0.4-1,0-1.4l-1.3-1.3 c-0.4-0.4-1-0.4-1.4,0L18,7.3c-0.3,0.3-0.7,0.4-1,0.2c-0.1,0-0.2-0.1-0.4-0.1c-0.4-0.1-0.7-0.5-0.7-0.9V5.3c0-0.5-0.4-1-1-1h-1.8 c-0.5,0-1,0.4-1,1v1.5c0,0.4-0.2,0.7-0.6,0.9c0,0-0.1,0-0.1,0.1c-0.4,0.2-0.8,0.1-1.1-0.2l-1-1c-0.4-0.4-1-0.4-1.4,0L6.5,7.8 c-0.4,0.4-0.4,1,0,1.4l1.1,1.1c0.3,0.3,0.4,0.7,0.2,1.1l0,0c-0.2,0.4-0.5,0.6-0.9,0.6H5.3c-0.5,0-1,0.4-1,1v1.8c0,0.5,0.4,1,1,1h1.5 c0.4,0,0.8,0.3,0.9,0.7c0,0,0,0.1,0,0.1c0.1,0.4,0,0.8-0.2,1l-1,1c-0.4,0.4-0.4,1,0,1.4l1.3,1.3c0.4,0.4,1,0.4,1.4,0l0.7-0.7 c0.3-0.3,0.8-0.4,1.2-0.2c0.1,0.1,0.2,0.1,0.4,0.2c0.4,0.2,0.6,0.5,0.6,0.9v1c0,0.5,0.4,1,1,1h1.8C15.5,23.6,15.9,23.2,15.9,22.7z M18.3,13.9c0-2.2-1.8-4-4-4s-4,1.8-4,4c0,2.2,1.8,4,4,4S18.3,16.1,18.3,13.9z M16.9,13.9c0,1.5-1.2,2.6-2.6,2.6 c-1.5,0-2.6-1.2-2.6-2.6s1.2-2.6,2.6-2.6C15.7,11.3,16.9,12.4,16.9,13.9z"/>
</svg>