<?xml version="1.0" encoding="utf-8"?>
<svg version="1.1" xmlns="http://www.w3.org/2000/svg" xmlns:xlink="http://www.w3.org/1999/xlink" x="0px" y="0px" viewBox="0 0 28 28" xml:space="preserve">
	<path fill="#A3AAB2" d="M14.8,26v-0.4c0-1.5,1-2.8,2.4-3.3c0.3-0.1,0.5-0.2,0.8-0.3c0.4-0.2,0.9-0.3,1.3-0.3c0.9,0,1.8,0.4,2.4,1 l0.2,0.2l1.1-1.1L23,21.9c-1-1-1.3-2.6-0.7-3.9c0.1-0.3,0.2-0.6,0.3-0.8c0.5-1.4,1.8-2.3,3.2-2.3H26v-1.6h-0.3 c-1.4,0-2.6-0.8-3.2-2.1c-0.1-0.3-0.2-0.5-0.3-0.7c-0.7-1.3-0.5-3,0.6-4L23,6.1L21.9,5l-0.7,0.7c-0.6,0.6-1.5,1-2.4,1 c-0.4,0-0.8-0.1-1.2-0.2c-0.1-0.1-0.3-0.1-0.4-0.1c-1.5-0.5-2.4-1.8-2.4-3.3V2h-1.6v1.6c0,1.3-0.8,2.6-2,3.1c0,0-0.1,0-0.2,0.1 c-0.5,0.2-1,0.3-1.5,0.3c-0.9,0-1.8-0.4-2.4-1L6.1,5L5,6.1l1.3,1.3c1,1,1.3,2.5,0.7,3.7l0,0c-0.5,1.3-1.8,2.1-3.2,2.1H2v1.6h1.5 c1.5,0,2.8,0.9,3.2,2.3l0,0c0,0,0,0.1,0,0.1l0,0C7.3,18.5,7,19.9,6,20.8L5,21.9L6.1,23l0.7-0.7c0.6-0.6,1.5-1,2.4-1 c0.6,0,1.1,0.1,1.6,0.4c0.1,0.1,0.3,0.1,0.4,0.2c1.2,0.6,2,1.8,2,3.1V26H14.8 M15.3,28h-2.7c-0.8,0-1.4-0.6-1.4-1.4v-1.5 c0-0.6-0.3-1.1-0.8-1.3c-0.2-0.1-0.3-0.2-0.5-0.3c-0.6-0.3-1.2-0.2-1.7,0.2l-1.1,1.1c-0.6,0.6-1.5,0.6-2,0l-1.9-1.9 c-0.6-0.6-0.6-1.5,0-2l1.5-1.5C5,19,5.2,18.5,5,17.9c0-0.1,0-0.1-0.1-0.2c-0.2-0.6-0.7-1-1.4-1H1.4c-0.8,0-1.4-0.6-1.4-1.4v-2.7 c0-0.8,0.6-1.4,1.4-1.4h2.3c0.6,0,1.1-0.4,1.3-0.9l0,0c0.2-0.5,0.1-1.2-0.3-1.6L3.2,7.1c-0.6-0.6-0.6-1.5,0-2L5,3.2 c0.6-0.6,1.5-0.6,2,0l1.5,1.5C9,5.1,9.7,5.2,10.2,4.9c0.1,0,0.1-0.1,0.2-0.1c0.5-0.2,0.8-0.7,0.8-1.3V1.4c0-0.8,0.6-1.4,1.4-1.4h2.7 c0.8,0,1.4,0.6,1.4,1.4V3c0,0.6,0.4,1.2,1,1.4c0.2,0.1,0.4,0.1,0.5,0.2c0.5,0.2,1.1,0.1,1.5-0.3l1.1-1.1c0.6-0.6,1.5-0.6,2,0L24.8,5 c0.6,0.6,0.6,1.5,0,2l-0.7,0.7c-0.4,0.4-0.5,1.1-0.3,1.7c0.2,0.3,0.3,0.6,0.4,0.9c0.2,0.5,0.7,0.9,1.3,0.9h0.9 c0.8,0,1.4,0.6,1.4,1.4v2.7c0,0.8-0.6,1.4-1.4,1.4h-0.7c-0.6,0-1.2,0.4-1.4,1c-0.1,0.4-0.3,0.7-0.4,1c-0.3,0.6-0.2,1.2,0.3,1.6 l0.5,0.5c0.6,0.6,0.6,1.5,0,2l-1.9,1.9c-0.6,0.6-1.5,0.6-2,0l-0.6-0.6c-0.4-0.4-1-0.5-1.6-0.3c-0.3,0.1-0.6,0.2-1,0.3 c-0.6,0.2-1,0.7-1,1.4v0.9C16.8,27.4,16.1,28,15.3,28z M14.4,19.7c-3.2,0-5.8-2.6-5.8-5.8c0-3.2,2.6-5.8,5.8-5.8s5.8,2.6,5.8,5.8 C20.2,17.1,17.6,19.7,14.4,19.7z M14.4,10c-2.1,0-3.8,1.7-3.8,3.8s1.7,3.8,3.8,3.8c2.1,0,3.8-1.7,3.8-3.8S16.5,10,14.4,10z"/>
</svg>