<svg xmlns="http://www.w3.org/2000/svg" width="28" height="28" viewBox="0 0 28 28">
    <g id="Path_2030" data-name="Path 2030" transform="translate(-1795.843 -1495.819)" fill="none" stroke-miterlimit="10">
        <path d="M1820.375,1513.567a10.551,10.551,0,0,1-.431,1.044,1.44,1.44,0,0,0,.272,1.646l.474.474a1.439,1.439,0,0,1,0,2.035l-1.9,1.9a1.44,1.44,0,0,1-2.037,0l-.625-.627a1.416,1.416,0,0,0-1.554-.314q-.465.2-.95.346a1.426,1.426,0,0,0-1.007,1.365v.946a1.44,1.44,0,0,1-1.44,1.44H1808.5a1.439,1.439,0,0,1-1.439-1.44v-1.494a1.431,1.431,0,0,0-.836-1.3q-.26-.119-.513-.252a1.443,1.443,0,0,0-1.7.246l-1.088,1.087a1.439,1.439,0,0,1-2.037,0l-1.893-1.9a1.438,1.438,0,0,1,0-2.034l1.482-1.483a1.422,1.422,0,0,0,.334-1.5c-.024-.066-.049-.131-.072-.2a1.431,1.431,0,0,0-1.351-.96h-2.106a1.439,1.439,0,0,1-1.44-1.438v-2.681a1.44,1.44,0,0,1,1.44-1.44h2.344a1.434,1.434,0,0,0,1.325-.891l.008-.018a1.435,1.435,0,0,0-.307-1.564l-1.659-1.663a1.44,1.44,0,0,1,0-2.035l1.892-1.893a1.439,1.439,0,0,1,2.036,0l1.5,1.5a1.429,1.429,0,0,0,1.633.276l.177-.083a1.421,1.421,0,0,0,.823-1.3v-2.113a1.439,1.439,0,0,1,1.439-1.44h2.681a1.44,1.44,0,0,1,1.44,1.44v1.563a1.445,1.445,0,0,0,1.026,1.375q.265.082.525.178a1.431,1.431,0,0,0,1.512-.329l1.074-1.074a1.44,1.44,0,0,1,2.035,0l1.9,1.894a1.44,1.44,0,0,1,0,2.036l-.681.681a1.427,1.427,0,0,0-.253,1.679q.233.44.423.9a1.418,1.418,0,0,0,1.317.871h.909a1.439,1.439,0,0,1,1.44,1.44v2.681a1.439,1.439,0,0,1-1.44,1.438h-.672A1.44,1.44,0,0,0,1820.375,1513.567Z" stroke="none"/>
        <path d="M 1810.619506835938 1521.819091796875 L 1810.619506835938 1521.43310546875 C 1810.619506835938 1519.9169921875 1811.592163085938 1518.599853515625 1813.035522460938 1518.156982421875 C 1813.295288085938 1518.07666015625 1813.55224609375 1517.983154296875 1813.796020507812 1517.88037109375 C 1814.216186523438 1517.7021484375 1814.660888671875 1517.61181640625 1815.117553710938 1517.61181640625 C 1816.021606445312 1517.61181640625 1816.907592773438 1517.981079101562 1817.547729492188 1518.624267578125 L 1817.775512695312 1518.85302734375 L 1818.879638671875 1517.748413085938 L 1818.802490234375 1517.671264648438 C 1817.774536132812 1516.643798828125 1817.508544921875 1515.066772460938 1818.1396484375 1513.749145507812 C 1818.269775390625 1513.476684570312 1818.38720703125 1513.192016601562 1818.48779296875 1512.90625 C 1818.971801757812 1511.5234375 1820.275390625 1510.594482421875 1821.731567382812 1510.594482421875 L 1821.843017578125 1510.594482421875 L 1821.843017578125 1509.035034179688 L 1821.494262695312 1509.035034179688 C 1820.096923828125 1509.035034179688 1818.853759765625 1508.2060546875 1818.327880859375 1506.924682617188 C 1818.222900390625 1506.66943359375 1818.108154296875 1506.423828125 1817.986938476562 1506.194580078125 C 1817.279296875 1504.856689453125 1817.523193359375 1503.238159179688 1818.594360351562 1502.166381835938 L 1818.878295898438 1501.882568359375 L 1817.774780273438 1500.78076171875 L 1817.09619140625 1501.459594726562 C 1816.447998046875 1502.107543945312 1815.58642578125 1502.46435546875 1814.670166015625 1502.46435546875 C 1814.260498046875 1502.46435546875 1813.857788085938 1502.391845703125 1813.475708007812 1502.249755859375 C 1813.335571289062 1502.197875976562 1813.193359375 1502.149536132812 1813.049438476562 1502.104858398438 C 1811.595947265625 1501.65087890625 1810.619506835938 1500.331420898438 1810.619506835938 1498.8212890625 L 1810.619506835938 1497.819091796875 L 1809.05908203125 1497.819091796875 L 1809.05908203125 1499.371704101562 C 1809.05908203125 1500.711303710938 1808.27685546875 1501.933959960938 1807.06787109375 1502.48583984375 C 1807.017944335938 1502.5087890625 1806.967163085938 1502.532348632812 1806.917358398438 1502.555786132812 C 1806.456665039062 1502.776000976562 1805.944213867188 1502.892456054688 1805.434936523438 1502.892456054688 C 1804.519409179688 1502.892456054688 1803.658447265625 1502.53564453125 1803.0107421875 1501.887939453125 L 1801.905151367188 1500.782470703125 L 1800.8046875 1501.883056640625 L 1802.069213867188 1503.150024414062 C 1803.049926757812 1504.13427734375 1803.339721679688 1505.602294921875 1802.807373046875 1506.890014648438 L 1802.791625976562 1506.927124023438 C 1802.25341796875 1508.208374023438 1801.013427734375 1509.035034179688 1799.626342773438 1509.035034179688 L 1797.843017578125 1509.035034179688 L 1797.843017578125 1510.594482421875 L 1799.389038085938 1510.594482421875 C 1800.845092773438 1510.594482421875 1802.146728515625 1511.518432617188 1802.6279296875 1512.893798828125 L 1802.634033203125 1512.911499023438 C 1802.64892578125 1512.95556640625 1802.665405273438 1512.998901367188 1802.681518554688 1513.042358398438 L 1802.68603515625 1513.054565429688 C 1803.149658203125 1514.300415039062 1802.838012695312 1515.717041015625 1801.891723632812 1516.6640625 L 1800.8056640625 1517.750244140625 L 1801.906616210938 1518.853637695312 L 1802.595947265625 1518.164916992188 C 1803.242065429688 1517.517578125 1804.103271484375 1517.161010742188 1805.02099609375 1517.161010742188 C 1805.581176757812 1517.161010742188 1806.140991210938 1517.29931640625 1806.639526367188 1517.560913085938 C 1806.776245117188 1517.632690429688 1806.916015625 1517.701293945312 1807.055786132812 1517.765258789062 C 1808.272705078125 1518.322509765625 1809.05908203125 1519.547119140625 1809.05908203125 1520.885131835938 L 1809.05908203125 1521.819091796875 L 1810.619506835938 1521.819091796875 M 1811.179809570312 1523.819091796875 L 1808.49853515625 1523.819091796875 C 1807.703002929688 1523.819091796875 1807.05908203125 1523.174194335938 1807.05908203125 1522.37939453125 L 1807.05908203125 1520.885131835938 C 1807.05908203125 1520.324462890625 1806.732421875 1519.81689453125 1806.223022460938 1519.583618164062 C 1806.0498046875 1519.50439453125 1805.878784179688 1519.42041015625 1805.710327148438 1519.33203125 C 1805.147216796875 1519.03662109375 1804.460815429688 1519.127563476562 1804.011474609375 1519.577758789062 L 1802.923950195312 1520.664428710938 C 1802.361450195312 1521.227905273438 1801.449584960938 1521.226928710938 1800.887329101562 1520.663696289062 L 1798.994018554688 1518.76611328125 C 1798.432495117188 1518.203979492188 1798.433349609375 1517.293701171875 1798.994995117188 1516.732421875 L 1800.477416992188 1515.249877929688 C 1800.86962890625 1514.857421875 1801.005249023438 1514.272338867188 1800.811645507812 1513.752075195312 C 1800.787231445312 1513.686401367188 1800.7626953125 1513.620849609375 1800.740112304688 1513.554321289062 C 1800.538940429688 1512.979370117188 1799.997680664062 1512.594482421875 1799.389038085938 1512.594482421875 L 1797.282592773438 1512.594482421875 C 1796.487915039062 1512.594482421875 1795.843017578125 1511.950561523438 1795.843017578125 1511.156005859375 L 1795.843017578125 1508.474609375 C 1795.843017578125 1507.679077148438 1796.487915039062 1507.035034179688 1797.282592773438 1507.035034179688 L 1799.626342773438 1507.035034179688 C 1800.208129882812 1507.035034179688 1800.729125976562 1506.682373046875 1800.951416015625 1506.1435546875 L 1800.959106445312 1506.125854492188 C 1801.18115234375 1505.588745117188 1801.0625 1504.973266601562 1800.652465820312 1504.561767578125 L 1798.993286132812 1502.899169921875 C 1798.432495117188 1502.336669921875 1798.433349609375 1501.42578125 1798.994995117188 1500.864379882812 L 1800.887329101562 1498.971801757812 C 1801.449584960938 1498.409545898438 1802.361694335938 1498.409545898438 1802.922973632812 1498.971801757812 L 1804.424926757812 1500.473754882812 C 1804.85595703125 1500.904907226562 1805.508911132812 1501.01416015625 1806.058227539062 1500.749755859375 C 1806.116943359375 1500.722045898438 1806.1767578125 1500.694213867188 1806.235717773438 1500.667236328125 C 1806.740844726562 1500.436645507812 1807.05908203125 1499.926513671875 1807.05908203125 1499.371704101562 L 1807.05908203125 1497.258666992188 C 1807.05908203125 1496.4638671875 1807.703002929688 1495.819091796875 1808.49853515625 1495.819091796875 L 1811.179809570312 1495.819091796875 C 1811.974609375 1495.819091796875 1812.619506835938 1496.4638671875 1812.619506835938 1497.258666992188 L 1812.619506835938 1498.8212890625 C 1812.619506835938 1499.455810546875 1813.039428710938 1500.006469726562 1813.645629882812 1500.19580078125 C 1813.822387695312 1500.250610351562 1813.99755859375 1500.310302734375 1814.170288085938 1500.374267578125 C 1814.695678710938 1500.569213867188 1815.285522460938 1500.441650390625 1815.68212890625 1500.045166015625 L 1816.756225585938 1498.970825195312 C 1817.318115234375 1498.40869140625 1818.228881835938 1498.40869140625 1818.791015625 1498.96923828125 L 1820.6884765625 1500.863647460938 C 1821.2509765625 1501.424926757812 1821.251831054688 1502.33740234375 1820.689453125 1502.89990234375 L 1820.00830078125 1503.580810546875 C 1819.563842773438 1504.025512695312 1819.461059570312 1504.703979492188 1819.7548828125 1505.259521484375 C 1819.909912109375 1505.552612304688 1820.05029296875 1505.854614257812 1820.177490234375 1506.163818359375 C 1820.395751953125 1506.695678710938 1820.920043945312 1507.035034179688 1821.494262695312 1507.035034179688 L 1822.403442382812 1507.035034179688 C 1823.198974609375 1507.035034179688 1823.843017578125 1507.679077148438 1823.843017578125 1508.474609375 L 1823.843017578125 1511.156005859375 C 1823.843017578125 1511.950561523438 1823.198974609375 1512.594482421875 1822.403442382812 1512.594482421875 L 1821.731567382812 1512.594482421875 C 1821.117919921875 1512.594482421875 1820.578247070312 1512.98779296875 1820.37548828125 1513.567016601562 C 1820.249877929688 1513.923950195312 1820.106079101562 1514.272338867188 1819.944458007812 1514.61083984375 C 1819.67919921875 1515.164672851562 1819.781860351562 1515.822387695312 1820.21630859375 1516.256591796875 L 1820.690185546875 1516.730712890625 C 1821.252563476562 1517.293090820312 1821.252563476562 1518.20458984375 1820.690185546875 1518.76611328125 L 1818.792724609375 1520.664428710938 C 1818.229614257812 1521.226928710938 1817.31689453125 1521.225952148438 1816.755493164062 1520.662963867188 L 1816.130737304688 1520.035766601562 C 1815.723388671875 1519.62646484375 1815.108520507812 1519.496215820312 1814.57666015625 1519.7216796875 C 1814.266967773438 1519.852294921875 1813.950439453125 1519.967529296875 1813.626342773438 1520.067749023438 C 1813.026000976562 1520.251953125 1812.619506835938 1520.80615234375 1812.619506835938 1521.43310546875 L 1812.619506835938 1522.37939453125 C 1812.619506835938 1523.174194335938 1811.974609375 1523.819091796875 1811.179809570312 1523.819091796875 Z" stroke="none" fill="#a3aab2"/>
    </g>
    <g id="Ellipse_600" data-name="Ellipse 600" transform="translate(8.543 8.018)" fill="none" stroke="#a3aab2" stroke-miterlimit="10" stroke-width="2">
        <circle cx="5.832" cy="5.832" r="5.832" stroke="none"/>
        <circle cx="5.832" cy="5.832" r="4.832" fill="none"/>
    </g>
</svg>
